<svg xmlns="http://www.w3.org/2000/svg" xmlns:xlink="http://www.w3.org/1999/xlink" width="450" height="300" viewBox="-0.75 -0.5000 1.5 1.0000"><style>svg {
  color-scheme: light dark;
}
{
  .canvas g, .title g, .axisbar g, .ticktext g, .tickglyph g, .ticklines g, .legendContent g text {
    fill: rgb(5%, 5%, 5%);
  }
  .ticklines g, .tickglyph g, .legendBorder g {
    stroke: rgb(5%, 5%, 5%);
  }
  .legendBorder g {
    fill: rgb(94%, 94%, 94%);
  }
}
@media (prefers-color-scheme:dark) {
  .canvas g, .title g, .axisbar g, .ticktext g, .tickglyph g, .ticklines g, .legendContent g text {
    fill: rgb(94%, 94%, 94%);
  }
  .ticklines g, .tickglyph g, .legendBorder g {
    stroke: rgb(94%, 94%, 94%);
  }
  .legendBorder g {
    fill: rgb(5%, 5%, 5%);
  }
}
svg { font-family: system-ui,-apple-system,"Segoe UI",Roboto,"Helvetica Neue",Arial,"Noto Sans","Liberation Sans",sans-serif,"Apple Color Emoji","Segoe UI Emoji","Segoe UI Symbol","Noto Color Emoji";
}

ticktext { font-family: SFMono-Regular,Menlo,Monaco,Consolas,"Liberation Mono","Courier New",monospace;
}

</style><g class="chart"><g stroke-width="0.0120" stroke="rgb(5%, 5%, 5%)" stroke-opacity="1.0" fill="none"><polyline points="-0.4328,-0.0367 -0.0303,-0.0367"/></g><g stroke-width="0.0100" stroke="rgb(2%, 29%, 48%)" stroke-opacity="1.0" fill="rgb(2%, 73%, 80%)" fill-opacity="0.1"><rect width="0.0719" height="0.8250" x="-0.0303" y="-0.4492"/></g><g stroke-width="0.0100" stroke="rgb(2%, 29%, 48%)" stroke-opacity="1.0" fill="rgb(2%, 73%, 80%)" fill-opacity="0.1"><rect width="0.0683" height="0.8250" x="0.0416" y="-0.4492"/></g><g stroke-width="0.0120" stroke="rgb(5%, 5%, 5%)" stroke-opacity="1.0" fill="none"><polyline points="0.1098,-0.0367 0.5029,-0.0367"/></g><g class="datapadding"></g></g><g class="hud"><g class="frame"><g stroke-width="0" stroke="rgb(0%, 0%, 0%)" stroke-opacity="0" fill="rgb(100%, 100%, 100%)" fill-opacity="0.02"><rect width="1.2931" height="0.8333" x="-0.5983" y="-0.4533"/></g></g><g class="axis"><g class="axisbar"><g stroke-width="0" stroke="rgb(0%, 0%, 0%)" stroke-opacity="0" fill="rgb(5%, 5%, 5%)" fill-opacity="0.4"><rect width="1.2966" height="0.0033" x="-0.6000" y="0.3842"/></g></g><g class="ticks"><g class="ticklines"><g stroke-width="0.0050" stroke="rgb(5%, 5%, 5%)" stroke-opacity="0.05" fill="none"><polyline points="-0.5983,0.3758 -0.5983,-0.4492"/><polyline points="-0.3397,0.3758 -0.3397,-0.4492"/><polyline points="-0.0810,0.3758 -0.0810,-0.4492"/><polyline points="0.1776,0.3758 0.1776,-0.4492"/><polyline points="0.4362,0.3758 0.4362,-0.4492"/><polyline points="0.6948,0.3758 0.6948,-0.4492"/></g></g><g class="tickglyph"><g stroke-width="0.0033" stroke="rgb(5%, 5%, 5%)" stroke-opacity="0.4" fill="rgb(5%, 5%, 5%)" fill-opacity="0.4"><polyline points="-0.5983,0.4108
-0.5983,0.3858"/><polyline points="-0.3397,0.4108
-0.3397,0.3858"/><polyline points="-0.0810,0.4108
-0.0810,0.3858"/><polyline points="0.1776,0.4108
0.1776,0.3858"/><polyline points="0.4362,0.4108
0.4362,0.3858"/><polyline points="0.6948,0.4108
0.6948,0.3858"/></g></g><g class="ticktext"><g stroke-width="0.0" stroke="none" fill="rgb(5%, 5%, 5%)" fill-opacity="1.0" font-size="0.0400" text-anchor="middle"><text x="-0.5983" y="0.4567"> 0</text><text x="-0.3397" y="0.4567"> 5</text><text x="-0.0810" y="0.4567">10</text><text x="0.1776" y="0.4567">15</text><text x="0.4362" y="0.4567">20</text><text x="0.6948" y="0.4567">25</text></g></g></g></g><g class="axis"><g class="axisbar"><g stroke-width="0" stroke="rgb(0%, 0%, 0%)" stroke-opacity="0" fill="rgb(5%, 5%, 5%)" fill-opacity="0.4"><rect width="0.0034" height="0.8283" x="-0.6103" y="-0.4508"/></g></g><g class="ticks"><g class="ticklines"><g stroke-width="0.0050" stroke="rgb(5%, 5%, 5%)" stroke-opacity="0.05" fill="none"><polyline points="-0.5983,0.3758 0.6948,0.3758"/><polyline points="-0.5983,0.2108 0.6948,0.2108"/><polyline points="-0.5983,0.0458 0.6948,0.0458"/><polyline points="-0.5983,-0.1192 0.6948,-0.1192"/><polyline points="-0.5983,-0.2842 0.6948,-0.2842"/><polyline points="-0.5983,-0.4492 0.6948,-0.4492"/></g></g><g class="tickglyph"><g stroke-width="0.0034" stroke="rgb(5%, 5%, 5%)" stroke-opacity="0.4" fill="rgb(5%, 5%, 5%)" fill-opacity="0.4"><polyline points="-0.6345,0.3758
-0.6086,0.3758"/><polyline points="-0.6345,0.2108
-0.6086,0.2108"/><polyline points="-0.6345,0.0458
-0.6086,0.0458"/><polyline points="-0.6345,-0.1192
-0.6086,-0.1192"/><polyline points="-0.6345,-0.2842
-0.6086,-0.2842"/><polyline points="-0.6345,-0.4492
-0.6086,-0.4492"/></g></g><g class="ticktext"><g stroke-width="0.0" stroke="none" fill="rgb(5%, 5%, 5%)" fill-opacity="1.0" font-size="0.0400" text-anchor="end"><text x="-0.6534" y="0.3850">0.0</text><text x="-0.6534" y="0.2200">0.2</text><text x="-0.6534" y="0.0550">0.4</text><text x="-0.6534" y="-0.1100">0.6</text><text x="-0.6534" y="-0.2750">0.8</text><text x="-0.6534" y="-0.4400">1.0</text></g></g></g></g><g class="frame"><g stroke-width="0" stroke="rgb(0%, 0%, 0%)" stroke-opacity="0" fill="rgb(0%, 0%, 0%)" fill-opacity="0"><rect width="1.5" height="1.0000" x="-0.75" y="-0.5000"/></g></g></g></svg>