<svg xmlns="http://www.w3.org/2000/svg" xmlns:xlink="http://www.w3.org/1999/xlink" width="448" height="300" viewBox="-0.7507 -0.5009 1.5015 1.0052"><style>svg {
  color-scheme: light dark;
}
{
  .canvas g, .title g, .axisbar g, .ticktext g, .tickglyph g, .ticklines g, .legendContent g text {
    fill: rgb(5%, 5%, 5%);
  }
  .ticklines g, .tickglyph g, .legendBorder g {
    stroke: rgb(5%, 5%, 5%);
  }
  .legendBorder g {
    fill: rgb(94%, 94%, 94%);
  }
}
@media (prefers-color-scheme:dark) {
  .canvas g, .title g, .axisbar g, .ticktext g, .tickglyph g, .ticklines g, .legendContent g text {
    fill: rgb(94%, 94%, 94%);
  }
  .ticklines g, .tickglyph g, .legendBorder g {
    stroke: rgb(94%, 94%, 94%);
  }
  .legendBorder g {
    fill: rgb(5%, 5%, 5%);
  }
}
svg { font-family: system-ui,-apple-system,"Segoe UI",Roboto,"Helvetica Neue",Arial,"Noto Sans","Liberation Sans",sans-serif,"Apple Color Emoji","Segoe UI Emoji","Segoe UI Symbol","Noto Color Emoji";
}

ticktext { font-family: SFMono-Regular,Menlo,Monaco,Consolas,"Liberation Mono","Courier New",monospace;
}

</style><g class="chart"><g class="histPlot"><g stroke-width="0.0100" stroke="rgb(66%, 7%, 55%)" stroke-opacity="1.0" fill="rgb(66%, 7%, 55%)" fill-opacity="0.2"><rect width="0.1163" height="0.0000" x="-0.6105" y="0.3051"/><rect width="0.1163" height="0.0016" x="-0.4942" y="0.3035"/><rect width="0.1163" height="0.0303" x="-0.3779" y="0.2748"/><rect width="0.1163" height="0.2371" x="-0.2616" y="0.0680"/><rect width="0.1163" height="0.6367" x="-0.1453" y="-0.3316"/><rect width="0.1163" height="0.8010" x="-0.0291" y="-0.4959"/><rect width="0.1163" height="0.3498" x="0.0872" y="-0.0447"/><rect width="0.1163" height="0.0742" x="0.2035" y="0.2309"/><rect width="0.1163" height="0.0067" x="0.3198" y="0.2984"/><rect width="0.1163" height="0.0001" x="0.4360" y="0.3050"/></g></g><g class="datapadding"></g></g><g class="hud"><g class="axis"><g class="axisbar"><g stroke-width="0" stroke="rgb(0%, 0%, 0%)" stroke-opacity="0" fill="rgb(5%, 5%, 5%)" fill-opacity="0.4"><rect width="1.4574" height="0.0033" x="-0.7287" y="0.3133"/></g></g><g class="ticks"><g class="tickglyph"><g stroke-width="0.0033" stroke="rgb(5%, 5%, 5%)" stroke-opacity="0.4" fill="rgb(5%, 5%, 5%)" fill-opacity="0.4"><polyline points="-0.7267,0.3396
-0.7267,0.3150"/><polyline points="-0.4360,0.3396
-0.4360,0.3150"/><polyline points="-0.1453,0.3396
-0.1453,0.3150"/><polyline points="0.1453,0.3396
0.1453,0.3150"/><polyline points="0.4360,0.3396
0.4360,0.3150"/><polyline points="0.7267,0.3396
0.7267,0.3150"/></g></g><g class="ticktext"><g stroke-width="0.0" stroke="none" fill="rgb(5%, 5%, 5%)" fill-opacity="1.0" font-size="0.0400" text-anchor="middle"><text x="-0.7267" y="0.3849"> 0</text><text x="-0.4360" y="0.3849"> 5</text><text x="-0.1453" y="0.3849">10</text><text x="0.1453" y="0.3849">15</text><text x="0.4360" y="0.3849">20</text><text x="0.7267" y="0.3849">25</text></g></g></g></g><g class="title"><g stroke-width="0.0" stroke="none" fill="rgb(66%, 7%, 55%)" fill-opacity="1.0" font-size="0.0800" text-anchor="middle"><text x="0" y="0.4803">interest_rate</text></g></g></g></svg>