<svg xmlns="http://www.w3.org/2000/svg" xmlns:xlink="http://www.w3.org/1999/xlink" width="450" height="300" viewBox="-0.75 -0.5 1.5 1.0"><style>svg {color-scheme: light dark;} {.canvas g, .title g, .axisbar g, .ticktext g, .tickglyph g, .ticklines g, .legendContent g text {fill: rgb(5%, 5%, 5%);} .ticklines g, .tickglyph g, .legendBorder g {stroke: rgb(5%, 5%, 5%);} .legendBorder g {fill: rgb(94%, 94%, 94%);}} @media (prefers-color-scheme:dark) {.canvas g, .title g, .axisbar g, .ticktext g, .tickglyph g, .ticklines g, .legendContent g text {fill: rgb(94%, 94%, 94%);} .ticklines g, .tickglyph g, .legendBorder g {stroke: rgb(94%, 94%, 94%);} .legendBorder g {fill: rgb(5%, 5%, 5%);}}
svg { font-family: system-ui,-apple-system,"Segoe UI",Roboto,"Helvetica Neue",Arial,"Noto Sans","Liberation Sans",sans-serif,"Apple Color Emoji","Segoe UI Emoji","Segoe UI Symbol","Noto Color Emoji";
}

ticktext { font-family: SFMono-Regular,Menlo,Monaco,Consolas,"Liberation Mono","Courier New",monospace;}</style><g class="chart"><g class="chart"><g class="barchart"><g stroke-width="0" stroke="rgb(2%, 29%, 48%)" stroke-opacity="1.0" fill="rgb(2%, 73%, 80%)" fill-opacity="0.2"><rect width="0.1841" height="0.3041" x="0.5199" y="-0.4312"/></g><g stroke-width="0" stroke="rgb(2%, 29%, 48%)" stroke-opacity="1.0" fill="rgb(2%, 29%, 48%)" fill-opacity="0.2"><rect width="0.1841" height="0.2481" x="0.5199" y="-0.1271"/></g><g stroke-width="0" stroke="rgb(2%, 29%, 48%)" stroke-opacity="1.0" fill="rgb(66%, 7%, 55%)" fill-opacity="0.2"><rect width="0.1841" height="0.1360" x="0.5199" y="0.1210"/></g></g><g class="labels"><g stroke-width="0.0" stroke="none" fill="rgb(-63%, 46%, 53%)" fill-opacity="0.6" font-size="0.0338" text-anchor="middle"><text x="0.6120" y="-0.2791">Adelie</text></g><g stroke-width="0.0" stroke="none" fill="rgb(-8%, 16%, 34%)" fill-opacity="0.6" font-size="0.0338" text-anchor="middle"><text x="0.6120" y="-0.0031">Gentoo</text></g><g stroke-width="0.0" stroke="none" fill="rgb(46%, -23%, 37%)" fill-opacity="0.6" font-size="0.0338" text-anchor="middle"><text x="0.6120" y="0.1890">Chinstrap</text></g></g></g><g class="hud"><g class="axis"><g class="ticks"><g class="ticktext"><g stroke-width="0.0" stroke="none" fill="rgb(5%, 5%, 5%)" fill-opacity="1.0" font-size="0.0327" text-anchor="end"><text x="0.6120" y="0.3038" transform="rotate(-45.0, 0.6120, 0.3038)">species</text></g></g></g></g></g><g class="chart"><g class="barchart"><g stroke-width="0" stroke="rgb(2%, 29%, 48%)" stroke-opacity="1.0" fill="rgb(2%, 73%, 80%)" fill-opacity="0.2"><rect width="0.1841" height="0.3361" x="0.3102" y="-0.4312"/></g><g stroke-width="0" stroke="rgb(2%, 29%, 48%)" stroke-opacity="1.0" fill="rgb(2%, 29%, 48%)" fill-opacity="0.2"><rect width="0.1841" height="0.2481" x="0.3102" y="-0.0951"/></g><g stroke-width="0" stroke="rgb(2%, 29%, 48%)" stroke-opacity="1.0" fill="rgb(66%, 7%, 55%)" fill-opacity="0.2"><rect width="0.1841" height="0.1040" x="0.3102" y="0.1530"/></g></g><g class="labels"><g stroke-width="0.0" stroke="none" fill="rgb(-63%, 46%, 53%)" fill-opacity="0.6" font-size="0.0338" text-anchor="middle"><text x="0.4023" y="-0.2631">Biscoe</text></g><g stroke-width="0.0" stroke="none" fill="rgb(-8%, 16%, 34%)" fill-opacity="0.6" font-size="0.0338" text-anchor="middle"><text x="0.4023" y="0.0289">Dream</text></g><g stroke-width="0.0" stroke="none" fill="rgb(46%, -23%, 37%)" fill-opacity="0.6" font-size="0.0338" text-anchor="middle"><text x="0.4023" y="0.2050">Torgersen</text></g></g></g><g class="hud"><g class="axis"><g class="ticks"><g class="ticktext"><g stroke-width="0.0" stroke="none" fill="rgb(5%, 5%, 5%)" fill-opacity="1.0" font-size="0.0327" text-anchor="end"><text x="0.4023" y="0.3038" transform="rotate(-45.0, 0.4023, 0.3038)">island</text></g></g></g></g></g><g class="chart"><g class="boxplot"><g stroke-width="0.0068" stroke="rgb(5%, 5%, 5%)" stroke-opacity="1.0" fill="none"><polyline points="0.2280,0.2233 0.2280,0.0598"/></g><g stroke-width="0.0056" stroke="rgb(2%, 29%, 48%)" stroke-opacity="1.0" fill="rgb(2%, 73%, 80%)" fill-opacity="0.1"><rect width="0.1139" height="0.1199" x="0.1710" y="-0.0600"/></g><g stroke-width="0.0056" stroke="rgb(2%, 29%, 48%)" stroke-opacity="1.0" fill="rgb(2%, 73%, 80%)" fill-opacity="0.1"><rect width="0.1139" height="0.0929" x="0.1710" y="-0.1529"/></g><g stroke-width="0.0068" stroke="rgb(5%, 5%, 5%)" stroke-opacity="1.0" fill="none"><polyline points="0.2280,-0.1529 0.2280,-0.4076"/></g></g><g class="datapadding"></g></g><g class="hud"><g class="axis"><g class="axisbar"><g stroke-width="0" stroke="rgb(0%, 0%, 0%)" stroke-opacity="0" fill="rgb(5%, 5%, 5%)" fill-opacity="0.4"><rect width="0.0018" height="0.6909" x="0.1646" y="-0.4181"/></g></g><g class="ticks"><g class="ticklines"><g stroke-width="0.0028" stroke="rgb(5%, 5%, 5%)" stroke-opacity="0.05" fill="none"><polyline points="0.1710,0.2714 0.2849,0.2714"/><polyline points="0.1710,0.1567 0.2849,0.1567"/><polyline points="0.1710,0.0420 0.2849,0.0420"/><polyline points="0.1710,-0.0726 0.2849,-0.0726"/><polyline points="0.1710,-0.1873 0.2849,-0.1873"/><polyline points="0.1710,-0.3020 0.2849,-0.3020"/><polyline points="0.1710,-0.4167 0.2849,-0.4167"/></g></g><g class="tickglyph"><g stroke-width="0.0023" stroke="rgb(5%, 5%, 5%)" stroke-opacity="0.4" fill="rgb(5%, 5%, 5%)" fill-opacity="0.4"><polyline points="0.1502,0.2714
0.1670,0.2714"/><polyline points="0.1502,0.1567
0.1670,0.1567"/><polyline points="0.1502,0.0420
0.1670,0.0420"/><polyline points="0.1502,-0.0726
0.1670,-0.0726"/><polyline points="0.1502,-0.1873
0.1670,-0.1873"/><polyline points="0.1502,-0.3020
0.1670,-0.3020"/><polyline points="0.1502,-0.4167
0.1670,-0.4167"/></g></g><g class="ticktext"><g stroke-width="0.0" stroke="none" fill="rgb(5%, 5%, 5%)" fill-opacity="1.0" font-size="0.0225" text-anchor="end"><text x="0.1416" y="0.2790">30</text><text x="0.1416" y="0.1643">35</text><text x="0.1416" y="0.0496">40</text><text x="0.1416" y="-0.0651">45</text><text x="0.1416" y="-0.1798">50</text><text x="0.1416" y="-0.2945">55</text><text x="0.1416" y="-0.4092">60</text></g></g></g></g><g class="title"><g stroke-width="0.0" stroke="none" fill="rgb(5%, 5%, 5%)" fill-opacity="1.0" font-size="0.0169" text-anchor="middle"><text x="0.2034" y="0.3313">bill_length_mm</text></g></g></g><g class="chart"><g class="boxplot"><g stroke-width="0.0068" stroke="rgb(5%, 5%, 5%)" stroke-opacity="1.0" fill="none"><polyline points="0.0372,0.1957 0.0372,0.0237"/></g><g stroke-width="0.0056" stroke="rgb(2%, 29%, 48%)" stroke-opacity="1.0" fill="rgb(2%, 73%, 80%)" fill-opacity="0.1"><rect width="0.1139" height="0.1170" x="-0.0197" y="-0.0933"/></g><g stroke-width="0.0056" stroke="rgb(2%, 29%, 48%)" stroke-opacity="1.0" fill="rgb(2%, 73%, 80%)" fill-opacity="0.1"><rect width="0.1139" height="0.0963" x="-0.0197" y="-0.1896"/></g><g stroke-width="0.0068" stroke="rgb(5%, 5%, 5%)" stroke-opacity="1.0" fill="none"><polyline points="0.0372,-0.1896 0.0372,-0.3823"/></g></g><g class="datapadding"></g></g><g class="hud"><g class="axis"><g class="axisbar"><g stroke-width="0" stroke="rgb(0%, 0%, 0%)" stroke-opacity="0" fill="rgb(5%, 5%, 5%)" fill-opacity="0.4"><rect width="0.0018" height="0.6909" x="-0.0262" y="-0.4181"/></g></g><g class="ticks"><g class="ticklines"><g stroke-width="0.0028" stroke="rgb(5%, 5%, 5%)" stroke-opacity="0.05" fill="none"><polyline points="-0.0197,0.2714 0.0942,0.2714"/><polyline points="-0.0197,0.1338 0.0942,0.1338"/><polyline points="-0.0197,-0.0038 0.0942,-0.0038"/><polyline points="-0.0197,-0.1415 0.0942,-0.1415"/><polyline points="-0.0197,-0.2791 0.0942,-0.2791"/><polyline points="-0.0197,-0.4167 0.0942,-0.4167"/></g></g><g class="tickglyph"><g stroke-width="0.0023" stroke="rgb(5%, 5%, 5%)" stroke-opacity="0.4" fill="rgb(5%, 5%, 5%)" fill-opacity="0.4"><polyline points="-0.0406,0.2714
-0.0237,0.2714"/><polyline points="-0.0406,0.1338
-0.0237,0.1338"/><polyline points="-0.0406,-0.0038
-0.0237,-0.0038"/><polyline points="-0.0406,-0.1415
-0.0237,-0.1415"/><polyline points="-0.0406,-0.2791
-0.0237,-0.2791"/><polyline points="-0.0406,-0.4167
-0.0237,-0.4167"/></g></g><g class="ticktext"><g stroke-width="0.0" stroke="none" fill="rgb(5%, 5%, 5%)" fill-opacity="1.0" font-size="0.0225" text-anchor="end"><text x="-0.0492" y="0.2790">12</text><text x="-0.0492" y="0.1414">14</text><text x="-0.0492" y="0.0037">16</text><text x="-0.0492" y="-0.1339">18</text><text x="-0.0492" y="-0.2715">20</text><text x="-0.0492" y="-0.4092">22</text></g></g></g></g><g class="title"><g stroke-width="0.0" stroke="none" fill="rgb(5%, 5%, 5%)" fill-opacity="1.0" font-size="0.0169" text-anchor="middle"><text x="0.0126" y="0.3313">bill_depth_mm</text></g></g></g><g class="chart"><g class="boxplot"><g stroke-width="0.0068" stroke="rgb(5%, 5%, 5%)" stroke-opacity="1.0" fill="none"><polyline points="-0.1535,0.2518 -0.1535,0.0748"/></g><g stroke-width="0.0056" stroke="rgb(2%, 29%, 48%)" stroke-opacity="1.0" fill="rgb(2%, 73%, 80%)" fill-opacity="0.1"><rect width="0.1139" height="0.0688" x="-0.2105" y="0.0060"/></g><g stroke-width="0.0056" stroke="rgb(2%, 29%, 48%)" stroke-opacity="1.0" fill="rgb(2%, 73%, 80%)" fill-opacity="0.1"><rect width="0.1139" height="0.1573" x="-0.2105" y="-0.1513"/></g><g stroke-width="0.0068" stroke="rgb(5%, 5%, 5%)" stroke-opacity="1.0" fill="none"><polyline points="-0.1535,-0.1513 -0.1535,-0.3283"/></g></g><g class="datapadding"></g></g><g class="hud"><g class="axis"><g class="axisbar"><g stroke-width="0" stroke="rgb(0%, 0%, 0%)" stroke-opacity="0" fill="rgb(5%, 5%, 5%)" fill-opacity="0.4"><rect width="0.0018" height="0.6909" x="-0.2169" y="-0.4181"/></g></g><g class="ticks"><g class="ticklines"><g stroke-width="0.0028" stroke="rgb(5%, 5%, 5%)" stroke-opacity="0.05" fill="none"><polyline points="-0.2105,0.2714 -0.0966,0.2714"/><polyline points="-0.2105,0.1731 -0.0966,0.1731"/><polyline points="-0.2105,0.0748 -0.0966,0.0748"/><polyline points="-0.2105,-0.0235 -0.0966,-0.0235"/><polyline points="-0.2105,-0.1218 -0.0966,-0.1218"/><polyline points="-0.2105,-0.2201 -0.0966,-0.2201"/><polyline points="-0.2105,-0.3184 -0.0966,-0.3184"/><polyline points="-0.2105,-0.4167 -0.0966,-0.4167"/></g></g><g class="tickglyph"><g stroke-width="0.0023" stroke="rgb(5%, 5%, 5%)" stroke-opacity="0.4" fill="rgb(5%, 5%, 5%)" fill-opacity="0.4"><polyline points="-0.2313,0.2714
-0.2144,0.2714"/><polyline points="-0.2313,0.1731
-0.2144,0.1731"/><polyline points="-0.2313,0.0748
-0.2144,0.0748"/><polyline points="-0.2313,-0.0235
-0.2144,-0.0235"/><polyline points="-0.2313,-0.1218
-0.2144,-0.1218"/><polyline points="-0.2313,-0.2201
-0.2144,-0.2201"/><polyline points="-0.2313,-0.3184
-0.2144,-0.3184"/><polyline points="-0.2313,-0.4167
-0.2144,-0.4167"/></g></g><g class="ticktext"><g stroke-width="0.0" stroke="none" fill="rgb(5%, 5%, 5%)" fill-opacity="1.0" font-size="0.0225" text-anchor="end"><text x="-0.2399" y="0.2790">170</text><text x="-0.2399" y="0.1807">180</text><text x="-0.2399" y="0.0824">190</text><text x="-0.2399" y="-0.0159">200</text><text x="-0.2399" y="-0.1142">210</text><text x="-0.2399" y="-0.2125">220</text><text x="-0.2399" y="-0.3109">230</text><text x="-0.2399" y="-0.4092">240</text></g></g></g></g><g class="title"><g stroke-width="0.0" stroke="none" fill="rgb(5%, 5%, 5%)" fill-opacity="1.0" font-size="0.0169" text-anchor="middle"><text x="-0.1837" y="0.3313">flipper_length_mm</text></g></g></g><g class="chart"><g class="boxplot"><g stroke-width="0.0068" stroke="rgb(5%, 5%, 5%)" stroke-opacity="1.0" fill="none"><polyline points="-0.3553,0.1751 -0.3553,0.0581"/></g><g stroke-width="0.0056" stroke="rgb(2%, 29%, 48%)" stroke-opacity="1.0" fill="rgb(2%, 73%, 80%)" fill-opacity="0.1"><rect width="0.1139" height="0.0688" x="-0.4122" y="-0.0107"/></g><g stroke-width="0.0056" stroke="rgb(2%, 29%, 48%)" stroke-opacity="1.0" fill="rgb(2%, 73%, 80%)" fill-opacity="0.1"><rect width="0.1139" height="0.0963" x="-0.4122" y="-0.1071"/></g><g stroke-width="0.0068" stroke="rgb(5%, 5%, 5%)" stroke-opacity="1.0" fill="none"><polyline points="-0.3553,-0.1071 -0.3553,-0.3204"/></g></g><g class="datapadding"></g></g><g class="hud"><g class="axis"><g class="axisbar"><g stroke-width="0" stroke="rgb(0%, 0%, 0%)" stroke-opacity="0" fill="rgb(5%, 5%, 5%)" fill-opacity="0.4"><rect width="0.0018" height="0.6909" x="-0.4187" y="-0.4181"/></g></g><g class="ticks"><g class="ticklines"><g stroke-width="0.0028" stroke="rgb(5%, 5%, 5%)" stroke-opacity="0.05" fill="none"><polyline points="-0.4122,0.2714 -0.2984,0.2714"/><polyline points="-0.4122,0.1338 -0.2984,0.1338"/><polyline points="-0.4122,-0.0038 -0.2984,-0.0038"/><polyline points="-0.4122,-0.1415 -0.2984,-0.1415"/><polyline points="-0.4122,-0.2791 -0.2984,-0.2791"/><polyline points="-0.4122,-0.4167 -0.2984,-0.4167"/></g></g><g class="tickglyph"><g stroke-width="0.0023" stroke="rgb(5%, 5%, 5%)" stroke-opacity="0.4" fill="rgb(5%, 5%, 5%)" fill-opacity="0.4"><polyline points="-0.4331,0.2714
-0.4162,0.2714"/><polyline points="-0.4331,0.1338
-0.4162,0.1338"/><polyline points="-0.4331,-0.0038
-0.4162,-0.0038"/><polyline points="-0.4331,-0.1415
-0.4162,-0.1415"/><polyline points="-0.4331,-0.2791
-0.4162,-0.2791"/><polyline points="-0.4331,-0.4167
-0.4162,-0.4167"/></g></g><g class="ticktext"><g stroke-width="0.0" stroke="none" fill="rgb(5%, 5%, 5%)" fill-opacity="1.0" font-size="0.0225" text-anchor="end"><text x="-0.4417" y="0.2790">2,000</text><text x="-0.4417" y="0.1414">3,000</text><text x="-0.4417" y="0.0037">4,000</text><text x="-0.4417" y="-0.1339">5,000</text><text x="-0.4417" y="-0.2715">6,000</text><text x="-0.4417" y="-0.4092">7,000</text></g></g></g></g><g class="title"><g stroke-width="0.0" stroke="none" fill="rgb(5%, 5%, 5%)" fill-opacity="1.0" font-size="0.0169" text-anchor="middle"><text x="-0.3965" y="0.3313">body_mass_g</text></g></g></g><g class="chart"><g class="barchart"><g stroke-width="0" stroke="rgb(2%, 29%, 48%)" stroke-opacity="1.0" fill="rgb(2%, 73%, 80%)" fill-opacity="0.2"><rect width="0.1841" height="0.3472" x="-0.7040" y="-0.4312"/></g><g stroke-width="0" stroke="rgb(2%, 29%, 48%)" stroke-opacity="1.0" fill="rgb(2%, 29%, 48%)" fill-opacity="0.2"><rect width="0.1841" height="0.3410" x="-0.7040" y="-0.0840"/></g></g><g class="labels"><g stroke-width="0.0" stroke="none" fill="rgb(-63%, 46%, 53%)" fill-opacity="0.6" font-size="0.0338" text-anchor="middle"><text x="-0.6120" y="-0.2576">MALE</text></g><g stroke-width="0.0" stroke="none" fill="rgb(-8%, 16%, 34%)" fill-opacity="0.6" font-size="0.0338" text-anchor="middle"><text x="-0.6120" y="0.0865">FEMALE</text></g></g></g><g class="hud"><g class="axis"><g class="ticks"><g class="ticktext"><g stroke-width="0.0" stroke="none" fill="rgb(5%, 5%, 5%)" fill-opacity="1.0" font-size="0.0327" text-anchor="end"><text x="-0.6120" y="0.3038" transform="rotate(-45.0, -0.6120, 0.3038)">sex</text></g></g></g></g></g><g class="frame"><g stroke-width="0" stroke="rgb(0%, 0%, 0%)" stroke-opacity="0" fill="rgb(0%, 0%, 0%)" fill-opacity="0"><rect width="1.5" height="1.0" x="-0.75" y="-0.5"/></g></g></g><g class="hud"></g></svg>