<svg xmlns="http://www.w3.org/2000/svg" xmlns:xlink="http://www.w3.org/1999/xlink" width="449" height="300" viewBox="-0.75 -0.5 1.4993 1.0002"><style>svg {
  color-scheme: light dark;
}
{
  .canvas g, .title g, .axisbar g, .ticktext g, .tickglyph g, .ticklines g, .legendContent g text {
    fill: rgb(5%, 5%, 5%);
  }
  .ticklines g, .tickglyph g, .legendBorder g {
    stroke: rgb(5%, 5%, 5%);
  }
  .legendBorder g {
    fill: rgb(94%, 94%, 94%);
  }
}
@media (prefers-color-scheme:dark) {
  .canvas g, .title g, .axisbar g, .ticktext g, .tickglyph g, .ticklines g, .legendContent g text {
    fill: rgb(94%, 94%, 94%);
  }
  .ticklines g, .tickglyph g, .legendBorder g {
    stroke: rgb(94%, 94%, 94%);
  }
  .legendBorder g {
    fill: rgb(5%, 5%, 5%);
  }
}
svg { font-family: system-ui,-apple-system,"Segoe UI",Roboto,"Helvetica Neue",Arial,"Noto Sans","Liberation Sans",sans-serif,"Apple Color Emoji","Segoe UI Emoji","Segoe UI Symbol","Noto Color Emoji";
}

ticktext { font-family: SFMono-Regular,Menlo,Monaco,Consolas,"Liberation Mono","Courier New",monospace;
}

</style><g class="chart"><g class="chart"><g class="pie"><g stroke-width="0" stroke="rgb(2%, 73%, 80%)" stroke-opacity="1.0" fill="rgb(2%, 73%, 80%)" fill-opacity="0.3"><path d="M 0.1923,0.4517 L 0.1923,0.1821 A 0.6911 0.2696 0 0 1 0.2044,0.1822 L 0.1923,0.4517"/></g><g stroke-width="0" stroke="rgb(2%, 29%, 48%)" stroke-opacity="1.0" fill="rgb(2%, 29%, 48%)" fill-opacity="0.3"><path d="M 0.1930,0.4517 L 0.2051,0.1822 A 0.6911 0.2696 0 0 1 0.2210,0.1824 L 0.1930,0.4517"/></g><g stroke-width="0" stroke="rgb(66%, 7%, 55%)" stroke-opacity="1.0" fill="rgb(66%, 7%, 55%)" fill-opacity="0.3"><path d="M 0.1938,0.4518 L 0.2218,0.1824 A 0.6911 0.2696 0 0 1 0.2373,0.1827 L 0.1938,0.4518"/></g><g stroke-width="0" stroke="rgb(96%, 60%, 92%)" stroke-opacity="1.0" fill="rgb(96%, 60%, 92%)" fill-opacity="0.3"><path d="M 0.1945,0.4518 L 0.2380,0.1827 A 0.6911 0.2696 0 0 1 0.2502,0.1831 L 0.1945,0.4518"/></g><g stroke-width="0" stroke="rgb(100%, 71%, 35%)" stroke-opacity="1.0" fill="rgb(100%, 71%, 35%)" fill-opacity="0.3"><path d="M 0.1953,0.4518 L 0.2509,0.1831 A 0.6911 0.2696 0 0 1 0.2680,0.1837 L 0.1953,0.4518"/></g><g stroke-width="0" stroke="rgb(73%, 34%, 1%)" stroke-opacity="1.0" fill="rgb(73%, 34%, 1%)" fill-opacity="0.3"><path d="M 0.1982,0.4520 L 0.2710,0.1839 A 0.6911 0.2696 0 0 1 0.3727,0.1911 L 0.1982,0.4520"/></g><g stroke-width="0" stroke="rgb(21%, 29%, 7%)" stroke-opacity="1.0" fill="rgb(21%, 29%, 7%)" fill-opacity="0.3"><path d="M 0.2035,0.4525 L 0.3780,0.1916 A 0.6911 0.2696 0 0 1 0.4841,0.2061 L 0.2035,0.4525"/></g><g stroke-width="0" stroke="rgb(53%, 51%, 28%)" stroke-opacity="1.0" fill="rgb(53%, 51%, 28%)" fill-opacity="0.3"><path d="M 0.2084,0.4533 L 0.4890,0.2070 A 0.6911 0.2696 0 0 1 0.5796,0.2259 L 0.2084,0.4533"/></g><g stroke-width="0" stroke="rgb(2%, 73%, 80%)" stroke-opacity="1.0" fill="rgb(2%, 73%, 80%)" fill-opacity="0.3"><path d="M 0.2127,0.4544 L 0.5839,0.2270 A 0.6911 0.2696 0 0 1 0.6663,0.2510 L 0.2127,0.4544"/></g><g stroke-width="0.0" stroke="none" fill="rgb(-60%, 38%, 45%)" fill-opacity="1.0" font-size="0.0218" text-anchor="middle"><text x="0.1963" y="0.2765">A1</text></g><g stroke-width="0.0" stroke="none" fill="rgb(-8%, 12%, 29%)" fill-opacity="1.0" font-size="0.0218" text-anchor="middle"><text x="0.2060" y="0.2766">A2</text></g><g stroke-width="0.0" stroke="none" fill="rgb(39%, -24%, 31%)" fill-opacity="1.0" font-size="0.0218" text-anchor="middle"><text x="0.2170" y="0.2768">A3</text></g><g stroke-width="0.0" stroke="none" fill="rgb(54%, 21%, 52%)" fill-opacity="1.0" font-size="0.0218" text-anchor="middle"><text x="0.2268" y="0.2770">A4</text></g><g stroke-width="0.0" stroke="none" fill="rgb(57%, 31%, -28%)" fill-opacity="1.0" font-size="0.0218" text-anchor="middle"><text x="0.2370" y="0.2773">A5</text></g><g stroke-width="0.0" stroke="none" fill="rgb(44%, 4%, -17%)" fill-opacity="1.0" font-size="0.0218" text-anchor="middle"><text x="0.2788" y="0.2796">B1</text></g><g stroke-width="0.0" stroke="none" fill="rgb(6%, 14%, -4%)" fill-opacity="1.0" font-size="0.0218" text-anchor="middle"><text x="0.3519" y="0.2871">B2</text></g><g stroke-width="0.0" stroke="none" fill="rgb(27%, 25%, -2%)" fill-opacity="1.0" font-size="0.0218" text-anchor="middle"><text x="0.4208" y="0.2989">B3</text></g><g stroke-width="0.0" stroke="none" fill="rgb(-60%, 38%, 45%)" fill-opacity="1.0" font-size="0.0218" text-anchor="middle"><text x="0.4815" y="0.3140">B4</text></g></g></g><g class="hud"><g class="title"><g stroke-width="0.0" stroke="none" fill="rgb(5%, 5%, 5%)" fill-opacity="1.0" font-size="0.0436" text-anchor="middle"><text x="0.4208" y="0.4871">grade_subgrade</text></g></g></g><g class="chart"><g class="pie"><g stroke-width="0" stroke="rgb(2%, 73%, 80%)" stroke-opacity="1.0" fill="rgb(2%, 73%, 80%)" fill-opacity="0.3"><path d="M -0.2805,0.3306 L -0.2805,0.1823 A 0.3803 0.1483 0 0 1 -0.1422,0.1924 L -0.2805,0.3306"/></g><g stroke-width="0" stroke="rgb(2%, 29%, 48%)" stroke-opacity="1.0" fill="rgb(2%, 29%, 48%)" fill-opacity="0.3"><path d="M -0.2720,0.3321 L -0.1338,0.1939 A 0.3803 0.1483 0 0 1 0.0452,0.2503 L -0.2720,0.3321"/></g><g stroke-width="0" stroke="rgb(66%, 7%, 55%)" stroke-opacity="1.0" fill="rgb(66%, 7%, 55%)" fill-opacity="0.3"><path d="M -0.2759,0.3446 L 0.0413,0.2628 A 0.3803 0.1483 0 0 1 -0.6396,0.3879 L -0.2759,0.3446"/></g><g stroke-width="0" stroke="rgb(96%, 60%, 92%)" stroke-opacity="1.0" fill="rgb(96%, 60%, 92%)" fill-opacity="0.3"><path d="M -0.3029,0.3387 L -0.6666,0.3820 A 0.3803 0.1483 0 0 1 -0.6816,0.3251 L -0.3029,0.3387"/></g><g stroke-width="0" stroke="rgb(100%, 71%, 35%)" stroke-opacity="1.0" fill="rgb(100%, 71%, 35%)" fill-opacity="0.3"><path d="M -0.3020,0.3355 L -0.6807,0.3219 A 0.3803 0.1483 0 0 1 -0.6241,0.2567 L -0.3020,0.3355"/></g><g stroke-width="0" stroke="rgb(73%, 34%, 1%)" stroke-opacity="1.0" fill="rgb(73%, 34%, 1%)" fill-opacity="0.3"><path d="M -0.2988,0.3332 L -0.6209,0.2544 A 0.3803 0.1483 0 0 1 -0.5643,0.2271 L -0.2988,0.3332"/></g><g stroke-width="0" stroke="rgb(21%, 29%, 7%)" stroke-opacity="1.0" fill="rgb(21%, 29%, 7%)" fill-opacity="0.3"><path d="M -0.2919,0.3312 L -0.5575,0.2250 A 0.3803 0.1483 0 0 1 -0.3257,0.1834 L -0.2919,0.3312"/></g><g stroke-width="0" stroke="rgb(53%, 51%, 28%)" stroke-opacity="1.0" fill="rgb(53%, 51%, 28%)" fill-opacity="0.3"><path d="M -0.2848,0.3305 L -0.3186,0.1827 A 0.3803 0.1483 0 0 1 -0.2848,0.1821 L -0.2848,0.3305"/></g><g stroke-width="0.0" stroke="none" fill="rgb(-60%, 38%, 45%)" fill-opacity="1.0" font-size="0.0218" text-anchor="middle"><text x="-0.2347" y="0.2359">Business</text></g><g stroke-width="0.0" stroke="none" fill="rgb(-8%, 12%, 29%)" fill-opacity="1.0" font-size="0.0218" text-anchor="middle"><text x="-0.1167" y="0.2571">Car</text></g><g stroke-width="0.0" stroke="none" fill="rgb(39%, -24%, 31%)" fill-opacity="1.0" font-size="0.0218" text-anchor="middle"><text x="-0.1705" y="0.4318">Debt consolidation</text></g><g stroke-width="0.0" stroke="none" fill="rgb(54%, 21%, 52%)" fill-opacity="1.0" font-size="0.0218" text-anchor="middle"><text x="-0.5488" y="0.3485">Education</text></g><g stroke-width="0.0" stroke="none" fill="rgb(57%, 31%, -28%)" fill-opacity="1.0" font-size="0.0218" text-anchor="middle"><text x="-0.5362" y="0.3046">Home</text></g><g stroke-width="0.0" stroke="none" fill="rgb(44%, 4%, -17%)" fill-opacity="1.0" font-size="0.0218" text-anchor="middle"><text x="-0.4911" y="0.2727">Medical</text></g><g stroke-width="0.0" stroke="none" fill="rgb(6%, 14%, -4%)" fill-opacity="1.0" font-size="0.0218" text-anchor="middle"><text x="-0.3952" y="0.2436">Other</text></g><g stroke-width="0.0" stroke="none" fill="rgb(27%, 25%, -2%)" fill-opacity="1.0" font-size="0.0218" text-anchor="middle"><text x="-0.2958" y="0.2342">Vacation</text></g></g></g><g class="hud"><g class="title"><g stroke-width="0.0" stroke="none" fill="rgb(5%, 5%, 5%)" fill-opacity="1.0" font-size="0.0436" text-anchor="middle"><text x="-0.3127" y="0.4871">loan_purpose</text></g></g></g><g class="chart"><g class="pie"><g stroke-width="0" stroke="rgb(2%, 73%, 80%)" stroke-opacity="1.0" fill="rgb(2%, 73%, 80%)" fill-opacity="0.3"><path d="M 0.4987,0.0281 L 0.4987,-0.1452 A 0.4443 0.1733 0 0 1 0.0551,0.0184 L 0.4987,0.0281"/></g><g stroke-width="0" stroke="rgb(2%, 29%, 48%)" stroke-opacity="1.0" fill="rgb(2%, 29%, 48%)" fill-opacity="0.3"><path d="M 0.4614,0.0206 L 0.0178,0.0108 A 0.4443 0.1733 0 0 1 0.0289,-0.0190 L 0.4614,0.0206"/></g><g stroke-width="0" stroke="rgb(66%, 7%, 55%)" stroke-opacity="1.0" fill="rgb(66%, 7%, 55%)" fill-opacity="0.3"><path d="M 0.4640,0.0176 L 0.0315,-0.0220 A 0.4443 0.1733 0 0 1 0.1503,-0.1051 L 0.4640,0.0176"/></g><g stroke-width="0" stroke="rgb(96%, 60%, 92%)" stroke-opacity="1.0" fill="rgb(96%, 60%, 92%)" fill-opacity="0.3"><path d="M 0.4687,0.0153 L 0.1550,-0.1074 A 0.4443 0.1733 0 0 1 0.1965,-0.1216 L 0.4687,0.0153"/></g><g stroke-width="0" stroke="rgb(100%, 71%, 35%)" stroke-opacity="1.0" fill="rgb(100%, 71%, 35%)" fill-opacity="0.3"><path d="M 0.4762,0.0136 L 0.2040,-0.1233 A 0.4443 0.1733 0 0 1 0.4762,-0.1597 L 0.4762,0.0136"/></g><g stroke-width="0.0" stroke="none" fill="rgb(-60%, 38%, 45%)" fill-opacity="1.0" font-size="0.0218" text-anchor="middle"><text x="0.6970" y="0.1100">Employed</text></g><g stroke-width="0.0" stroke="none" fill="rgb(-8%, 12%, 29%)" fill-opacity="1.0" font-size="0.0218" text-anchor="middle"><text x="0.1756" y="0.0045">Retired</text></g><g stroke-width="0.0" stroke="none" fill="rgb(39%, -24%, 31%)" fill-opacity="1.0" font-size="0.0218" text-anchor="middle"><text x="0.2118" y="-0.0373">Self-employed</text></g><g stroke-width="0.0" stroke="none" fill="rgb(54%, 21%, 52%)" fill-opacity="1.0" font-size="0.0218" text-anchor="middle"><text x="0.2779" y="-0.0692">Student</text></g><g stroke-width="0.0" stroke="none" fill="rgb(57%, 31%, -28%)" fill-opacity="1.0" font-size="0.0218" text-anchor="middle"><text x="0.3827" y="-0.0929">Unemployed</text></g></g></g><g class="hud"><g class="title"><g stroke-width="0.0" stroke="none" fill="rgb(5%, 5%, 5%)" fill-opacity="1.0" font-size="0.0436" text-anchor="middle"><text x="0.3993" y="0.1468">employment_status</text></g></g></g><g class="chart"><g class="pie"><g stroke-width="0" stroke="rgb(2%, 73%, 80%)" stroke-opacity="1.0" fill="rgb(2%, 73%, 80%)" fill-opacity="0.3"><path d="M -0.3867,-0.0224 L -0.3867,-0.1530 A 0.3347 0.1306 0 0 1 -0.3262,0.1060 L -0.3867,-0.0224"/></g><g stroke-width="0" stroke="rgb(2%, 29%, 48%)" stroke-opacity="1.0" fill="rgb(2%, 29%, 48%)" fill-opacity="0.3"><path d="M -0.4153,-0.0172 L -0.3548,0.1112 A 0.3347 0.1306 0 0 1 -0.7440,-0.0419 L -0.4153,-0.0172"/></g><g stroke-width="0" stroke="rgb(66%, 7%, 55%)" stroke-opacity="1.0" fill="rgb(66%, 7%, 55%)" fill-opacity="0.3"><path d="M -0.4164,-0.0259 L -0.7451,-0.0506 A 0.3347 0.1306 0 0 1 -0.5462,-0.1463 L -0.4164,-0.0259"/></g><g stroke-width="0" stroke="rgb(96%, 60%, 92%)" stroke-opacity="1.0" fill="rgb(96%, 60%, 92%)" fill-opacity="0.3"><path d="M -0.4077,-0.0281 L -0.5374,-0.1485 A 0.3347 0.1306 0 0 1 -0.4473,-0.1578 L -0.4077,-0.0281"/></g><g stroke-width="0" stroke="rgb(100%, 71%, 35%)" stroke-opacity="1.0" fill="rgb(100%, 71%, 35%)" fill-opacity="0.3"><path d="M -0.4044,-0.0284 L -0.4440,-0.1580 A 0.3347 0.1306 0 0 1 -0.4044,-0.1589 L -0.4044,-0.0284"/></g><g stroke-width="0.0" stroke="none" fill="rgb(-60%, 38%, 45%)" fill-opacity="1.0" font-size="0.0218" text-anchor="middle"><text x="-0.1700" y="-0.0301">Bachelor&apos;s</text></g><g stroke-width="0.0" stroke="none" fill="rgb(-8%, 12%, 29%)" fill-opacity="1.0" font-size="0.0218" text-anchor="middle"><text x="-0.5697" y="0.0425">High School</text></g><g stroke-width="0.0" stroke="none" fill="rgb(39%, -24%, 31%)" fill-opacity="1.0" font-size="0.0218" text-anchor="middle"><text x="-0.5854" y="-0.0794">Master&apos;s</text></g><g stroke-width="0.0" stroke="none" fill="rgb(54%, 21%, 52%)" fill-opacity="1.0" font-size="0.0218" text-anchor="middle"><text x="-0.4633" y="-0.1102">Other</text></g><g stroke-width="0.0" stroke="none" fill="rgb(57%, 31%, -28%)" fill-opacity="1.0" font-size="0.0218" text-anchor="middle"><text x="-0.4173" y="-0.1131">PhD</text></g></g></g><g class="hud"><g class="title"><g stroke-width="0.0" stroke="none" fill="rgb(5%, 5%, 5%)" fill-opacity="1.0" font-size="0.0436" text-anchor="middle"><text x="-0.4010" y="0.1460">education_level</text></g></g></g><g class="chart"><g class="pie"><g stroke-width="0" stroke="rgb(2%, 73%, 80%)" stroke-opacity="1.0" fill="rgb(2%, 73%, 80%)" fill-opacity="0.3"><path d="M 0.3926,-0.3675 L 0.3926,-0.5000 A 0.3395 0.1324 0 0 1 0.4684,-0.4966 L 0.3926,-0.3675"/></g><g stroke-width="0" stroke="rgb(2%, 29%, 48%)" stroke-opacity="1.0" fill="rgb(2%, 29%, 48%)" fill-opacity="0.3"><path d="M 0.4075,-0.3602 L 0.4833,-0.4892 A 0.3395 0.1324 0 0 1 0.4005,-0.2278 L 0.4075,-0.3602"/></g><g stroke-width="0" stroke="rgb(66%, 7%, 55%)" stroke-opacity="1.0" fill="rgb(66%, 7%, 55%)" fill-opacity="0.3"><path d="M 0.3737,-0.3608 L 0.3667,-0.2284 A 0.3395 0.1324 0 0 1 0.3506,-0.4929 L 0.3737,-0.3608"/></g><g stroke-width="0" stroke="rgb(96%, 60%, 92%)" stroke-opacity="1.0" fill="rgb(96%, 60%, 92%)" fill-opacity="0.3"><path d="M 0.3901,-0.3676 L 0.3670,-0.4997 A 0.3395 0.1324 0 0 1 0.3901,-0.5 L 0.3901,-0.3676"/></g><g stroke-width="0.0" stroke="none" fill="rgb(-60%, 38%, 45%)" fill-opacity="1.0" font-size="0.0218" text-anchor="middle"><text x="0.4174" y="-0.4531">Divorced</text></g><g stroke-width="0.0" stroke="none" fill="rgb(-8%, 12%, 29%)" fill-opacity="1.0" font-size="0.0218" text-anchor="middle"><text x="0.6265" y="-0.3496">Married</text></g><g stroke-width="0.0" stroke="none" fill="rgb(39%, -24%, 31%)" fill-opacity="1.0" font-size="0.0218" text-anchor="middle"><text x="0.1531" y="-0.3588">Single</text></g><g stroke-width="0.0" stroke="none" fill="rgb(54%, 21%, 52%)" fill-opacity="1.0" font-size="0.0218" text-anchor="middle"><text x="0.3826" y="-0.4536">Widowed</text></g></g></g><g class="hud"><g class="title"><g stroke-width="0.0" stroke="none" fill="rgb(5%, 5%, 5%)" fill-opacity="1.0" font-size="0.0436" text-anchor="middle"><text x="0.3906" y="-0.1951">marital_status</text></g></g></g><g class="chart"><g class="pie"><g stroke-width="0" stroke="rgb(2%, 73%, 80%)" stroke-opacity="1.0" fill="rgb(2%, 73%, 80%)" fill-opacity="0.3"><path d="M -0.3412,-0.3600 L -0.3412,-0.4930 A 0.3409 0.1330 0 0 1 -0.3765,-0.2277 L -0.3412,-0.3600"/></g><g stroke-width="0" stroke="rgb(2%, 29%, 48%)" stroke-opacity="1.0" fill="rgb(2%, 29%, 48%)" fill-opacity="0.3"><path d="M -0.3753,-0.3606 L -0.4105,-0.2283 A 0.3409 0.1330 0 0 1 -0.3891,-0.4935 L -0.3753,-0.3606"/></g><g stroke-width="0" stroke="rgb(66%, 7%, 55%)" stroke-opacity="1.0" fill="rgb(66%, 7%, 55%)" fill-opacity="0.3"><path d="M -0.3586,-0.3670 L -0.3724,-0.4999 A 0.3409 0.1330 0 0 1 -0.3586,-0.5 L -0.3586,-0.3670"/></g><g stroke-width="0.0" stroke="none" fill="rgb(-60%, 38%, 45%)" fill-opacity="1.0" font-size="0.0218" text-anchor="middle"><text x="-0.1199" y="-0.3555">Female</text></g><g stroke-width="0.0" stroke="none" fill="rgb(-8%, 12%, 29%)" fill-opacity="1.0" font-size="0.0218" text-anchor="middle"><text x="-0.5968" y="-0.3633">Male</text></g><g stroke-width="0.0" stroke="none" fill="rgb(39%, -24%, 31%)" fill-opacity="1.0" font-size="0.0218" text-anchor="middle"><text x="-0.3631" y="-0.4534">Other</text></g></g></g><g class="hud"><g class="title"><g stroke-width="0.0" stroke="none" fill="rgb(5%, 5%, 5%)" fill-opacity="1.0" font-size="0.0436" text-anchor="middle"><text x="-0.3759" y="-0.1951">gender</text></g></g></g></g><g class="hud"></g></svg>