<svg xmlns="http://www.w3.org/2000/svg" xmlns:xlink="http://www.w3.org/1999/xlink" width="450" height="300" viewBox="-0.7512 -0.5 1.5012 1.0"><style>svg {color-scheme: light dark;} {.canvas g, .title g, .axisbar g, .ticktext g, .tickglyph g, .ticklines g, .legendContent g text {fill: rgb(5%, 5%, 5%);} .ticklines g, .tickglyph g, .legendBorder g {stroke: rgb(5%, 5%, 5%);} .legendBorder g {fill: rgb(94%, 94%, 94%);}} @media (prefers-color-scheme:dark) {.canvas g, .title g, .axisbar g, .ticktext g, .tickglyph g, .ticklines g, .legendContent g text {fill: rgb(94%, 94%, 94%);} .ticklines g, .tickglyph g, .legendBorder g {stroke: rgb(94%, 94%, 94%);} .legendBorder g {fill: rgb(5%, 5%, 5%);}}
svg { font-family: system-ui,-apple-system,"Segoe UI",Roboto,"Helvetica Neue",Arial,"Noto Sans","Liberation Sans",sans-serif,"Apple Color Emoji","Segoe UI Emoji","Segoe UI Symbol","Noto Color Emoji";
}

ticktext { font-family: SFMono-Regular,Menlo,Monaco,Consolas,"Liberation Mono","Courier New",monospace;}</style><g class="chart"><g class="chart"><g class="boxplot"><g stroke-width="0.0041" stroke="rgb(5%, 5%, 5%)" stroke-opacity="1.0" fill="none"><polyline points="0.7021,0.0469 0.7021,-0.0722"/></g><g stroke-width="0.0034" stroke="rgb(2%, 29%, 48%)" stroke-opacity="1.0" fill="rgb(2%, 73%, 80%)" fill-opacity="0.1"><rect width="0.0519" height="0.1191" x="0.6761" y="-0.1913"/></g><g stroke-width="0.0034" stroke="rgb(2%, 29%, 48%)" stroke-opacity="1.0" fill="rgb(2%, 73%, 80%)" fill-opacity="0.1"><rect width="0.0519" height="0.1191" x="0.6761" y="-0.3103"/></g><g stroke-width="0.0041" stroke="rgb(5%, 5%, 5%)" stroke-opacity="1.0" fill="none"><polyline points="0.7021,-0.3103 0.7021,-0.4294"/></g></g><g class="datapadding"></g></g><g class="hud"><g class="axis"><g class="axisbar"><g stroke-width="0" stroke="rgb(0%, 0%, 0%)" stroke-opacity="0" fill="rgb(5%, 5%, 5%)" fill-opacity="0.4"><rect width="0.0008" height="0.5635" x="0.6732" y="-0.4332"/></g></g><g class="ticks"><g class="ticklines"><g stroke-width="0.0017" stroke="rgb(5%, 5%, 5%)" stroke-opacity="0.05" fill="none"><polyline points="0.6761,0.1292 0.7280,0.1292"/><polyline points="0.6761,0.0356 0.7280,0.0356"/><polyline points="0.6761,-0.0579 0.7280,-0.0579"/><polyline points="0.6761,-0.1515 0.7280,-0.1515"/><polyline points="0.6761,-0.2450 0.7280,-0.2450"/><polyline points="0.6761,-0.3385 0.7280,-0.3385"/><polyline points="0.6761,-0.4321 0.7280,-0.4321"/></g></g><g class="tickglyph"><g stroke-width="0.0014" stroke="rgb(5%, 5%, 5%)" stroke-opacity="0.4" fill="rgb(5%, 5%, 5%)" fill-opacity="0.4"><polyline points="0.6653,0.1292
0.6756,0.1292"/><polyline points="0.6653,0.0356
0.6756,0.0356"/><polyline points="0.6653,-0.0579
0.6756,-0.0579"/><polyline points="0.6653,-0.1515
0.6756,-0.1515"/><polyline points="0.6653,-0.2450
0.6756,-0.2450"/><polyline points="0.6653,-0.3385
0.6756,-0.3385"/><polyline points="0.6653,-0.4321
0.6756,-0.4321"/></g></g><g class="ticktext"><g stroke-width="0.0" stroke="none" fill="rgb(5%, 5%, 5%)" fill-opacity="1.0" font-size="0.0137" text-anchor="end"><text x="0.6627" y="0.1353">550,000</text><text x="0.6627" y="0.0418">600,000</text><text x="0.6627" y="-0.0517">650,000</text><text x="0.6627" y="-0.1453">700,000</text><text x="0.6627" y="-0.2388">750,000</text><text x="0.6627" y="-0.3324">800,000</text><text x="0.6627" y="-0.4259">850,000</text></g></g></g></g><g class="title"><g stroke-width="0.0" stroke="none" fill="rgb(5%, 5%, 5%)" fill-opacity="1.0" font-size="0.0103" text-anchor="middle"><text x="0.6783" y="0.1780">id</text></g></g></g><g class="chart"><g class="boxplot"><g stroke-width="0.0041" stroke="rgb(5%, 5%, 5%)" stroke-opacity="1.0" fill="none"><polyline points="0.5900,0.1207 0.5900,0.0899"/></g><g stroke-width="0.0034" stroke="rgb(2%, 29%, 48%)" stroke-opacity="1.0" fill="rgb(2%, 73%, 80%)" fill-opacity="0.1"><rect width="0.0519" height="0.0261" x="0.5641" y="0.0639"/></g><g stroke-width="0.0034" stroke="rgb(2%, 29%, 48%)" stroke-opacity="1.0" fill="rgb(2%, 73%, 80%)" fill-opacity="0.1"><rect width="0.0519" height="0.0205" x="0.5641" y="0.0434"/></g><g stroke-width="0.0041" stroke="rgb(5%, 5%, 5%)" stroke-opacity="1.0" fill="none"><polyline points="0.5900,0.0434 0.5900,-0.4049"/></g></g><g class="datapadding"></g></g><g class="hud"><g class="axis"><g class="axisbar"><g stroke-width="0" stroke="rgb(0%, 0%, 0%)" stroke-opacity="0" fill="rgb(5%, 5%, 5%)" fill-opacity="0.4"><rect width="0.0008" height="0.5635" x="0.5611" y="-0.4332"/></g></g><g class="ticks"><g class="ticklines"><g stroke-width="0.0017" stroke="rgb(5%, 5%, 5%)" stroke-opacity="0.05" fill="none"><polyline points="0.5641,0.1292 0.6160,0.1292"/><polyline points="0.5641,-0.0111 0.6160,-0.0111"/><polyline points="0.5641,-0.1515 0.6160,-0.1515"/><polyline points="0.5641,-0.2918 0.6160,-0.2918"/><polyline points="0.5641,-0.4321 0.6160,-0.4321"/></g></g><g class="tickglyph"><g stroke-width="0.0014" stroke="rgb(5%, 5%, 5%)" stroke-opacity="0.4" fill="rgb(5%, 5%, 5%)" fill-opacity="0.4"><polyline points="0.5533,0.1292
0.5636,0.1292"/><polyline points="0.5533,-0.0111
0.5636,-0.0111"/><polyline points="0.5533,-0.1515
0.5636,-0.1515"/><polyline points="0.5533,-0.2918
0.5636,-0.2918"/><polyline points="0.5533,-0.4321
0.5636,-0.4321"/></g></g><g class="ticktext"><g stroke-width="0.0" stroke="none" fill="rgb(5%, 5%, 5%)" fill-opacity="1.0" font-size="0.0137" text-anchor="end"><text x="0.5507" y="0.1353">      0</text><text x="0.5507" y="-0.0050">100,000</text><text x="0.5507" y="-0.1453">200,000</text><text x="0.5507" y="-0.2856">300,000</text><text x="0.5507" y="-0.4259">400,000</text></g></g></g></g><g class="title"><g stroke-width="0.0" stroke="none" fill="rgb(5%, 5%, 5%)" fill-opacity="1.0" font-size="0.0103" text-anchor="middle"><text x="0.5662" y="0.1780">annual_income</text></g></g></g><g class="chart"><g class="boxplot"><g stroke-width="0.0041" stroke="rgb(5%, 5%, 5%)" stroke-opacity="1.0" fill="none"><polyline points="0.4780,0.1203 0.4780,0.0714"/></g><g stroke-width="0.0034" stroke="rgb(2%, 29%, 48%)" stroke-opacity="1.0" fill="rgb(2%, 73%, 80%)" fill-opacity="0.1"><rect width="0.0519" height="0.0192" x="0.4520" y="0.0522"/></g><g stroke-width="0.0034" stroke="rgb(2%, 29%, 48%)" stroke-opacity="1.0" fill="rgb(2%, 73%, 80%)" fill-opacity="0.1"><rect width="0.0519" height="0.0481" x="0.4520" y="0.0041"/></g><g stroke-width="0.0041" stroke="rgb(5%, 5%, 5%)" stroke-opacity="1.0" fill="none"><polyline points="0.4780,0.0041 0.4780,-0.3736"/></g></g><g class="datapadding"></g></g><g class="hud"><g class="axis"><g class="axisbar"><g stroke-width="0" stroke="rgb(0%, 0%, 0%)" stroke-opacity="0" fill="rgb(5%, 5%, 5%)" fill-opacity="0.4"><rect width="0.0008" height="0.5635" x="0.4491" y="-0.4332"/></g></g><g class="ticks"><g class="ticklines"><g stroke-width="0.0017" stroke="rgb(5%, 5%, 5%)" stroke-opacity="0.05" fill="none"><polyline points="0.4520,0.1292 0.5039,0.1292"/><polyline points="0.4520,0.0490 0.5039,0.0490"/><polyline points="0.4520,-0.0312 0.5039,-0.0312"/><polyline points="0.4520,-0.1114 0.5039,-0.1114"/><polyline points="0.4520,-0.1915 0.5039,-0.1915"/><polyline points="0.4520,-0.2717 0.5039,-0.2717"/><polyline points="0.4520,-0.3519 0.5039,-0.3519"/><polyline points="0.4520,-0.4321 0.5039,-0.4321"/></g></g><g class="tickglyph"><g stroke-width="0.0014" stroke="rgb(5%, 5%, 5%)" stroke-opacity="0.4" fill="rgb(5%, 5%, 5%)" fill-opacity="0.4"><polyline points="0.4412,0.1292
0.4515,0.1292"/><polyline points="0.4412,0.0490
0.4515,0.0490"/><polyline points="0.4412,-0.0312
0.4515,-0.0312"/><polyline points="0.4412,-0.1114
0.4515,-0.1114"/><polyline points="0.4412,-0.1915
0.4515,-0.1915"/><polyline points="0.4412,-0.2717
0.4515,-0.2717"/><polyline points="0.4412,-0.3519
0.4515,-0.3519"/><polyline points="0.4412,-0.4321
0.4515,-0.4321"/></g></g><g class="ticktext"><g stroke-width="0.0" stroke="none" fill="rgb(5%, 5%, 5%)" fill-opacity="1.0" font-size="0.0137" text-anchor="end"><text x="0.4386" y="0.1353">0.0</text><text x="0.4386" y="0.0552">0.1</text><text x="0.4386" y="-0.0250">0.2</text><text x="0.4386" y="-0.1052">0.3</text><text x="0.4386" y="-0.1854">0.4</text><text x="0.4386" y="-0.2656">0.5</text><text x="0.4386" y="-0.3457">0.6</text><text x="0.4386" y="-0.4259">0.7</text></g></g></g></g><g class="title"><g stroke-width="0.0" stroke="none" fill="rgb(5%, 5%, 5%)" fill-opacity="1.0" font-size="0.0103" text-anchor="middle"><text x="0.4642" y="0.1780">debt_to_income_ratio</text></g></g></g><g class="chart"><g class="boxplot"><g stroke-width="0.0041" stroke="rgb(5%, 5%, 5%)" stroke-opacity="1.0" fill="none"><polyline points="0.3861,0.0403 0.3861,-0.1945"/></g><g stroke-width="0.0034" stroke="rgb(2%, 29%, 48%)" stroke-opacity="1.0" fill="rgb(2%, 73%, 80%)" fill-opacity="0.1"><rect width="0.0519" height="0.0346" x="0.3601" y="-0.2291"/></g><g stroke-width="0.0034" stroke="rgb(2%, 29%, 48%)" stroke-opacity="1.0" fill="rgb(2%, 73%, 80%)" fill-opacity="0.1"><rect width="0.0519" height="0.0337" x="0.3601" y="-0.2628"/></g><g stroke-width="0.0041" stroke="rgb(5%, 5%, 5%)" stroke-opacity="1.0" fill="none"><polyline points="0.3861,-0.2628 0.3861,-0.3844"/></g></g><g class="datapadding"></g></g><g class="hud"><g class="axis"><g class="axisbar"><g stroke-width="0" stroke="rgb(0%, 0%, 0%)" stroke-opacity="0" fill="rgb(5%, 5%, 5%)" fill-opacity="0.4"><rect width="0.0008" height="0.5635" x="0.3572" y="-0.4332"/></g></g><g class="ticks"><g class="ticklines"><g stroke-width="0.0017" stroke="rgb(5%, 5%, 5%)" stroke-opacity="0.05" fill="none"><polyline points="0.3601,0.1292 0.4120,0.1292"/><polyline points="0.3601,0.0356 0.4120,0.0356"/><polyline points="0.3601,-0.0579 0.4120,-0.0579"/><polyline points="0.3601,-0.1515 0.4120,-0.1515"/><polyline points="0.3601,-0.2450 0.4120,-0.2450"/><polyline points="0.3601,-0.3385 0.4120,-0.3385"/><polyline points="0.3601,-0.4321 0.4120,-0.4321"/></g></g><g class="tickglyph"><g stroke-width="0.0014" stroke="rgb(5%, 5%, 5%)" stroke-opacity="0.4" fill="rgb(5%, 5%, 5%)" fill-opacity="0.4"><polyline points="0.3493,0.1292
0.3596,0.1292"/><polyline points="0.3493,0.0356
0.3596,0.0356"/><polyline points="0.3493,-0.0579
0.3596,-0.0579"/><polyline points="0.3493,-0.1515
0.3596,-0.1515"/><polyline points="0.3493,-0.2450
0.3596,-0.2450"/><polyline points="0.3493,-0.3385
0.3596,-0.3385"/><polyline points="0.3493,-0.4321
0.3596,-0.4321"/></g></g><g class="ticktext"><g stroke-width="0.0" stroke="none" fill="rgb(5%, 5%, 5%)" fill-opacity="1.0" font-size="0.0137" text-anchor="end"><text x="0.3467" y="0.1353">300</text><text x="0.3467" y="0.0418">400</text><text x="0.3467" y="-0.0517">500</text><text x="0.3467" y="-0.1453">600</text><text x="0.3467" y="-0.2388">700</text><text x="0.3467" y="-0.3324">800</text><text x="0.3467" y="-0.4259">900</text></g></g></g></g><g class="title"><g stroke-width="0.0" stroke="none" fill="rgb(5%, 5%, 5%)" fill-opacity="1.0" font-size="0.0103" text-anchor="middle"><text x="0.3723" y="0.1780">credit_score</text></g></g></g><g class="chart"><g class="boxplot"><g stroke-width="0.0041" stroke="rgb(5%, 5%, 5%)" stroke-opacity="1.0" fill="none"><polyline points="0.2941,0.1236 0.2941,0.0141"/></g><g stroke-width="0.0034" stroke="rgb(2%, 29%, 48%)" stroke-opacity="1.0" fill="rgb(2%, 73%, 80%)" fill-opacity="0.1"><rect width="0.0519" height="0.0533" x="0.2682" y="-0.0392"/></g><g stroke-width="0.0034" stroke="rgb(2%, 29%, 48%)" stroke-opacity="1.0" fill="rgb(2%, 73%, 80%)" fill-opacity="0.1"><rect width="0.0519" height="0.0430" x="0.2682" y="-0.0822"/></g><g stroke-width="0.0041" stroke="rgb(5%, 5%, 5%)" stroke-opacity="1.0" fill="none"><polyline points="0.2941,-0.0822 0.2941,-0.4204"/></g></g><g class="datapadding"></g></g><g class="hud"><g class="axis"><g class="axisbar"><g stroke-width="0" stroke="rgb(0%, 0%, 0%)" stroke-opacity="0" fill="rgb(5%, 5%, 5%)" fill-opacity="0.4"><rect width="0.0008" height="0.5635" x="0.2653" y="-0.4332"/></g></g><g class="ticks"><g class="ticklines"><g stroke-width="0.0017" stroke="rgb(5%, 5%, 5%)" stroke-opacity="0.05" fill="none"><polyline points="0.2682,0.1292 0.3201,0.1292"/><polyline points="0.2682,0.0169 0.3201,0.0169"/><polyline points="0.2682,-0.0953 0.3201,-0.0953"/><polyline points="0.2682,-0.2076 0.3201,-0.2076"/><polyline points="0.2682,-0.3198 0.3201,-0.3198"/><polyline points="0.2682,-0.4321 0.3201,-0.4321"/></g></g><g class="tickglyph"><g stroke-width="0.0014" stroke="rgb(5%, 5%, 5%)" stroke-opacity="0.4" fill="rgb(5%, 5%, 5%)" fill-opacity="0.4"><polyline points="0.2574,0.1292
0.2677,0.1292"/><polyline points="0.2574,0.0169
0.2677,0.0169"/><polyline points="0.2574,-0.0953
0.2677,-0.0953"/><polyline points="0.2574,-0.2076
0.2677,-0.2076"/><polyline points="0.2574,-0.3198
0.2677,-0.3198"/><polyline points="0.2574,-0.4321
0.2677,-0.4321"/></g></g><g class="ticktext"><g stroke-width="0.0" stroke="none" fill="rgb(5%, 5%, 5%)" fill-opacity="1.0" font-size="0.0137" text-anchor="end"><text x="0.2548" y="0.1353">     0</text><text x="0.2548" y="0.0231">10,000</text><text x="0.2548" y="-0.0892">20,000</text><text x="0.2548" y="-0.2014">30,000</text><text x="0.2548" y="-0.3137">40,000</text><text x="0.2548" y="-0.4259">50,000</text></g></g></g></g><g class="title"><g stroke-width="0.0" stroke="none" fill="rgb(5%, 5%, 5%)" fill-opacity="1.0" font-size="0.0103" text-anchor="middle"><text x="0.2729" y="0.1780">loan_amount</text></g></g></g><g class="chart"><g class="boxplot"><g stroke-width="0.0041" stroke="rgb(5%, 5%, 5%)" stroke-opacity="1.0" fill="none"><polyline points="0.1871,0.0573 0.1871,-0.1173"/></g><g stroke-width="0.0034" stroke="rgb(2%, 29%, 48%)" stroke-opacity="1.0" fill="rgb(2%, 73%, 80%)" fill-opacity="0.1"><rect width="0.0519" height="0.0312" x="0.1612" y="-0.1485"/></g><g stroke-width="0.0034" stroke="rgb(2%, 29%, 48%)" stroke-opacity="1.0" fill="rgb(2%, 73%, 80%)" fill-opacity="0.1"><rect width="0.0519" height="0.0296" x="0.1612" y="-0.1782"/></g><g stroke-width="0.0041" stroke="rgb(5%, 5%, 5%)" stroke-opacity="1.0" fill="none"><polyline points="0.1871,-0.1782 0.1871,-0.3488"/></g></g><g class="datapadding"></g></g><g class="hud"><g class="axis"><g class="axisbar"><g stroke-width="0" stroke="rgb(0%, 0%, 0%)" stroke-opacity="0" fill="rgb(5%, 5%, 5%)" fill-opacity="0.4"><rect width="0.0008" height="0.5635" x="0.1583" y="-0.4332"/></g></g><g class="ticks"><g class="ticklines"><g stroke-width="0.0017" stroke="rgb(5%, 5%, 5%)" stroke-opacity="0.05" fill="none"><polyline points="0.1612,0.1292 0.2131,0.1292"/><polyline points="0.1612,0.0169 0.2131,0.0169"/><polyline points="0.1612,-0.0953 0.2131,-0.0953"/><polyline points="0.1612,-0.2076 0.2131,-0.2076"/><polyline points="0.1612,-0.3198 0.2131,-0.3198"/><polyline points="0.1612,-0.4321 0.2131,-0.4321"/></g></g><g class="tickglyph"><g stroke-width="0.0014" stroke="rgb(5%, 5%, 5%)" stroke-opacity="0.4" fill="rgb(5%, 5%, 5%)" fill-opacity="0.4"><polyline points="0.1504,0.1292
0.1607,0.1292"/><polyline points="0.1504,0.0169
0.1607,0.0169"/><polyline points="0.1504,-0.0953
0.1607,-0.0953"/><polyline points="0.1504,-0.2076
0.1607,-0.2076"/><polyline points="0.1504,-0.3198
0.1607,-0.3198"/><polyline points="0.1504,-0.4321
0.1607,-0.4321"/></g></g><g class="ticktext"><g stroke-width="0.0" stroke="none" fill="rgb(5%, 5%, 5%)" fill-opacity="1.0" font-size="0.0137" text-anchor="end"><text x="0.1478" y="0.1353"> 0</text><text x="0.1478" y="0.0231"> 5</text><text x="0.1478" y="-0.0892">10</text><text x="0.1478" y="-0.2014">15</text><text x="0.1478" y="-0.3137">20</text><text x="0.1478" y="-0.4259">25</text></g></g></g></g><g class="title"><g stroke-width="0.0" stroke="none" fill="rgb(5%, 5%, 5%)" fill-opacity="1.0" font-size="0.0103" text-anchor="middle"><text x="0.1759" y="0.1780">interest_rate</text></g></g></g><g class="chart"><g class="barchart"><g stroke-width="0" stroke="rgb(2%, 29%, 48%)" stroke-opacity="1.0" fill="rgb(2%, 73%, 80%)" fill-opacity="0.2"><rect width="0.0838" height="0.2857" x="0.0434" y="-0.4439"/></g><g stroke-width="0" stroke="rgb(2%, 29%, 48%)" stroke-opacity="1.0" fill="rgb(2%, 29%, 48%)" fill-opacity="0.2"><rect width="0.0838" height="0.2639" x="0.0434" y="-0.1582"/></g><g stroke-width="0" stroke="rgb(2%, 29%, 48%)" stroke-opacity="1.0" fill="rgb(66%, 7%, 55%)" fill-opacity="0.2"><rect width="0.0838" height="0.0036" x="0.0434" y="0.1056"/></g></g><g class="labels"><g stroke-width="0.0" stroke="none" fill="rgb(-63%, 46%, 53%)" fill-opacity="0.6" font-size="0.0206" text-anchor="middle"><text x="0.0853" y="-0.3010">Female</text></g><g stroke-width="0.0" stroke="none" fill="rgb(-8%, 16%, 34%)" fill-opacity="0.6" font-size="0.0206" text-anchor="middle"><text x="0.0853" y="-0.0263">Male</text></g><g stroke-width="0.0" stroke="none" fill="rgb(46%, -23%, 37%)" fill-opacity="0.6" font-size="0.0206" text-anchor="middle"><text x="0.0853" y="0.1074">Other</text></g></g></g><g class="hud"><g class="axis"><g class="ticks"><g class="ticktext"><g stroke-width="0.0" stroke="none" fill="rgb(5%, 5%, 5%)" fill-opacity="1.0" font-size="0.0200" text-anchor="end"><text x="0.0853" y="0.1557" transform="rotate(-45.0, 0.0853, 0.1557)">gender</text></g></g></g></g></g><g class="chart"><g class="barchart"><g stroke-width="0" stroke="rgb(2%, 29%, 48%)" stroke-opacity="1.0" fill="rgb(2%, 73%, 80%)" fill-opacity="0.2"><rect width="0.0838" height="0.2693" x="-0.0509" y="-0.4439"/></g><g stroke-width="0" stroke="rgb(2%, 29%, 48%)" stroke-opacity="1.0" fill="rgb(2%, 29%, 48%)" fill-opacity="0.2"><rect width="0.0838" height="0.2591" x="-0.0509" y="-0.1746"/></g><g stroke-width="0" stroke="rgb(2%, 29%, 48%)" stroke-opacity="1.0" fill="rgb(66%, 7%, 55%)" fill-opacity="0.2"><rect width="0.0838" height="0.0199" x="-0.0509" y="0.0845"/></g><g stroke-width="0" stroke="rgb(2%, 29%, 48%)" stroke-opacity="1.0" fill="rgb(96%, 60%, 92%)" fill-opacity="0.2"><rect width="0.0838" height="0.0060" x="-0.0509" y="0.1044"/></g></g><g class="labels"><g stroke-width="0.0" stroke="none" fill="rgb(-63%, 46%, 53%)" fill-opacity="0.6" font-size="0.0206" text-anchor="middle"><text x="-0.0090" y="-0.3092">Single</text></g><g stroke-width="0.0" stroke="none" fill="rgb(-8%, 16%, 34%)" fill-opacity="0.6" font-size="0.0206" text-anchor="middle"><text x="-0.0090" y="-0.0450">Married</text></g><g stroke-width="0.0" stroke="none" fill="rgb(46%, -23%, 37%)" fill-opacity="0.6" font-size="0.0206" text-anchor="middle"><text x="-0.0090" y="0.0945">Divorced</text></g><g stroke-width="0.0" stroke="none" fill="rgb(64%, 31%, 61%)" fill-opacity="0.6" font-size="0.0206" text-anchor="middle"><text x="-0.0090" y="0.1074">Widowed</text></g></g></g><g class="hud"><g class="axis"><g class="ticks"><g class="ticktext"><g stroke-width="0.0" stroke="none" fill="rgb(5%, 5%, 5%)" fill-opacity="1.0" font-size="0.0200" text-anchor="end"><text x="-0.0090" y="0.1557" transform="rotate(-45.0, -0.0090, 0.1557)">marital_status</text></g></g></g></g></g><g class="chart"><g class="barchart"><g stroke-width="0" stroke="rgb(2%, 29%, 48%)" stroke-opacity="1.0" fill="rgb(2%, 73%, 80%)" fill-opacity="0.2"><rect width="0.0838" height="0.2622" x="-0.1827" y="-0.4439"/></g><g stroke-width="0" stroke="rgb(2%, 29%, 48%)" stroke-opacity="1.0" fill="rgb(2%, 29%, 48%)" fill-opacity="0.2"><rect width="0.0838" height="0.1720" x="-0.1827" y="-0.1817"/></g><g stroke-width="0" stroke="rgb(2%, 29%, 48%)" stroke-opacity="1.0" fill="rgb(66%, 7%, 55%)" fill-opacity="0.2"><rect width="0.0838" height="0.0871" x="-0.1827" y="-0.0097"/></g><g stroke-width="0" stroke="rgb(2%, 29%, 48%)" stroke-opacity="1.0" fill="rgb(96%, 60%, 92%)" fill-opacity="0.2"><rect width="0.0838" height="0.0248" x="-0.1827" y="0.0774"/></g><g stroke-width="0" stroke="rgb(2%, 29%, 48%)" stroke-opacity="1.0" fill="rgb(100%, 71%, 35%)" fill-opacity="0.2"><rect width="0.0838" height="0.0105" x="-0.1827" y="0.1021"/></g></g><g class="labels"><g stroke-width="0.0" stroke="none" fill="rgb(-63%, 46%, 53%)" fill-opacity="0.6" font-size="0.0206" text-anchor="middle"><text x="-0.1407" y="-0.3128">Bachelor&apos;s</text></g><g stroke-width="0.0" stroke="none" fill="rgb(-8%, 16%, 34%)" fill-opacity="0.6" font-size="0.0206" text-anchor="middle"><text x="-0.1407" y="-0.0957">High School</text></g><g stroke-width="0.0" stroke="none" fill="rgb(46%, -23%, 37%)" fill-opacity="0.6" font-size="0.0206" text-anchor="middle"><text x="-0.1407" y="0.0338">Master&apos;s</text></g><g stroke-width="0.0" stroke="none" fill="rgb(64%, 31%, 61%)" fill-opacity="0.6" font-size="0.0206" text-anchor="middle"><text x="-0.1407" y="0.0897">Other</text></g><g stroke-width="0.0" stroke="none" fill="rgb(68%, 41%, -17%)" fill-opacity="0.6" font-size="0.0206" text-anchor="middle"><text x="-0.1407" y="0.1074">PhD</text></g></g></g><g class="hud"><g class="axis"><g class="ticks"><g class="ticktext"><g stroke-width="0.0" stroke="none" fill="rgb(5%, 5%, 5%)" fill-opacity="1.0" font-size="0.0200" text-anchor="end"><text x="-0.1407" y="0.1556" transform="rotate(-45.0, -0.1407, 0.1556)">education_level</text></g></g></g></g></g><g class="chart"><g class="barchart"><g stroke-width="0" stroke="rgb(2%, 29%, 48%)" stroke-opacity="1.0" fill="rgb(2%, 73%, 80%)" fill-opacity="0.2"><rect width="0.0838" height="0.4225" x="-0.3267" y="-0.4439"/></g><g stroke-width="0" stroke="rgb(2%, 29%, 48%)" stroke-opacity="1.0" fill="rgb(2%, 29%, 48%)" fill-opacity="0.2"><rect width="0.0838" height="0.0584" x="-0.3267" y="-0.0213"/></g><g stroke-width="0" stroke="rgb(2%, 29%, 48%)" stroke-opacity="1.0" fill="rgb(66%, 7%, 55%)" fill-opacity="0.2"><rect width="0.0838" height="0.0493" x="-0.3267" y="0.0371"/></g><g stroke-width="0" stroke="rgb(2%, 29%, 48%)" stroke-opacity="1.0" fill="rgb(96%, 60%, 92%)" fill-opacity="0.2"><rect width="0.0838" height="0.0154" x="-0.3267" y="0.0864"/></g><g stroke-width="0" stroke="rgb(2%, 29%, 48%)" stroke-opacity="1.0" fill="rgb(100%, 71%, 35%)" fill-opacity="0.2"><rect width="0.0838" height="0.0110" x="-0.3267" y="0.1018"/></g></g><g class="labels"><g stroke-width="0.0" stroke="none" fill="rgb(-63%, 46%, 53%)" fill-opacity="0.6" font-size="0.0206" text-anchor="middle"><text x="-0.2848" y="-0.2326">Employed</text></g><g stroke-width="0.0" stroke="none" fill="rgb(-8%, 16%, 34%)" fill-opacity="0.6" font-size="0.0206" text-anchor="middle"><text x="-0.2848" y="0.0079">Unemployed</text></g><g stroke-width="0.0" stroke="none" fill="rgb(46%, -23%, 37%)" fill-opacity="0.6" font-size="0.0206" text-anchor="middle"><text x="-0.2848" y="0.0618">Self-employed</text></g><g stroke-width="0.0" stroke="none" fill="rgb(64%, 31%, 61%)" fill-opacity="0.6" font-size="0.0206" text-anchor="middle"><text x="-0.2848" y="0.0941">Retired</text></g><g stroke-width="0.0" stroke="none" fill="rgb(68%, 41%, -17%)" fill-opacity="0.6" font-size="0.0206" text-anchor="middle"><text x="-0.2848" y="0.1074">Student</text></g></g></g><g class="hud"><g class="axis"><g class="ticks"><g class="ticktext"><g stroke-width="0.0" stroke="none" fill="rgb(5%, 5%, 5%)" fill-opacity="1.0" font-size="0.0233" text-anchor="end"><text x="-0.2848" y="0.1602" transform="rotate(-45.0, -0.2848, 0.1602)">employment_status</text></g></g></g></g></g><g class="chart"><g class="barchart"><g stroke-width="0" stroke="rgb(2%, 29%, 48%)" stroke-opacity="1.0" fill="rgb(2%, 73%, 80%)" fill-opacity="0.2"><rect width="0.0838" height="0.3031" x="-0.5161" y="-0.4439"/></g><g stroke-width="0" stroke="rgb(2%, 29%, 48%)" stroke-opacity="1.0" fill="rgb(2%, 29%, 48%)" fill-opacity="0.2"><rect width="0.0838" height="0.0604" x="-0.5161" y="-0.1408"/></g><g stroke-width="0" stroke="rgb(2%, 29%, 48%)" stroke-opacity="1.0" fill="rgb(66%, 7%, 55%)" fill-opacity="0.2"><rect width="0.0838" height="0.0543" x="-0.5161" y="-0.0804"/></g><g stroke-width="0" stroke="rgb(2%, 29%, 48%)" stroke-opacity="1.0" fill="rgb(96%, 60%, 92%)" fill-opacity="0.2"><rect width="0.0838" height="0.0414" x="-0.5161" y="-0.0261"/></g><g stroke-width="0" stroke="rgb(2%, 29%, 48%)" stroke-opacity="1.0" fill="rgb(100%, 71%, 35%)" fill-opacity="0.2"><rect width="0.0838" height="0.0343" x="-0.5161" y="0.0153"/></g><g stroke-width="0" stroke="rgb(2%, 29%, 48%)" stroke-opacity="1.0" fill="rgb(73%, 34%, 1%)" fill-opacity="0.2"><rect width="0.0838" height="0.0329" x="-0.5161" y="0.0496"/></g><g stroke-width="0" stroke="rgb(2%, 29%, 48%)" stroke-opacity="1.0" fill="rgb(21%, 29%, 7%)" fill-opacity="0.2"><rect width="0.0838" height="0.0210" x="-0.5161" y="0.0825"/></g><g stroke-width="0" stroke="rgb(2%, 29%, 48%)" stroke-opacity="1.0" fill="rgb(53%, 51%, 28%)" fill-opacity="0.2"><rect width="0.0838" height="0.0079" x="-0.5161" y="0.1035"/></g></g><g class="labels"><g stroke-width="0.0" stroke="none" fill="rgb(-63%, 46%, 53%)" fill-opacity="0.6" font-size="0.0206" text-anchor="middle"><text x="-0.4742" y="-0.2923">Debt consolidation</text></g><g stroke-width="0.0" stroke="none" fill="rgb(-8%, 16%, 34%)" fill-opacity="0.6" font-size="0.0206" text-anchor="middle"><text x="-0.4742" y="-0.1106">Other</text></g><g stroke-width="0.0" stroke="none" fill="rgb(46%, -23%, 37%)" fill-opacity="0.6" font-size="0.0206" text-anchor="middle"><text x="-0.4742" y="-0.0532">Car</text></g><g stroke-width="0.0" stroke="none" fill="rgb(64%, 31%, 61%)" fill-opacity="0.6" font-size="0.0206" text-anchor="middle"><text x="-0.4742" y="-0.0054">Home</text></g><g stroke-width="0.0" stroke="none" fill="rgb(68%, 41%, -17%)" fill-opacity="0.6" font-size="0.0206" text-anchor="middle"><text x="-0.4742" y="0.0325">Education</text></g><g stroke-width="0.0" stroke="none" fill="rgb(51%, 13%, -20%)" fill-opacity="0.6" font-size="0.0206" text-anchor="middle"><text x="-0.4742" y="0.0660">Business</text></g><g stroke-width="0.0" stroke="none" fill="rgb(10%, 17%, -4%)" fill-opacity="0.6" font-size="0.0206" text-anchor="middle"><text x="-0.4742" y="0.0930">Medical</text></g><g stroke-width="0.0" stroke="none" fill="rgb(33%, 31%, 6%)" fill-opacity="0.6" font-size="0.0206" text-anchor="middle"><text x="-0.4742" y="0.1074">Vacation</text></g></g></g><g class="hud"><g class="axis"><g class="ticks"><g class="ticktext"><g stroke-width="0.0" stroke="none" fill="rgb(5%, 5%, 5%)" fill-opacity="1.0" font-size="0.0274" text-anchor="end"><text x="-0.4742" y="0.1658" transform="rotate(-45.0, -0.4742, 0.1658)">loan_purpose</text></g></g></g></g></g><g class="chart"><g class="barchart"><g stroke-width="0" stroke="rgb(2%, 29%, 48%)" stroke-opacity="1.0" fill="rgb(2%, 73%, 80%)" fill-opacity="0.2"><rect width="0.0838" height="0.0739" x="-0.6633" y="-0.4439"/></g><g stroke-width="0" stroke="rgb(2%, 29%, 48%)" stroke-opacity="1.0" fill="rgb(2%, 29%, 48%)" fill-opacity="0.2"><rect width="0.0838" height="0.0689" x="-0.6633" y="-0.3700"/></g><g stroke-width="0" stroke="rgb(2%, 29%, 48%)" stroke-opacity="1.0" fill="rgb(66%, 7%, 55%)" fill-opacity="0.2"><rect width="0.0838" height="0.0678" x="-0.6633" y="-0.3011"/></g><g stroke-width="0" stroke="rgb(2%, 29%, 48%)" stroke-opacity="1.0" fill="rgb(96%, 60%, 92%)" fill-opacity="0.2"><rect width="0.0838" height="0.0663" x="-0.6633" y="-0.2333"/></g><g stroke-width="0" stroke="rgb(2%, 29%, 48%)" stroke-opacity="1.0" fill="rgb(100%, 71%, 35%)" fill-opacity="0.2"><rect width="0.0838" height="0.0662" x="-0.6633" y="-0.1670"/></g><g stroke-width="0" stroke="rgb(2%, 29%, 48%)" stroke-opacity="1.0" fill="rgb(73%, 34%, 1%)" fill-opacity="0.2"><rect width="0.0838" height="0.0457" x="-0.6633" y="-0.1008"/></g><g stroke-width="0" stroke="rgb(2%, 29%, 48%)" stroke-opacity="1.0" fill="rgb(21%, 29%, 7%)" fill-opacity="0.2"><rect width="0.0838" height="0.0455" x="-0.6633" y="-0.0551"/></g><g stroke-width="0" stroke="rgb(2%, 29%, 48%)" stroke-opacity="1.0" fill="rgb(53%, 51%, 28%)" fill-opacity="0.2"><rect width="0.0838" height="0.0436" x="-0.6633" y="-0.0096"/></g><g stroke-width="0" stroke="rgb(2%, 29%, 48%)" stroke-opacity="1.0" fill="rgb(2%, 73%, 80%)" fill-opacity="0.2"><rect width="0.0838" height="0.0429" x="-0.6633" y="0.0340"/></g><g stroke-width="0" stroke="rgb(2%, 29%, 48%)" stroke-opacity="1.0" fill="rgb(2%, 29%, 48%)" fill-opacity="0.2"><rect width="0.0838" height="0.0405" x="-0.6633" y="0.0769"/></g></g><g class="labels"><g stroke-width="0.0" stroke="none" fill="rgb(-63%, 46%, 53%)" fill-opacity="0.6" font-size="0.0206" text-anchor="middle"><text x="-0.6214" y="-0.4069">C3</text></g><g stroke-width="0.0" stroke="none" fill="rgb(-8%, 16%, 34%)" fill-opacity="0.6" font-size="0.0206" text-anchor="middle"><text x="-0.6214" y="-0.3356">C4</text></g><g stroke-width="0.0" stroke="none" fill="rgb(46%, -23%, 37%)" fill-opacity="0.6" font-size="0.0206" text-anchor="middle"><text x="-0.6214" y="-0.2672">C2</text></g><g stroke-width="0.0" stroke="none" fill="rgb(64%, 31%, 61%)" fill-opacity="0.6" font-size="0.0206" text-anchor="middle"><text x="-0.6214" y="-0.2001">C1</text></g><g stroke-width="0.0" stroke="none" fill="rgb(68%, 41%, -17%)" fill-opacity="0.6" font-size="0.0206" text-anchor="middle"><text x="-0.6214" y="-0.1339">C5</text></g><g stroke-width="0.0" stroke="none" fill="rgb(51%, 13%, -20%)" fill-opacity="0.6" font-size="0.0206" text-anchor="middle"><text x="-0.6214" y="-0.0779">D1</text></g><g stroke-width="0.0" stroke="none" fill="rgb(10%, 17%, -4%)" fill-opacity="0.6" font-size="0.0206" text-anchor="middle"><text x="-0.6214" y="-0.0323">D3</text></g><g stroke-width="0.0" stroke="none" fill="rgb(33%, 31%, 6%)" fill-opacity="0.6" font-size="0.0206" text-anchor="middle"><text x="-0.6214" y="0.0122">D4</text></g><g stroke-width="0.0" stroke="none" fill="rgb(-63%, 46%, 53%)" fill-opacity="0.6" font-size="0.0206" text-anchor="middle"><text x="-0.6214" y="0.0554">D2</text></g><g stroke-width="0.0" stroke="none" fill="rgb(-8%, 16%, 34%)" fill-opacity="0.6" font-size="0.0206" text-anchor="middle"><text x="-0.6214" y="0.0971">D5</text></g></g></g><g class="hud"><g class="axis"><g class="ticks"><g class="ticktext"><g stroke-width="0.0" stroke="none" fill="rgb(5%, 5%, 5%)" fill-opacity="1.0" font-size="0.0200" text-anchor="end"><text x="-0.6214" y="0.1555" transform="rotate(-45.0, -0.6214, 0.1555)">grade_subgrade</text></g></g></g></g></g><g class="frame"><g stroke-width="0" stroke="rgb(0%, 0%, 0%)" stroke-opacity="0" fill="rgb(0%, 0%, 0%)" fill-opacity="0"><rect width="1.4717" height="1.0" x="-0.7217" y="-0.5"/></g></g></g><g class="hud"></g></svg>