<svg xmlns="http://www.w3.org/2000/svg" xmlns:xlink="http://www.w3.org/1999/xlink" width="450" height="300" viewBox="-0.7500 -0.5 1.5000 1.0"><style>svg {
  color-scheme: light dark;
}
{
  .canvas g, .title g, .axisbar g, .ticktext g, .tickglyph g, .ticklines g, .legendContent g text {
    fill: rgb(5%, 5%, 5%);
  }
  .ticklines g, .tickglyph g, .legendBorder g {
    stroke: rgb(5%, 5%, 5%);
  }
  .legendBorder g {
    fill: rgb(94%, 94%, 94%);
  }
}
@media (prefers-color-scheme:dark) {
  .canvas g, .title g, .axisbar g, .ticktext g, .tickglyph g, .ticklines g, .legendContent g text {
    fill: rgb(94%, 94%, 94%);
  }
  .ticklines g, .tickglyph g, .legendBorder g {
    stroke: rgb(94%, 94%, 94%);
  }
  .legendBorder g {
    fill: rgb(5%, 5%, 5%);
  }
}
svg { font-family: system-ui,-apple-system,"Segoe UI",Roboto,"Helvetica Neue",Arial,"Noto Sans","Liberation Sans",sans-serif,"Apple Color Emoji","Segoe UI Emoji","Segoe UI Symbol","Noto Color Emoji";
}

ticktext { font-family: SFMono-Regular,Menlo,Monaco,Consolas,"Liberation Mono","Courier New",monospace;
}

</style><g class="chart"><g class="chart"><g class="scatter"><g stroke-width="0.0014" stroke="rgb(2%, 29%, 48%)" stroke-opacity="0.2" fill="rgb(2%, 73%, 80%)" fill-opacity="0.3"><circle cx="0.5522" cy="0.0438" r="0.0115"/><circle cx="0.4516" cy="-0.0358" r="0.0115"/><circle cx="0.4751" cy="0.1951" r="0.0115"/><circle cx="0.2760" cy="0.1402" r="0.0115"/><circle cx="0.4489" cy="-0.0793" r="0.0115"/><circle cx="0.4992" cy="0.1100" r="0.0115"/><circle cx="0.5061" cy="0.1073" r="0.0115"/><circle cx="0.5720" cy="0.1957" r="0.0115"/><circle cx="0.3922" cy="-0.1309" r="0.0115"/><circle cx="0.5077" cy="0.1678" r="0.0115"/><circle cx="0.3841" cy="0.0551" r="0.0115"/><circle cx="0.3253" cy="-0.2581" r="0.0115"/><circle cx="0.3076" cy="-0.0255" r="0.0115"/><circle cx="0.5848" cy="-0.0515" r="0.0115"/><circle cx="0.2675" cy="-0.2130" r="0.0115"/><circle cx="0.4590" cy="0.1380" r="0.0115"/><circle cx="0.2150" cy="-0.2300" r="0.0115"/><circle cx="0.4227" cy="-0.2625" r="0.0115"/><circle cx="0.5168" cy="-0.0574" r="0.0115"/><circle cx="0.5254" cy="0.1065" r="0.0115"/><circle cx="0.4029" cy="0.0610" r="0.0115"/><circle cx="0.2755" cy="0.1042" r="0.0115"/><circle cx="0.4735" cy="-0.0398" r="0.0115"/><circle cx="0.4382" cy="-0.0245" r="0.0115"/><circle cx="0.2380" cy="0.1148" r="0.0115"/><circle cx="0.5072" cy="0.0313" r="0.0115"/><circle cx="0.4280" cy="0.1616" r="0.0115"/><circle cx="0.3713" cy="0.0313" r="0.0115"/><circle cx="0.4360" cy="-0.0192" r="0.0115"/><circle cx="0.4328" cy="-0.0065" r="0.0115"/><circle cx="0.4034" cy="-0.1076" r="0.0115"/><circle cx="0.2311" cy="0.0490" r="0.0115"/><circle cx="0.5077" cy="-0.0385" r="0.0115"/><circle cx="0.4986" cy="-0.0809" r="0.0115"/><circle cx="0.6196" cy="-0.1318" r="0.0115"/><circle cx="0.4633" cy="-0.1935" r="0.0115"/><circle cx="0.4275" cy="0.1034" r="0.0115"/><circle cx="0.2311" cy="-0.1337" r="0.0115"/><circle cx="0.2230" cy="-0.0303" r="0.0115"/><circle cx="0.3338" cy="-0.1007" r="0.0115"/><circle cx="0.4360" cy="-0.0295" r="0.0115"/><circle cx="0.4162" cy="0.0679" r="0.0115"/><circle cx="0.5441" cy="-0.0880" r="0.0115"/><circle cx="0.4087" cy="-0.2345" r="0.0115"/><circle cx="0.4168" cy="0.0586" r="0.0115"/><circle cx="0.3654" cy="-0.0666" r="0.0115"/><circle cx="0.3766" cy="-0.1444" r="0.0115"/><circle cx="0.3590" cy="0.0550" r="0.0115"/><circle cx="0.4344" cy="0.1865" r="0.0115"/><circle cx="0.4248" cy="-0.0696" r="0.0115"/><circle cx="0.5019" cy="-0.0020" r="0.0115"/><circle cx="0.4301" cy="0.0112" r="0.0115"/><circle cx="0.4114" cy="0.0671" r="0.0115"/><circle cx="0.7186" cy="0.2061" r="0.0115"/><circle cx="0.4023" cy="-0.0853" r="0.0115"/><circle cx="0.3820" cy="-0.1098" r="0.0115"/><circle cx="0.5923" cy="0.0172" r="0.0115"/><circle cx="0.5538" cy="0.1073" r="0.0115"/><circle cx="0.4360" cy="-0.2679" r="0.0115"/><circle cx="0.4788" cy="-0.0765" r="0.0115"/><circle cx="0.3622" cy="-0.0244" r="0.0115"/><circle cx="0.4243" cy="0.0871" r="0.0115"/><circle cx="0.7223" cy="0.1298" r="0.0115"/><circle cx="0.2985" cy="0.0009" r="0.0115"/><circle cx="0.5222" cy="0.0972" r="0.0115"/><circle cx="0.2514" cy="0.1380" r="0.0115"/><circle cx="0.4762" cy="0.1264" r="0.0115"/><circle cx="0.4665" cy="-0.2207" r="0.0115"/><circle cx="0.4034" cy="-0.0904" r="0.0115"/><circle cx="0.5554" cy="0.0321" r="0.0115"/><circle cx="0.4767" cy="-0.0507" r="0.0115"/><circle cx="0.4532" cy="0.0284" r="0.0115"/><circle cx="0.4896" cy="-0.1233" r="0.0115"/><circle cx="0.3397" cy="0.0156" r="0.0115"/><circle cx="0.5436" cy="-0.0597" r="0.0115"/><circle cx="0.5618" cy="0.0655" r="0.0115"/><circle cx="0.3408" cy="-0.2651" r="0.0115"/><circle cx="0.5174" cy="-0.1549" r="0.0115"/><circle cx="0.2418" cy="-0.0051" r="0.0115"/><circle cx="0.5201" cy="0.0748" r="0.0115"/><circle cx="0.4649" cy="-0.0164" r="0.0115"/><circle cx="0.2386" cy="0.0016" r="0.0115"/><circle cx="0.4933" cy="0.0438" r="0.0115"/><circle cx="0.4227" cy="-0.0036" r="0.0115"/><circle cx="0.4917" cy="0.0398" r="0.0115"/><circle cx="0.2685" cy="-0.0949" r="0.0115"/><circle cx="0.4194" cy="0.0396" r="0.0115"/><circle cx="0.4002" cy="0.2284" r="0.0115"/><circle cx="0.6892" cy="-0.0461" r="0.0115"/><circle cx="0.2337" cy="-0.0437" r="0.0115"/><circle cx="0.5142" cy="-0.2134" r="0.0115"/><circle cx="0.4467" cy="-0.0787" r="0.0115"/><circle cx="0.3220" cy="0.0885" r="0.0115"/><circle cx="0.4778" cy="-0.1440" r="0.0115"/><circle cx="0.5746" cy="-0.0266" r="0.0115"/><circle cx="0.4655" cy="0.2578" r="0.0115"/><circle cx="0.5564" cy="0.2190" r="0.0115"/><circle cx="0.5741" cy="-0.0745" r="0.0115"/><circle cx="0.4805" cy="0.0018" r="0.0115"/><circle cx="0.3922" cy="-0.2191" r="0.0115"/></g></g><g class="datapadding"></g></g><g class="hud"><g class="frame"><g stroke-width="0" stroke="rgb(0%, 0%, 0%)" stroke-opacity="0" fill="rgb(100%, 100%, 100%)" fill-opacity="0.02"><rect width="0.5398" height="0.5956" x="0.1920" y="-0.3221"/></g></g><g class="axis"><g class="axisbar"><g stroke-width="0" stroke="rgb(0%, 0%, 0%)" stroke-opacity="0" fill="rgb(5%, 5%, 5%)" fill-opacity="0.4"><rect width="0.5366" height="0.0024" x="0.1913" y="0.2759"/></g></g><g class="ticks"><g class="ticklines"><g stroke-width="0.0023" stroke="rgb(5%, 5%, 5%)" stroke-opacity="0.05" fill="none"><polyline points="0.1920,0.2700 0.1920,-0.3221"/><polyline points="0.2990,0.2700 0.2990,-0.3221"/><polyline points="0.4061,0.2700 0.4061,-0.3221"/><polyline points="0.5131,0.2700 0.5131,-0.3221"/><polyline points="0.6201,0.2700 0.6201,-0.3221"/><polyline points="0.7272,0.2700 0.7272,-0.3221"/></g></g><g class="tickglyph"><g stroke-width="0.0018" stroke="rgb(5%, 5%, 5%)" stroke-opacity="0.4" fill="rgb(5%, 5%, 5%)" fill-opacity="0.4"><polyline points="0.1920,0.2929
0.1920,0.2791"/><polyline points="0.2990,0.2929
0.2990,0.2791"/><polyline points="0.4061,0.2929
0.4061,0.2791"/><polyline points="0.5131,0.2929
0.5131,0.2791"/><polyline points="0.6201,0.2929
0.6201,0.2791"/><polyline points="0.7272,0.2929
0.7272,0.2791"/></g></g><g class="ticktext"><g stroke-width="0.0" stroke="none" fill="rgb(5%, 5%, 5%)" fill-opacity="1.0" font-size="0.0184" text-anchor="middle"><text x="0.1920" y="0.3274"> 8</text><text x="0.2990" y="0.3274">10</text><text x="0.4061" y="0.3274">12</text><text x="0.5131" y="0.3274">14</text><text x="0.6201" y="0.3274">16</text><text x="0.7272" y="0.3274">18</text></g></g></g></g><g class="axis"><g class="axisbar"><g stroke-width="0" stroke="rgb(0%, 0%, 0%)" stroke-opacity="0" fill="rgb(5%, 5%, 5%)" fill-opacity="0.4"><rect width="0.0014" height="0.5944" x="0.1870" y="-0.3233"/></g></g><g class="ticks"><g class="ticklines"><g stroke-width="0.0023" stroke="rgb(5%, 5%, 5%)" stroke-opacity="0.05" fill="none"><polyline points="0.1920,0.2700 0.7272,0.2700"/><polyline points="0.1920,0.1713 0.7272,0.1713"/><polyline points="0.1920,0.0726 0.7272,0.0726"/><polyline points="0.1920,-0.0261 0.7272,-0.0261"/><polyline points="0.1920,-0.1247 0.7272,-0.1247"/><polyline points="0.1920,-0.2234 0.7272,-0.2234"/><polyline points="0.1920,-0.3221 0.7272,-0.3221"/></g></g><g class="tickglyph"><g stroke-width="0.0018" stroke="rgb(5%, 5%, 5%)" stroke-opacity="0.4" fill="rgb(5%, 5%, 5%)" fill-opacity="0.4"><polyline points="0.1755,0.2700
0.1893,0.2700"/><polyline points="0.1755,0.1713
0.1893,0.1713"/><polyline points="0.1755,0.0726
0.1893,0.0726"/><polyline points="0.1755,-0.0261
0.1893,-0.0261"/><polyline points="0.1755,-0.1247
0.1893,-0.1247"/><polyline points="0.1755,-0.2234
0.1893,-0.2234"/><polyline points="0.1755,-0.3221
0.1893,-0.3221"/></g></g><g class="ticktext"><g stroke-width="0.0" stroke="none" fill="rgb(5%, 5%, 5%)" fill-opacity="1.0" font-size="0.0184" text-anchor="end"><text x="0.1692" y="0.2765">     0</text><text x="0.1692" y="0.1778"> 5,000</text><text x="0.1692" y="0.0791">10,000</text><text x="0.1692" y="-0.0195">15,000</text><text x="0.1692" y="-0.1182">20,000</text><text x="0.1692" y="-0.2169">25,000</text><text x="0.1692" y="-0.3156">30,000</text></g></g></g></g><g class="frame"><g stroke-width="0" stroke="rgb(0%, 0%, 0%)" stroke-opacity="0" fill="rgb(0%, 0%, 0%)" fill-opacity="0"><rect width="0.6465" height="0.7164" x="0.1035" y="-0.3582"/></g></g></g><g class="chart"><g class="scatter"><g stroke-width="0.0014" stroke="rgb(2%, 29%, 48%)" stroke-opacity="0.5" fill="rgb(98%, 49%, 18%)" fill-opacity="0.1"><path d="M 0,18.0664 L 0,18.0664 L 6.0222,9.0332 L 0,0 L 0,0 L 4.5166,0 L 4.5166,0 L 10.5388,9.0332 L 4.5166,18.0664 L 0,18.0664 L 0,18.0664 M 6.0222,18.0664 L 6.0222,18.0664 L 12.0444,9.0332 L 6.0222,0 L 6.0222,0 L 10.5388,0 L 22.5830,18.0664 L 22.5830,18.0664 L 18.0664,18.0664 L 18.0664,18.0664 L 14.3027,12.4207 L 10.5388,18.0664 L 6.0222,18.0664 L 6.0222,18.0664" transform="translate(-0.3209, -0.0980) scale(0.0138)"/><path d="M 0,18.0664 L 0,18.0664 L 6.0222,9.0332 L 0,0 L 0,0 L 4.5166,0 L 4.5166,0 L 10.5388,9.0332 L 4.5166,18.0664 L 0,18.0664 L 0,18.0664 M 6.0222,18.0664 L 6.0222,18.0664 L 12.0444,9.0332 L 6.0222,0 L 6.0222,0 L 10.5388,0 L 22.5830,18.0664 L 22.5830,18.0664 L 18.0664,18.0664 L 18.0664,18.0664 L 14.3027,12.4207 L 10.5388,18.0664 L 6.0222,18.0664 L 6.0222,18.0664" transform="translate(-0.4159, -0.1776) scale(0.0138)"/><path d="M 0,18.0664 L 0,18.0664 L 6.0222,9.0332 L 0,0 L 0,0 L 4.5166,0 L 4.5166,0 L 10.5388,9.0332 L 4.5166,18.0664 L 0,18.0664 L 0,18.0664 M 6.0222,18.0664 L 6.0222,18.0664 L 12.0444,9.0332 L 6.0222,0 L 6.0222,0 L 10.5388,0 L 22.5830,18.0664 L 22.5830,18.0664 L 18.0664,18.0664 L 18.0664,18.0664 L 14.3027,12.4207 L 10.5388,18.0664 L 6.0222,18.0664 L 6.0222,18.0664" transform="translate(-0.3936, 0.0533) scale(0.0138)"/><path d="M 0,18.0664 L 0,18.0664 L 6.0222,9.0332 L 0,0 L 0,0 L 4.5166,0 L 4.5166,0 L 10.5388,9.0332 L 4.5166,18.0664 L 0,18.0664 L 0,18.0664 M 6.0222,18.0664 L 6.0222,18.0664 L 12.0444,9.0332 L 6.0222,0 L 6.0222,0 L 10.5388,0 L 22.5830,18.0664 L 22.5830,18.0664 L 18.0664,18.0664 L 18.0664,18.0664 L 14.3027,12.4207 L 10.5388,18.0664 L 6.0222,18.0664 L 6.0222,18.0664" transform="translate(-0.5816, -0.0016) scale(0.0138)"/><path d="M 0,18.0664 L 0,18.0664 L 6.0222,9.0332 L 0,0 L 0,0 L 4.5166,0 L 4.5166,0 L 10.5388,9.0332 L 4.5166,18.0664 L 0,18.0664 L 0,18.0664 M 6.0222,18.0664 L 6.0222,18.0664 L 12.0444,9.0332 L 6.0222,0 L 6.0222,0 L 10.5388,0 L 22.5830,18.0664 L 22.5830,18.0664 L 18.0664,18.0664 L 18.0664,18.0664 L 14.3027,12.4207 L 10.5388,18.0664 L 6.0222,18.0664 L 6.0222,18.0664" transform="translate(-0.4184, -0.2211) scale(0.0138)"/><path d="M 0,18.0664 L 0,18.0664 L 6.0222,9.0332 L 0,0 L 0,0 L 4.5166,0 L 4.5166,0 L 10.5388,9.0332 L 4.5166,18.0664 L 0,18.0664 L 0,18.0664 M 6.0222,18.0664 L 6.0222,18.0664 L 12.0444,9.0332 L 6.0222,0 L 6.0222,0 L 10.5388,0 L 22.5830,18.0664 L 22.5830,18.0664 L 18.0664,18.0664 L 18.0664,18.0664 L 14.3027,12.4207 L 10.5388,18.0664 L 6.0222,18.0664 L 6.0222,18.0664" transform="translate(-0.3709, -0.0318) scale(0.0138)"/><path d="M 0,18.0664 L 0,18.0664 L 6.0222,9.0332 L 0,0 L 0,0 L 4.5166,0 L 4.5166,0 L 10.5388,9.0332 L 4.5166,18.0664 L 0,18.0664 L 0,18.0664 M 6.0222,18.0664 L 6.0222,18.0664 L 12.0444,9.0332 L 6.0222,0 L 6.0222,0 L 10.5388,0 L 22.5830,18.0664 L 22.5830,18.0664 L 18.0664,18.0664 L 18.0664,18.0664 L 14.3027,12.4207 L 10.5388,18.0664 L 6.0222,18.0664 L 6.0222,18.0664" transform="translate(-0.3643, -0.0345) scale(0.0138)"/><path d="M 0,18.0664 L 0,18.0664 L 6.0222,9.0332 L 0,0 L 0,0 L 4.5166,0 L 4.5166,0 L 10.5388,9.0332 L 4.5166,18.0664 L 0,18.0664 L 0,18.0664 M 6.0222,18.0664 L 6.0222,18.0664 L 12.0444,9.0332 L 6.0222,0 L 6.0222,0 L 10.5388,0 L 22.5830,18.0664 L 22.5830,18.0664 L 18.0664,18.0664 L 18.0664,18.0664 L 14.3027,12.4207 L 10.5388,18.0664 L 6.0222,18.0664 L 6.0222,18.0664" transform="translate(-0.3022, 0.0539) scale(0.0138)"/><path d="M 0,18.0664 L 0,18.0664 L 6.0222,9.0332 L 0,0 L 0,0 L 4.5166,0 L 4.5166,0 L 10.5388,9.0332 L 4.5166,18.0664 L 0,18.0664 L 0,18.0664 M 6.0222,18.0664 L 6.0222,18.0664 L 12.0444,9.0332 L 6.0222,0 L 6.0222,0 L 10.5388,0 L 22.5830,18.0664 L 22.5830,18.0664 L 18.0664,18.0664 L 18.0664,18.0664 L 14.3027,12.4207 L 10.5388,18.0664 L 6.0222,18.0664 L 6.0222,18.0664" transform="translate(-0.4720, -0.2727) scale(0.0138)"/><path d="M 0,18.0664 L 0,18.0664 L 6.0222,9.0332 L 0,0 L 0,0 L 4.5166,0 L 4.5166,0 L 10.5388,9.0332 L 4.5166,18.0664 L 0,18.0664 L 0,18.0664 M 6.0222,18.0664 L 6.0222,18.0664 L 12.0444,9.0332 L 6.0222,0 L 6.0222,0 L 10.5388,0 L 22.5830,18.0664 L 22.5830,18.0664 L 18.0664,18.0664 L 18.0664,18.0664 L 14.3027,12.4207 L 10.5388,18.0664 L 6.0222,18.0664 L 6.0222,18.0664" transform="translate(-0.3628, 0.0260) scale(0.0138)"/><path d="M 0,18.0664 L 0,18.0664 L 6.0222,9.0332 L 0,0 L 0,0 L 4.5166,0 L 4.5166,0 L 10.5388,9.0332 L 4.5166,18.0664 L 0,18.0664 L 0,18.0664 M 6.0222,18.0664 L 6.0222,18.0664 L 12.0444,9.0332 L 6.0222,0 L 6.0222,0 L 10.5388,0 L 22.5830,18.0664 L 22.5830,18.0664 L 18.0664,18.0664 L 18.0664,18.0664 L 14.3027,12.4207 L 10.5388,18.0664 L 6.0222,18.0664 L 6.0222,18.0664" transform="translate(-0.4796, -0.0867) scale(0.0138)"/><path d="M 0,18.0664 L 0,18.0664 L 6.0222,9.0332 L 0,0 L 0,0 L 4.5166,0 L 4.5166,0 L 10.5388,9.0332 L 4.5166,18.0664 L 0,18.0664 L 0,18.0664 M 6.0222,18.0664 L 6.0222,18.0664 L 12.0444,9.0332 L 6.0222,0 L 6.0222,0 L 10.5388,0 L 22.5830,18.0664 L 22.5830,18.0664 L 18.0664,18.0664 L 18.0664,18.0664 L 14.3027,12.4207 L 10.5388,18.0664 L 6.0222,18.0664 L 6.0222,18.0664" transform="translate(-0.5351, -0.3999) scale(0.0138)"/><path d="M 0,18.0664 L 0,18.0664 L 6.0222,9.0332 L 0,0 L 0,0 L 4.5166,0 L 4.5166,0 L 10.5388,9.0332 L 4.5166,18.0664 L 0,18.0664 L 0,18.0664 M 6.0222,18.0664 L 6.0222,18.0664 L 12.0444,9.0332 L 6.0222,0 L 6.0222,0 L 10.5388,0 L 22.5830,18.0664 L 22.5830,18.0664 L 18.0664,18.0664 L 18.0664,18.0664 L 14.3027,12.4207 L 10.5388,18.0664 L 6.0222,18.0664 L 6.0222,18.0664" transform="translate(-0.5518, -0.1673) scale(0.0138)"/><path d="M 0,18.0664 L 0,18.0664 L 6.0222,9.0332 L 0,0 L 0,0 L 4.5166,0 L 4.5166,0 L 10.5388,9.0332 L 4.5166,18.0664 L 0,18.0664 L 0,18.0664 M 6.0222,18.0664 L 6.0222,18.0664 L 12.0444,9.0332 L 6.0222,0 L 6.0222,0 L 10.5388,0 L 22.5830,18.0664 L 22.5830,18.0664 L 18.0664,18.0664 L 18.0664,18.0664 L 14.3027,12.4207 L 10.5388,18.0664 L 6.0222,18.0664 L 6.0222,18.0664" transform="translate(-0.2900, -0.1933) scale(0.0138)"/><path d="M 0,18.0664 L 0,18.0664 L 6.0222,9.0332 L 0,0 L 0,0 L 4.5166,0 L 4.5166,0 L 10.5388,9.0332 L 4.5166,18.0664 L 0,18.0664 L 0,18.0664 M 6.0222,18.0664 L 6.0222,18.0664 L 12.0444,9.0332 L 6.0222,0 L 6.0222,0 L 10.5388,0 L 22.5830,18.0664 L 22.5830,18.0664 L 18.0664,18.0664 L 18.0664,18.0664 L 14.3027,12.4207 L 10.5388,18.0664 L 6.0222,18.0664 L 6.0222,18.0664" transform="translate(-0.5897, -0.3548) scale(0.0138)"/><path d="M 0,18.0664 L 0,18.0664 L 6.0222,9.0332 L 0,0 L 0,0 L 4.5166,0 L 4.5166,0 L 10.5388,9.0332 L 4.5166,18.0664 L 0,18.0664 L 0,18.0664 M 6.0222,18.0664 L 6.0222,18.0664 L 12.0444,9.0332 L 6.0222,0 L 6.0222,0 L 10.5388,0 L 22.5830,18.0664 L 22.5830,18.0664 L 18.0664,18.0664 L 18.0664,18.0664 L 14.3027,12.4207 L 10.5388,18.0664 L 6.0222,18.0664 L 6.0222,18.0664" transform="translate(-0.4088, -0.0038) scale(0.0138)"/><path d="M 0,18.0664 L 0,18.0664 L 6.0222,9.0332 L 0,0 L 0,0 L 4.5166,0 L 4.5166,0 L 10.5388,9.0332 L 4.5166,18.0664 L 0,18.0664 L 0,18.0664 M 6.0222,18.0664 L 6.0222,18.0664 L 12.0444,9.0332 L 6.0222,0 L 6.0222,0 L 10.5388,0 L 22.5830,18.0664 L 22.5830,18.0664 L 18.0664,18.0664 L 18.0664,18.0664 L 14.3027,12.4207 L 10.5388,18.0664 L 6.0222,18.0664 L 6.0222,18.0664" transform="translate(-0.6393, -0.3718) scale(0.0138)"/><path d="M 0,18.0664 L 0,18.0664 L 6.0222,9.0332 L 0,0 L 0,0 L 4.5166,0 L 4.5166,0 L 10.5388,9.0332 L 4.5166,18.0664 L 0,18.0664 L 0,18.0664 M 6.0222,18.0664 L 6.0222,18.0664 L 12.0444,9.0332 L 6.0222,0 L 6.0222,0 L 10.5388,0 L 22.5830,18.0664 L 22.5830,18.0664 L 18.0664,18.0664 L 18.0664,18.0664 L 14.3027,12.4207 L 10.5388,18.0664 L 6.0222,18.0664 L 6.0222,18.0664" transform="translate(-0.4432, -0.4043) scale(0.0138)"/><path d="M 0,18.0664 L 0,18.0664 L 6.0222,9.0332 L 0,0 L 0,0 L 4.5166,0 L 4.5166,0 L 10.5388,9.0332 L 4.5166,18.0664 L 0,18.0664 L 0,18.0664 M 6.0222,18.0664 L 6.0222,18.0664 L 12.0444,9.0332 L 6.0222,0 L 6.0222,0 L 10.5388,0 L 22.5830,18.0664 L 22.5830,18.0664 L 18.0664,18.0664 L 18.0664,18.0664 L 14.3027,12.4207 L 10.5388,18.0664 L 6.0222,18.0664 L 6.0222,18.0664" transform="translate(-0.3542, -0.1992) scale(0.0138)"/><path d="M 0,18.0664 L 0,18.0664 L 6.0222,9.0332 L 0,0 L 0,0 L 4.5166,0 L 4.5166,0 L 10.5388,9.0332 L 4.5166,18.0664 L 0,18.0664 L 0,18.0664 M 6.0222,18.0664 L 6.0222,18.0664 L 12.0444,9.0332 L 6.0222,0 L 6.0222,0 L 10.5388,0 L 22.5830,18.0664 L 22.5830,18.0664 L 18.0664,18.0664 L 18.0664,18.0664 L 14.3027,12.4207 L 10.5388,18.0664 L 6.0222,18.0664 L 6.0222,18.0664" transform="translate(-0.3461, -0.0353) scale(0.0138)"/><path d="M 0,18.0664 L 0,18.0664 L 6.0222,9.0332 L 0,0 L 0,0 L 4.5166,0 L 4.5166,0 L 10.5388,9.0332 L 4.5166,18.0664 L 0,18.0664 L 0,18.0664 M 6.0222,18.0664 L 6.0222,18.0664 L 12.0444,9.0332 L 6.0222,0 L 6.0222,0 L 10.5388,0 L 22.5830,18.0664 L 22.5830,18.0664 L 18.0664,18.0664 L 18.0664,18.0664 L 14.3027,12.4207 L 10.5388,18.0664 L 6.0222,18.0664 L 6.0222,18.0664" transform="translate(-0.4619, -0.0808) scale(0.0138)"/><path d="M 0,18.0664 L 0,18.0664 L 6.0222,9.0332 L 0,0 L 0,0 L 4.5166,0 L 4.5166,0 L 10.5388,9.0332 L 4.5166,18.0664 L 0,18.0664 L 0,18.0664 M 6.0222,18.0664 L 6.0222,18.0664 L 12.0444,9.0332 L 6.0222,0 L 6.0222,0 L 10.5388,0 L 22.5830,18.0664 L 22.5830,18.0664 L 18.0664,18.0664 L 18.0664,18.0664 L 14.3027,12.4207 L 10.5388,18.0664 L 6.0222,18.0664 L 6.0222,18.0664" transform="translate(-0.5822, -0.0376) scale(0.0138)"/><path d="M 0,18.0664 L 0,18.0664 L 6.0222,9.0332 L 0,0 L 0,0 L 4.5166,0 L 4.5166,0 L 10.5388,9.0332 L 4.5166,18.0664 L 0,18.0664 L 0,18.0664 M 6.0222,18.0664 L 6.0222,18.0664 L 12.0444,9.0332 L 6.0222,0 L 6.0222,0 L 10.5388,0 L 22.5830,18.0664 L 22.5830,18.0664 L 18.0664,18.0664 L 18.0664,18.0664 L 14.3027,12.4207 L 10.5388,18.0664 L 6.0222,18.0664 L 6.0222,18.0664" transform="translate(-0.3952, -0.1816) scale(0.0138)"/><path d="M 0,18.0664 L 0,18.0664 L 6.0222,9.0332 L 0,0 L 0,0 L 4.5166,0 L 4.5166,0 L 10.5388,9.0332 L 4.5166,18.0664 L 0,18.0664 L 0,18.0664 M 6.0222,18.0664 L 6.0222,18.0664 L 12.0444,9.0332 L 6.0222,0 L 6.0222,0 L 10.5388,0 L 22.5830,18.0664 L 22.5830,18.0664 L 18.0664,18.0664 L 18.0664,18.0664 L 14.3027,12.4207 L 10.5388,18.0664 L 6.0222,18.0664 L 6.0222,18.0664" transform="translate(-0.4285, -0.1663) scale(0.0138)"/><path d="M 0,18.0664 L 0,18.0664 L 6.0222,9.0332 L 0,0 L 0,0 L 4.5166,0 L 4.5166,0 L 10.5388,9.0332 L 4.5166,18.0664 L 0,18.0664 L 0,18.0664 M 6.0222,18.0664 L 6.0222,18.0664 L 12.0444,9.0332 L 6.0222,0 L 6.0222,0 L 10.5388,0 L 22.5830,18.0664 L 22.5830,18.0664 L 18.0664,18.0664 L 18.0664,18.0664 L 14.3027,12.4207 L 10.5388,18.0664 L 6.0222,18.0664 L 6.0222,18.0664" transform="translate(-0.6175, -0.0270) scale(0.0138)"/><path d="M 0,18.0664 L 0,18.0664 L 6.0222,9.0332 L 0,0 L 0,0 L 4.5166,0 L 4.5166,0 L 10.5388,9.0332 L 4.5166,18.0664 L 0,18.0664 L 0,18.0664 M 6.0222,18.0664 L 6.0222,18.0664 L 12.0444,9.0332 L 6.0222,0 L 6.0222,0 L 10.5388,0 L 22.5830,18.0664 L 22.5830,18.0664 L 18.0664,18.0664 L 18.0664,18.0664 L 14.3027,12.4207 L 10.5388,18.0664 L 6.0222,18.0664 L 6.0222,18.0664" transform="translate(-0.3633, -0.1105) scale(0.0138)"/><path d="M 0,18.0664 L 0,18.0664 L 6.0222,9.0332 L 0,0 L 0,0 L 4.5166,0 L 4.5166,0 L 10.5388,9.0332 L 4.5166,18.0664 L 0,18.0664 L 0,18.0664 M 6.0222,18.0664 L 6.0222,18.0664 L 12.0444,9.0332 L 6.0222,0 L 6.0222,0 L 10.5388,0 L 22.5830,18.0664 L 22.5830,18.0664 L 18.0664,18.0664 L 18.0664,18.0664 L 14.3027,12.4207 L 10.5388,18.0664 L 6.0222,18.0664 L 6.0222,18.0664" transform="translate(-0.4381, 0.0198) scale(0.0138)"/><path d="M 0,18.0664 L 0,18.0664 L 6.0222,9.0332 L 0,0 L 0,0 L 4.5166,0 L 4.5166,0 L 10.5388,9.0332 L 4.5166,18.0664 L 0,18.0664 L 0,18.0664 M 6.0222,18.0664 L 6.0222,18.0664 L 12.0444,9.0332 L 6.0222,0 L 6.0222,0 L 10.5388,0 L 22.5830,18.0664 L 22.5830,18.0664 L 18.0664,18.0664 L 18.0664,18.0664 L 14.3027,12.4207 L 10.5388,18.0664 L 6.0222,18.0664 L 6.0222,18.0664" transform="translate(-0.4917, -0.1105) scale(0.0138)"/><path d="M 0,18.0664 L 0,18.0664 L 6.0222,9.0332 L 0,0 L 0,0 L 4.5166,0 L 4.5166,0 L 10.5388,9.0332 L 4.5166,18.0664 L 0,18.0664 L 0,18.0664 M 6.0222,18.0664 L 6.0222,18.0664 L 12.0444,9.0332 L 6.0222,0 L 6.0222,0 L 10.5388,0 L 22.5830,18.0664 L 22.5830,18.0664 L 18.0664,18.0664 L 18.0664,18.0664 L 14.3027,12.4207 L 10.5388,18.0664 L 6.0222,18.0664 L 6.0222,18.0664" transform="translate(-0.4305, -0.1610) scale(0.0138)"/><path d="M 0,18.0664 L 0,18.0664 L 6.0222,9.0332 L 0,0 L 0,0 L 4.5166,0 L 4.5166,0 L 10.5388,9.0332 L 4.5166,18.0664 L 0,18.0664 L 0,18.0664 M 6.0222,18.0664 L 6.0222,18.0664 L 12.0444,9.0332 L 6.0222,0 L 6.0222,0 L 10.5388,0 L 22.5830,18.0664 L 22.5830,18.0664 L 18.0664,18.0664 L 18.0664,18.0664 L 14.3027,12.4207 L 10.5388,18.0664 L 6.0222,18.0664 L 6.0222,18.0664" transform="translate(-0.4336, -0.1483) scale(0.0138)"/><path d="M 0,18.0664 L 0,18.0664 L 6.0222,9.0332 L 0,0 L 0,0 L 4.5166,0 L 4.5166,0 L 10.5388,9.0332 L 4.5166,18.0664 L 0,18.0664 L 0,18.0664 M 6.0222,18.0664 L 6.0222,18.0664 L 12.0444,9.0332 L 6.0222,0 L 6.0222,0 L 10.5388,0 L 22.5830,18.0664 L 22.5830,18.0664 L 18.0664,18.0664 L 18.0664,18.0664 L 14.3027,12.4207 L 10.5388,18.0664 L 6.0222,18.0664 L 6.0222,18.0664" transform="translate(-0.4614, -0.2494) scale(0.0138)"/><path d="M 0,18.0664 L 0,18.0664 L 6.0222,9.0332 L 0,0 L 0,0 L 4.5166,0 L 4.5166,0 L 10.5388,9.0332 L 4.5166,18.0664 L 0,18.0664 L 0,18.0664 M 6.0222,18.0664 L 6.0222,18.0664 L 12.0444,9.0332 L 6.0222,0 L 6.0222,0 L 10.5388,0 L 22.5830,18.0664 L 22.5830,18.0664 L 18.0664,18.0664 L 18.0664,18.0664 L 14.3027,12.4207 L 10.5388,18.0664 L 6.0222,18.0664 L 6.0222,18.0664" transform="translate(-0.6241, -0.0928) scale(0.0138)"/><path d="M 0,18.0664 L 0,18.0664 L 6.0222,9.0332 L 0,0 L 0,0 L 4.5166,0 L 4.5166,0 L 10.5388,9.0332 L 4.5166,18.0664 L 0,18.0664 L 0,18.0664 M 6.0222,18.0664 L 6.0222,18.0664 L 12.0444,9.0332 L 6.0222,0 L 6.0222,0 L 10.5388,0 L 22.5830,18.0664 L 22.5830,18.0664 L 18.0664,18.0664 L 18.0664,18.0664 L 14.3027,12.4207 L 10.5388,18.0664 L 6.0222,18.0664 L 6.0222,18.0664" transform="translate(-0.3628, -0.1803) scale(0.0138)"/><path d="M 0,18.0664 L 0,18.0664 L 6.0222,9.0332 L 0,0 L 0,0 L 4.5166,0 L 4.5166,0 L 10.5388,9.0332 L 4.5166,18.0664 L 0,18.0664 L 0,18.0664 M 6.0222,18.0664 L 6.0222,18.0664 L 12.0444,9.0332 L 6.0222,0 L 6.0222,0 L 10.5388,0 L 22.5830,18.0664 L 22.5830,18.0664 L 18.0664,18.0664 L 18.0664,18.0664 L 14.3027,12.4207 L 10.5388,18.0664 L 6.0222,18.0664 L 6.0222,18.0664" transform="translate(-0.3714, -0.2227) scale(0.0138)"/><path d="M 0,18.0664 L 0,18.0664 L 6.0222,9.0332 L 0,0 L 0,0 L 4.5166,0 L 4.5166,0 L 10.5388,9.0332 L 4.5166,18.0664 L 0,18.0664 L 0,18.0664 M 6.0222,18.0664 L 6.0222,18.0664 L 12.0444,9.0332 L 6.0222,0 L 6.0222,0 L 10.5388,0 L 22.5830,18.0664 L 22.5830,18.0664 L 18.0664,18.0664 L 18.0664,18.0664 L 14.3027,12.4207 L 10.5388,18.0664 L 6.0222,18.0664 L 6.0222,18.0664" transform="translate(-0.2572, -0.2736) scale(0.0138)"/><path d="M 0,18.0664 L 0,18.0664 L 6.0222,9.0332 L 0,0 L 0,0 L 4.5166,0 L 4.5166,0 L 10.5388,9.0332 L 4.5166,18.0664 L 0,18.0664 L 0,18.0664 M 6.0222,18.0664 L 6.0222,18.0664 L 12.0444,9.0332 L 6.0222,0 L 6.0222,0 L 10.5388,0 L 22.5830,18.0664 L 22.5830,18.0664 L 18.0664,18.0664 L 18.0664,18.0664 L 14.3027,12.4207 L 10.5388,18.0664 L 6.0222,18.0664 L 6.0222,18.0664" transform="translate(-0.4048, -0.3353) scale(0.0138)"/><path d="M 0,18.0664 L 0,18.0664 L 6.0222,9.0332 L 0,0 L 0,0 L 4.5166,0 L 4.5166,0 L 10.5388,9.0332 L 4.5166,18.0664 L 0,18.0664 L 0,18.0664 M 6.0222,18.0664 L 6.0222,18.0664 L 12.0444,9.0332 L 6.0222,0 L 6.0222,0 L 10.5388,0 L 22.5830,18.0664 L 22.5830,18.0664 L 18.0664,18.0664 L 18.0664,18.0664 L 14.3027,12.4207 L 10.5388,18.0664 L 6.0222,18.0664 L 6.0222,18.0664" transform="translate(-0.4386, -0.0384) scale(0.0138)"/><path d="M 0,18.0664 L 0,18.0664 L 6.0222,9.0332 L 0,0 L 0,0 L 4.5166,0 L 4.5166,0 L 10.5388,9.0332 L 4.5166,18.0664 L 0,18.0664 L 0,18.0664 M 6.0222,18.0664 L 6.0222,18.0664 L 12.0444,9.0332 L 6.0222,0 L 6.0222,0 L 10.5388,0 L 22.5830,18.0664 L 22.5830,18.0664 L 18.0664,18.0664 L 18.0664,18.0664 L 14.3027,12.4207 L 10.5388,18.0664 L 6.0222,18.0664 L 6.0222,18.0664" transform="translate(-0.6241, -0.2755) scale(0.0138)"/><path d="M 0,18.0664 L 0,18.0664 L 6.0222,9.0332 L 0,0 L 0,0 L 4.5166,0 L 4.5166,0 L 10.5388,9.0332 L 4.5166,18.0664 L 0,18.0664 L 0,18.0664 M 6.0222,18.0664 L 6.0222,18.0664 L 12.0444,9.0332 L 6.0222,0 L 6.0222,0 L 10.5388,0 L 22.5830,18.0664 L 22.5830,18.0664 L 18.0664,18.0664 L 18.0664,18.0664 L 14.3027,12.4207 L 10.5388,18.0664 L 6.0222,18.0664 L 6.0222,18.0664" transform="translate(-0.6317, -0.1721) scale(0.0138)"/><path d="M 0,18.0664 L 0,18.0664 L 6.0222,9.0332 L 0,0 L 0,0 L 4.5166,0 L 4.5166,0 L 10.5388,9.0332 L 4.5166,18.0664 L 0,18.0664 L 0,18.0664 M 6.0222,18.0664 L 6.0222,18.0664 L 12.0444,9.0332 L 6.0222,0 L 6.0222,0 L 10.5388,0 L 22.5830,18.0664 L 22.5830,18.0664 L 18.0664,18.0664 L 18.0664,18.0664 L 14.3027,12.4207 L 10.5388,18.0664 L 6.0222,18.0664 L 6.0222,18.0664" transform="translate(-0.5271, -0.2425) scale(0.0138)"/><path d="M 0,18.0664 L 0,18.0664 L 6.0222,9.0332 L 0,0 L 0,0 L 4.5166,0 L 4.5166,0 L 10.5388,9.0332 L 4.5166,18.0664 L 0,18.0664 L 0,18.0664 M 6.0222,18.0664 L 6.0222,18.0664 L 12.0444,9.0332 L 6.0222,0 L 6.0222,0 L 10.5388,0 L 22.5830,18.0664 L 22.5830,18.0664 L 18.0664,18.0664 L 18.0664,18.0664 L 14.3027,12.4207 L 10.5388,18.0664 L 6.0222,18.0664 L 6.0222,18.0664" transform="translate(-0.4305, -0.1713) scale(0.0138)"/><path d="M 0,18.0664 L 0,18.0664 L 6.0222,9.0332 L 0,0 L 0,0 L 4.5166,0 L 4.5166,0 L 10.5388,9.0332 L 4.5166,18.0664 L 0,18.0664 L 0,18.0664 M 6.0222,18.0664 L 6.0222,18.0664 L 12.0444,9.0332 L 6.0222,0 L 6.0222,0 L 10.5388,0 L 22.5830,18.0664 L 22.5830,18.0664 L 18.0664,18.0664 L 18.0664,18.0664 L 14.3027,12.4207 L 10.5388,18.0664 L 6.0222,18.0664 L 6.0222,18.0664" transform="translate(-0.4492, -0.0739) scale(0.0138)"/><path d="M 0,18.0664 L 0,18.0664 L 6.0222,9.0332 L 0,0 L 0,0 L 4.5166,0 L 4.5166,0 L 10.5388,9.0332 L 4.5166,18.0664 L 0,18.0664 L 0,18.0664 M 6.0222,18.0664 L 6.0222,18.0664 L 12.0444,9.0332 L 6.0222,0 L 6.0222,0 L 10.5388,0 L 22.5830,18.0664 L 22.5830,18.0664 L 18.0664,18.0664 L 18.0664,18.0664 L 14.3027,12.4207 L 10.5388,18.0664 L 6.0222,18.0664 L 6.0222,18.0664" transform="translate(-0.3284, -0.2297) scale(0.0138)"/><path d="M 0,18.0664 L 0,18.0664 L 6.0222,9.0332 L 0,0 L 0,0 L 4.5166,0 L 4.5166,0 L 10.5388,9.0332 L 4.5166,18.0664 L 0,18.0664 L 0,18.0664 M 6.0222,18.0664 L 6.0222,18.0664 L 12.0444,9.0332 L 6.0222,0 L 6.0222,0 L 10.5388,0 L 22.5830,18.0664 L 22.5830,18.0664 L 18.0664,18.0664 L 18.0664,18.0664 L 14.3027,12.4207 L 10.5388,18.0664 L 6.0222,18.0664 L 6.0222,18.0664" transform="translate(-0.4563, -0.3763) scale(0.0138)"/><path d="M 0,18.0664 L 0,18.0664 L 6.0222,9.0332 L 0,0 L 0,0 L 4.5166,0 L 4.5166,0 L 10.5388,9.0332 L 4.5166,18.0664 L 0,18.0664 L 0,18.0664 M 6.0222,18.0664 L 6.0222,18.0664 L 12.0444,9.0332 L 6.0222,0 L 6.0222,0 L 10.5388,0 L 22.5830,18.0664 L 22.5830,18.0664 L 18.0664,18.0664 L 18.0664,18.0664 L 14.3027,12.4207 L 10.5388,18.0664 L 6.0222,18.0664 L 6.0222,18.0664" transform="translate(-0.4487, -0.0832) scale(0.0138)"/><path d="M 0,18.0664 L 0,18.0664 L 6.0222,9.0332 L 0,0 L 0,0 L 4.5166,0 L 4.5166,0 L 10.5388,9.0332 L 4.5166,18.0664 L 0,18.0664 L 0,18.0664 M 6.0222,18.0664 L 6.0222,18.0664 L 12.0444,9.0332 L 6.0222,0 L 6.0222,0 L 10.5388,0 L 22.5830,18.0664 L 22.5830,18.0664 L 18.0664,18.0664 L 18.0664,18.0664 L 14.3027,12.4207 L 10.5388,18.0664 L 6.0222,18.0664 L 6.0222,18.0664" transform="translate(-0.4972, -0.2084) scale(0.0138)"/><path d="M 0,18.0664 L 0,18.0664 L 6.0222,9.0332 L 0,0 L 0,0 L 4.5166,0 L 4.5166,0 L 10.5388,9.0332 L 4.5166,18.0664 L 0,18.0664 L 0,18.0664 M 6.0222,18.0664 L 6.0222,18.0664 L 12.0444,9.0332 L 6.0222,0 L 6.0222,0 L 10.5388,0 L 22.5830,18.0664 L 22.5830,18.0664 L 18.0664,18.0664 L 18.0664,18.0664 L 14.3027,12.4207 L 10.5388,18.0664 L 6.0222,18.0664 L 6.0222,18.0664" transform="translate(-0.4866, -0.2862) scale(0.0138)"/><path d="M 0,18.0664 L 0,18.0664 L 6.0222,9.0332 L 0,0 L 0,0 L 4.5166,0 L 4.5166,0 L 10.5388,9.0332 L 4.5166,18.0664 L 0,18.0664 L 0,18.0664 M 6.0222,18.0664 L 6.0222,18.0664 L 12.0444,9.0332 L 6.0222,0 L 6.0222,0 L 10.5388,0 L 22.5830,18.0664 L 22.5830,18.0664 L 18.0664,18.0664 L 18.0664,18.0664 L 14.3027,12.4207 L 10.5388,18.0664 L 6.0222,18.0664 L 6.0222,18.0664" transform="translate(-0.5033, -0.0868) scale(0.0138)"/><path d="M 0,18.0664 L 0,18.0664 L 6.0222,9.0332 L 0,0 L 0,0 L 4.5166,0 L 4.5166,0 L 10.5388,9.0332 L 4.5166,18.0664 L 0,18.0664 L 0,18.0664 M 6.0222,18.0664 L 6.0222,18.0664 L 12.0444,9.0332 L 6.0222,0 L 6.0222,0 L 10.5388,0 L 22.5830,18.0664 L 22.5830,18.0664 L 18.0664,18.0664 L 18.0664,18.0664 L 14.3027,12.4207 L 10.5388,18.0664 L 6.0222,18.0664 L 6.0222,18.0664" transform="translate(-0.4320, 0.0448) scale(0.0138)"/><path d="M 0,18.0664 L 0,18.0664 L 6.0222,9.0332 L 0,0 L 0,0 L 4.5166,0 L 4.5166,0 L 10.5388,9.0332 L 4.5166,18.0664 L 0,18.0664 L 0,18.0664 M 6.0222,18.0664 L 6.0222,18.0664 L 12.0444,9.0332 L 6.0222,0 L 6.0222,0 L 10.5388,0 L 22.5830,18.0664 L 22.5830,18.0664 L 18.0664,18.0664 L 18.0664,18.0664 L 14.3027,12.4207 L 10.5388,18.0664 L 6.0222,18.0664 L 6.0222,18.0664" transform="translate(-0.4411, -0.2114) scale(0.0138)"/><path d="M 0,18.0664 L 0,18.0664 L 6.0222,9.0332 L 0,0 L 0,0 L 4.5166,0 L 4.5166,0 L 10.5388,9.0332 L 4.5166,18.0664 L 0,18.0664 L 0,18.0664 M 6.0222,18.0664 L 6.0222,18.0664 L 12.0444,9.0332 L 6.0222,0 L 6.0222,0 L 10.5388,0 L 22.5830,18.0664 L 22.5830,18.0664 L 18.0664,18.0664 L 18.0664,18.0664 L 14.3027,12.4207 L 10.5388,18.0664 L 6.0222,18.0664 L 6.0222,18.0664" transform="translate(-0.3684, -0.1437) scale(0.0138)"/><path d="M 0,18.0664 L 0,18.0664 L 6.0222,9.0332 L 0,0 L 0,0 L 4.5166,0 L 4.5166,0 L 10.5388,9.0332 L 4.5166,18.0664 L 0,18.0664 L 0,18.0664 M 6.0222,18.0664 L 6.0222,18.0664 L 12.0444,9.0332 L 6.0222,0 L 6.0222,0 L 10.5388,0 L 22.5830,18.0664 L 22.5830,18.0664 L 18.0664,18.0664 L 18.0664,18.0664 L 14.3027,12.4207 L 10.5388,18.0664 L 6.0222,18.0664 L 6.0222,18.0664" transform="translate(-0.4361, -0.1306) scale(0.0138)"/><path d="M 0,18.0664 L 0,18.0664 L 6.0222,9.0332 L 0,0 L 0,0 L 4.5166,0 L 4.5166,0 L 10.5388,9.0332 L 4.5166,18.0664 L 0,18.0664 L 0,18.0664 M 6.0222,18.0664 L 6.0222,18.0664 L 12.0444,9.0332 L 6.0222,0 L 6.0222,0 L 10.5388,0 L 22.5830,18.0664 L 22.5830,18.0664 L 18.0664,18.0664 L 18.0664,18.0664 L 14.3027,12.4207 L 10.5388,18.0664 L 6.0222,18.0664 L 6.0222,18.0664" transform="translate(-0.4538, -0.0747) scale(0.0138)"/><path d="M 0,18.0664 L 0,18.0664 L 6.0222,9.0332 L 0,0 L 0,0 L 4.5166,0 L 4.5166,0 L 10.5388,9.0332 L 4.5166,18.0664 L 0,18.0664 L 0,18.0664 M 6.0222,18.0664 L 6.0222,18.0664 L 12.0444,9.0332 L 6.0222,0 L 6.0222,0 L 10.5388,0 L 22.5830,18.0664 L 22.5830,18.0664 L 18.0664,18.0664 L 18.0664,18.0664 L 14.3027,12.4207 L 10.5388,18.0664 L 6.0222,18.0664 L 6.0222,18.0664" transform="translate(-0.1637, 0.0643) scale(0.0138)"/><path d="M 0,18.0664 L 0,18.0664 L 6.0222,9.0332 L 0,0 L 0,0 L 4.5166,0 L 4.5166,0 L 10.5388,9.0332 L 4.5166,18.0664 L 0,18.0664 L 0,18.0664 M 6.0222,18.0664 L 6.0222,18.0664 L 12.0444,9.0332 L 6.0222,0 L 6.0222,0 L 10.5388,0 L 22.5830,18.0664 L 22.5830,18.0664 L 18.0664,18.0664 L 18.0664,18.0664 L 14.3027,12.4207 L 10.5388,18.0664 L 6.0222,18.0664 L 6.0222,18.0664" transform="translate(-0.4624, -0.2271) scale(0.0138)"/><path d="M 0,18.0664 L 0,18.0664 L 6.0222,9.0332 L 0,0 L 0,0 L 4.5166,0 L 4.5166,0 L 10.5388,9.0332 L 4.5166,18.0664 L 0,18.0664 L 0,18.0664 M 6.0222,18.0664 L 6.0222,18.0664 L 12.0444,9.0332 L 6.0222,0 L 6.0222,0 L 10.5388,0 L 22.5830,18.0664 L 22.5830,18.0664 L 18.0664,18.0664 L 18.0664,18.0664 L 14.3027,12.4207 L 10.5388,18.0664 L 6.0222,18.0664 L 6.0222,18.0664" transform="translate(-0.4816, -0.2516) scale(0.0138)"/><path d="M 0,18.0664 L 0,18.0664 L 6.0222,9.0332 L 0,0 L 0,0 L 4.5166,0 L 4.5166,0 L 10.5388,9.0332 L 4.5166,18.0664 L 0,18.0664 L 0,18.0664 M 6.0222,18.0664 L 6.0222,18.0664 L 12.0444,9.0332 L 6.0222,0 L 6.0222,0 L 10.5388,0 L 22.5830,18.0664 L 22.5830,18.0664 L 18.0664,18.0664 L 18.0664,18.0664 L 14.3027,12.4207 L 10.5388,18.0664 L 6.0222,18.0664 L 6.0222,18.0664" transform="translate(-0.2830, -0.1246) scale(0.0138)"/><path d="M 0,18.0664 L 0,18.0664 L 6.0222,9.0332 L 0,0 L 0,0 L 4.5166,0 L 4.5166,0 L 10.5388,9.0332 L 4.5166,18.0664 L 0,18.0664 L 0,18.0664 M 6.0222,18.0664 L 6.0222,18.0664 L 12.0444,9.0332 L 6.0222,0 L 6.0222,0 L 10.5388,0 L 22.5830,18.0664 L 22.5830,18.0664 L 18.0664,18.0664 L 18.0664,18.0664 L 14.3027,12.4207 L 10.5388,18.0664 L 6.0222,18.0664 L 6.0222,18.0664" transform="translate(-0.3193, -0.0345) scale(0.0138)"/><path d="M 0,18.0664 L 0,18.0664 L 6.0222,9.0332 L 0,0 L 0,0 L 4.5166,0 L 4.5166,0 L 10.5388,9.0332 L 4.5166,18.0664 L 0,18.0664 L 0,18.0664 M 6.0222,18.0664 L 6.0222,18.0664 L 12.0444,9.0332 L 6.0222,0 L 6.0222,0 L 10.5388,0 L 22.5830,18.0664 L 22.5830,18.0664 L 18.0664,18.0664 L 18.0664,18.0664 L 14.3027,12.4207 L 10.5388,18.0664 L 6.0222,18.0664 L 6.0222,18.0664" transform="translate(-0.4305, -0.4096) scale(0.0138)"/><path d="M 0,18.0664 L 0,18.0664 L 6.0222,9.0332 L 0,0 L 0,0 L 4.5166,0 L 4.5166,0 L 10.5388,9.0332 L 4.5166,18.0664 L 0,18.0664 L 0,18.0664 M 6.0222,18.0664 L 6.0222,18.0664 L 12.0444,9.0332 L 6.0222,0 L 6.0222,0 L 10.5388,0 L 22.5830,18.0664 L 22.5830,18.0664 L 18.0664,18.0664 L 18.0664,18.0664 L 14.3027,12.4207 L 10.5388,18.0664 L 6.0222,18.0664 L 6.0222,18.0664" transform="translate(-0.3901, -0.2183) scale(0.0138)"/><path d="M 0,18.0664 L 0,18.0664 L 6.0222,9.0332 L 0,0 L 0,0 L 4.5166,0 L 4.5166,0 L 10.5388,9.0332 L 4.5166,18.0664 L 0,18.0664 L 0,18.0664 M 6.0222,18.0664 L 6.0222,18.0664 L 12.0444,9.0332 L 6.0222,0 L 6.0222,0 L 10.5388,0 L 22.5830,18.0664 L 22.5830,18.0664 L 18.0664,18.0664 L 18.0664,18.0664 L 14.3027,12.4207 L 10.5388,18.0664 L 6.0222,18.0664 L 6.0222,18.0664" transform="translate(-0.5003, -0.1662) scale(0.0138)"/><path d="M 0,18.0664 L 0,18.0664 L 6.0222,9.0332 L 0,0 L 0,0 L 4.5166,0 L 4.5166,0 L 10.5388,9.0332 L 4.5166,18.0664 L 0,18.0664 L 0,18.0664 M 6.0222,18.0664 L 6.0222,18.0664 L 12.0444,9.0332 L 6.0222,0 L 6.0222,0 L 10.5388,0 L 22.5830,18.0664 L 22.5830,18.0664 L 18.0664,18.0664 L 18.0664,18.0664 L 14.3027,12.4207 L 10.5388,18.0664 L 6.0222,18.0664 L 6.0222,18.0664" transform="translate(-0.4416, -0.0546) scale(0.0138)"/><path d="M 0,18.0664 L 0,18.0664 L 6.0222,9.0332 L 0,0 L 0,0 L 4.5166,0 L 4.5166,0 L 10.5388,9.0332 L 4.5166,18.0664 L 0,18.0664 L 0,18.0664 M 6.0222,18.0664 L 6.0222,18.0664 L 12.0444,9.0332 L 6.0222,0 L 6.0222,0 L 10.5388,0 L 22.5830,18.0664 L 22.5830,18.0664 L 18.0664,18.0664 L 18.0664,18.0664 L 14.3027,12.4207 L 10.5388,18.0664 L 6.0222,18.0664 L 6.0222,18.0664" transform="translate(-0.1601, -0.0120) scale(0.0138)"/><path d="M 0,18.0664 L 0,18.0664 L 6.0222,9.0332 L 0,0 L 0,0 L 4.5166,0 L 4.5166,0 L 10.5388,9.0332 L 4.5166,18.0664 L 0,18.0664 L 0,18.0664 M 6.0222,18.0664 L 6.0222,18.0664 L 12.0444,9.0332 L 6.0222,0 L 6.0222,0 L 10.5388,0 L 22.5830,18.0664 L 22.5830,18.0664 L 18.0664,18.0664 L 18.0664,18.0664 L 14.3027,12.4207 L 10.5388,18.0664 L 6.0222,18.0664 L 6.0222,18.0664" transform="translate(-0.5604, -0.1409) scale(0.0138)"/><path d="M 0,18.0664 L 0,18.0664 L 6.0222,9.0332 L 0,0 L 0,0 L 4.5166,0 L 4.5166,0 L 10.5388,9.0332 L 4.5166,18.0664 L 0,18.0664 L 0,18.0664 M 6.0222,18.0664 L 6.0222,18.0664 L 12.0444,9.0332 L 6.0222,0 L 6.0222,0 L 10.5388,0 L 22.5830,18.0664 L 22.5830,18.0664 L 18.0664,18.0664 L 18.0664,18.0664 L 14.3027,12.4207 L 10.5388,18.0664 L 6.0222,18.0664 L 6.0222,18.0664" transform="translate(-0.3492, -0.0446) scale(0.0138)"/><path d="M 0,18.0664 L 0,18.0664 L 6.0222,9.0332 L 0,0 L 0,0 L 4.5166,0 L 4.5166,0 L 10.5388,9.0332 L 4.5166,18.0664 L 0,18.0664 L 0,18.0664 M 6.0222,18.0664 L 6.0222,18.0664 L 12.0444,9.0332 L 6.0222,0 L 6.0222,0 L 10.5388,0 L 22.5830,18.0664 L 22.5830,18.0664 L 18.0664,18.0664 L 18.0664,18.0664 L 14.3027,12.4207 L 10.5388,18.0664 L 6.0222,18.0664 L 6.0222,18.0664" transform="translate(-0.6049, -0.0038) scale(0.0138)"/><path d="M 0,18.0664 L 0,18.0664 L 6.0222,9.0332 L 0,0 L 0,0 L 4.5166,0 L 4.5166,0 L 10.5388,9.0332 L 4.5166,18.0664 L 0,18.0664 L 0,18.0664 M 6.0222,18.0664 L 6.0222,18.0664 L 12.0444,9.0332 L 6.0222,0 L 6.0222,0 L 10.5388,0 L 22.5830,18.0664 L 22.5830,18.0664 L 18.0664,18.0664 L 18.0664,18.0664 L 14.3027,12.4207 L 10.5388,18.0664 L 6.0222,18.0664 L 6.0222,18.0664" transform="translate(-0.3926, -0.0154) scale(0.0138)"/><path d="M 0,18.0664 L 0,18.0664 L 6.0222,9.0332 L 0,0 L 0,0 L 4.5166,0 L 4.5166,0 L 10.5388,9.0332 L 4.5166,18.0664 L 0,18.0664 L 0,18.0664 M 6.0222,18.0664 L 6.0222,18.0664 L 12.0444,9.0332 L 6.0222,0 L 6.0222,0 L 10.5388,0 L 22.5830,18.0664 L 22.5830,18.0664 L 18.0664,18.0664 L 18.0664,18.0664 L 14.3027,12.4207 L 10.5388,18.0664 L 6.0222,18.0664 L 6.0222,18.0664" transform="translate(-0.4017, -0.3625) scale(0.0138)"/><path d="M 0,18.0664 L 0,18.0664 L 6.0222,9.0332 L 0,0 L 0,0 L 4.5166,0 L 4.5166,0 L 10.5388,9.0332 L 4.5166,18.0664 L 0,18.0664 L 0,18.0664 M 6.0222,18.0664 L 6.0222,18.0664 L 12.0444,9.0332 L 6.0222,0 L 6.0222,0 L 10.5388,0 L 22.5830,18.0664 L 22.5830,18.0664 L 18.0664,18.0664 L 18.0664,18.0664 L 14.3027,12.4207 L 10.5388,18.0664 L 6.0222,18.0664 L 6.0222,18.0664" transform="translate(-0.4614, -0.2322) scale(0.0138)"/><path d="M 0,18.0664 L 0,18.0664 L 6.0222,9.0332 L 0,0 L 0,0 L 4.5166,0 L 4.5166,0 L 10.5388,9.0332 L 4.5166,18.0664 L 0,18.0664 L 0,18.0664 M 6.0222,18.0664 L 6.0222,18.0664 L 12.0444,9.0332 L 6.0222,0 L 6.0222,0 L 10.5388,0 L 22.5830,18.0664 L 22.5830,18.0664 L 18.0664,18.0664 L 18.0664,18.0664 L 14.3027,12.4207 L 10.5388,18.0664 L 6.0222,18.0664 L 6.0222,18.0664" transform="translate(-0.3178, -0.1097) scale(0.0138)"/><path d="M 0,18.0664 L 0,18.0664 L 6.0222,9.0332 L 0,0 L 0,0 L 4.5166,0 L 4.5166,0 L 10.5388,9.0332 L 4.5166,18.0664 L 0,18.0664 L 0,18.0664 M 6.0222,18.0664 L 6.0222,18.0664 L 12.0444,9.0332 L 6.0222,0 L 6.0222,0 L 10.5388,0 L 22.5830,18.0664 L 22.5830,18.0664 L 18.0664,18.0664 L 18.0664,18.0664 L 14.3027,12.4207 L 10.5388,18.0664 L 6.0222,18.0664 L 6.0222,18.0664" transform="translate(-0.3921, -0.1925) scale(0.0138)"/><path d="M 0,18.0664 L 0,18.0664 L 6.0222,9.0332 L 0,0 L 0,0 L 4.5166,0 L 4.5166,0 L 10.5388,9.0332 L 4.5166,18.0664 L 0,18.0664 L 0,18.0664 M 6.0222,18.0664 L 6.0222,18.0664 L 12.0444,9.0332 L 6.0222,0 L 6.0222,0 L 10.5388,0 L 22.5830,18.0664 L 22.5830,18.0664 L 18.0664,18.0664 L 18.0664,18.0664 L 14.3027,12.4207 L 10.5388,18.0664 L 6.0222,18.0664 L 6.0222,18.0664" transform="translate(-0.4144, -0.1134) scale(0.0138)"/><path d="M 0,18.0664 L 0,18.0664 L 6.0222,9.0332 L 0,0 L 0,0 L 4.5166,0 L 4.5166,0 L 10.5388,9.0332 L 4.5166,18.0664 L 0,18.0664 L 0,18.0664 M 6.0222,18.0664 L 6.0222,18.0664 L 12.0444,9.0332 L 6.0222,0 L 6.0222,0 L 10.5388,0 L 22.5830,18.0664 L 22.5830,18.0664 L 18.0664,18.0664 L 18.0664,18.0664 L 14.3027,12.4207 L 10.5388,18.0664 L 6.0222,18.0664 L 6.0222,18.0664" transform="translate(-0.3800, -0.2651) scale(0.0138)"/><path d="M 0,18.0664 L 0,18.0664 L 6.0222,9.0332 L 0,0 L 0,0 L 4.5166,0 L 4.5166,0 L 10.5388,9.0332 L 4.5166,18.0664 L 0,18.0664 L 0,18.0664 M 6.0222,18.0664 L 6.0222,18.0664 L 12.0444,9.0332 L 6.0222,0 L 6.0222,0 L 10.5388,0 L 22.5830,18.0664 L 22.5830,18.0664 L 18.0664,18.0664 L 18.0664,18.0664 L 14.3027,12.4207 L 10.5388,18.0664 L 6.0222,18.0664 L 6.0222,18.0664" transform="translate(-0.5215, -0.1262) scale(0.0138)"/><path d="M 0,18.0664 L 0,18.0664 L 6.0222,9.0332 L 0,0 L 0,0 L 4.5166,0 L 4.5166,0 L 10.5388,9.0332 L 4.5166,18.0664 L 0,18.0664 L 0,18.0664 M 6.0222,18.0664 L 6.0222,18.0664 L 12.0444,9.0332 L 6.0222,0 L 6.0222,0 L 10.5388,0 L 22.5830,18.0664 L 22.5830,18.0664 L 18.0664,18.0664 L 18.0664,18.0664 L 14.3027,12.4207 L 10.5388,18.0664 L 6.0222,18.0664 L 6.0222,18.0664" transform="translate(-0.3289, -0.2015) scale(0.0138)"/><path d="M 0,18.0664 L 0,18.0664 L 6.0222,9.0332 L 0,0 L 0,0 L 4.5166,0 L 4.5166,0 L 10.5388,9.0332 L 4.5166,18.0664 L 0,18.0664 L 0,18.0664 M 6.0222,18.0664 L 6.0222,18.0664 L 12.0444,9.0332 L 6.0222,0 L 6.0222,0 L 10.5388,0 L 22.5830,18.0664 L 22.5830,18.0664 L 18.0664,18.0664 L 18.0664,18.0664 L 14.3027,12.4207 L 10.5388,18.0664 L 6.0222,18.0664 L 6.0222,18.0664" transform="translate(-0.3118, -0.0762) scale(0.0138)"/><path d="M 0,18.0664 L 0,18.0664 L 6.0222,9.0332 L 0,0 L 0,0 L 4.5166,0 L 4.5166,0 L 10.5388,9.0332 L 4.5166,18.0664 L 0,18.0664 L 0,18.0664 M 6.0222,18.0664 L 6.0222,18.0664 L 12.0444,9.0332 L 6.0222,0 L 6.0222,0 L 10.5388,0 L 22.5830,18.0664 L 22.5830,18.0664 L 18.0664,18.0664 L 18.0664,18.0664 L 14.3027,12.4207 L 10.5388,18.0664 L 6.0222,18.0664 L 6.0222,18.0664" transform="translate(-0.5205, -0.4069) scale(0.0138)"/><path d="M 0,18.0664 L 0,18.0664 L 6.0222,9.0332 L 0,0 L 0,0 L 4.5166,0 L 4.5166,0 L 10.5388,9.0332 L 4.5166,18.0664 L 0,18.0664 L 0,18.0664 M 6.0222,18.0664 L 6.0222,18.0664 L 12.0444,9.0332 L 6.0222,0 L 6.0222,0 L 10.5388,0 L 22.5830,18.0664 L 22.5830,18.0664 L 18.0664,18.0664 L 18.0664,18.0664 L 14.3027,12.4207 L 10.5388,18.0664 L 6.0222,18.0664 L 6.0222,18.0664" transform="translate(-0.3537, -0.2967) scale(0.0138)"/><path d="M 0,18.0664 L 0,18.0664 L 6.0222,9.0332 L 0,0 L 0,0 L 4.5166,0 L 4.5166,0 L 10.5388,9.0332 L 4.5166,18.0664 L 0,18.0664 L 0,18.0664 M 6.0222,18.0664 L 6.0222,18.0664 L 12.0444,9.0332 L 6.0222,0 L 6.0222,0 L 10.5388,0 L 22.5830,18.0664 L 22.5830,18.0664 L 18.0664,18.0664 L 18.0664,18.0664 L 14.3027,12.4207 L 10.5388,18.0664 L 6.0222,18.0664 L 6.0222,18.0664" transform="translate(-0.6140, -0.1469) scale(0.0138)"/><path d="M 0,18.0664 L 0,18.0664 L 6.0222,9.0332 L 0,0 L 0,0 L 4.5166,0 L 4.5166,0 L 10.5388,9.0332 L 4.5166,18.0664 L 0,18.0664 L 0,18.0664 M 6.0222,18.0664 L 6.0222,18.0664 L 12.0444,9.0332 L 6.0222,0 L 6.0222,0 L 10.5388,0 L 22.5830,18.0664 L 22.5830,18.0664 L 18.0664,18.0664 L 18.0664,18.0664 L 14.3027,12.4207 L 10.5388,18.0664 L 6.0222,18.0664 L 6.0222,18.0664" transform="translate(-0.3512, -0.0670) scale(0.0138)"/><path d="M 0,18.0664 L 0,18.0664 L 6.0222,9.0332 L 0,0 L 0,0 L 4.5166,0 L 4.5166,0 L 10.5388,9.0332 L 4.5166,18.0664 L 0,18.0664 L 0,18.0664 M 6.0222,18.0664 L 6.0222,18.0664 L 12.0444,9.0332 L 6.0222,0 L 6.0222,0 L 10.5388,0 L 22.5830,18.0664 L 22.5830,18.0664 L 18.0664,18.0664 L 18.0664,18.0664 L 14.3027,12.4207 L 10.5388,18.0664 L 6.0222,18.0664 L 6.0222,18.0664" transform="translate(-0.4032, -0.1581) scale(0.0138)"/><path d="M 0,18.0664 L 0,18.0664 L 6.0222,9.0332 L 0,0 L 0,0 L 4.5166,0 L 4.5166,0 L 10.5388,9.0332 L 4.5166,18.0664 L 0,18.0664 L 0,18.0664 M 6.0222,18.0664 L 6.0222,18.0664 L 12.0444,9.0332 L 6.0222,0 L 6.0222,0 L 10.5388,0 L 22.5830,18.0664 L 22.5830,18.0664 L 18.0664,18.0664 L 18.0664,18.0664 L 14.3027,12.4207 L 10.5388,18.0664 L 6.0222,18.0664 L 6.0222,18.0664" transform="translate(-0.6170, -0.1402) scale(0.0138)"/><path d="M 0,18.0664 L 0,18.0664 L 6.0222,9.0332 L 0,0 L 0,0 L 4.5166,0 L 4.5166,0 L 10.5388,9.0332 L 4.5166,18.0664 L 0,18.0664 L 0,18.0664 M 6.0222,18.0664 L 6.0222,18.0664 L 12.0444,9.0332 L 6.0222,0 L 6.0222,0 L 10.5388,0 L 22.5830,18.0664 L 22.5830,18.0664 L 18.0664,18.0664 L 18.0664,18.0664 L 14.3027,12.4207 L 10.5388,18.0664 L 6.0222,18.0664 L 6.0222,18.0664" transform="translate(-0.3765, -0.0980) scale(0.0138)"/><path d="M 0,18.0664 L 0,18.0664 L 6.0222,9.0332 L 0,0 L 0,0 L 4.5166,0 L 4.5166,0 L 10.5388,9.0332 L 4.5166,18.0664 L 0,18.0664 L 0,18.0664 M 6.0222,18.0664 L 6.0222,18.0664 L 12.0444,9.0332 L 6.0222,0 L 6.0222,0 L 10.5388,0 L 22.5830,18.0664 L 22.5830,18.0664 L 18.0664,18.0664 L 18.0664,18.0664 L 14.3027,12.4207 L 10.5388,18.0664 L 6.0222,18.0664 L 6.0222,18.0664" transform="translate(-0.4432, -0.1454) scale(0.0138)"/><path d="M 0,18.0664 L 0,18.0664 L 6.0222,9.0332 L 0,0 L 0,0 L 4.5166,0 L 4.5166,0 L 10.5388,9.0332 L 4.5166,18.0664 L 0,18.0664 L 0,18.0664 M 6.0222,18.0664 L 6.0222,18.0664 L 12.0444,9.0332 L 6.0222,0 L 6.0222,0 L 10.5388,0 L 22.5830,18.0664 L 22.5830,18.0664 L 18.0664,18.0664 L 18.0664,18.0664 L 14.3027,12.4207 L 10.5388,18.0664 L 6.0222,18.0664 L 6.0222,18.0664" transform="translate(-0.3780, -0.1020) scale(0.0138)"/><path d="M 0,18.0664 L 0,18.0664 L 6.0222,9.0332 L 0,0 L 0,0 L 4.5166,0 L 4.5166,0 L 10.5388,9.0332 L 4.5166,18.0664 L 0,18.0664 L 0,18.0664 M 6.0222,18.0664 L 6.0222,18.0664 L 12.0444,9.0332 L 6.0222,0 L 6.0222,0 L 10.5388,0 L 22.5830,18.0664 L 22.5830,18.0664 L 18.0664,18.0664 L 18.0664,18.0664 L 14.3027,12.4207 L 10.5388,18.0664 L 6.0222,18.0664 L 6.0222,18.0664" transform="translate(-0.5887, -0.2366) scale(0.0138)"/><path d="M 0,18.0664 L 0,18.0664 L 6.0222,9.0332 L 0,0 L 0,0 L 4.5166,0 L 4.5166,0 L 10.5388,9.0332 L 4.5166,18.0664 L 0,18.0664 L 0,18.0664 M 6.0222,18.0664 L 6.0222,18.0664 L 12.0444,9.0332 L 6.0222,0 L 6.0222,0 L 10.5388,0 L 22.5830,18.0664 L 22.5830,18.0664 L 18.0664,18.0664 L 18.0664,18.0664 L 14.3027,12.4207 L 10.5388,18.0664 L 6.0222,18.0664 L 6.0222,18.0664" transform="translate(-0.4462, -0.1022) scale(0.0138)"/><path d="M 0,18.0664 L 0,18.0664 L 6.0222,9.0332 L 0,0 L 0,0 L 4.5166,0 L 4.5166,0 L 10.5388,9.0332 L 4.5166,18.0664 L 0,18.0664 L 0,18.0664 M 6.0222,18.0664 L 6.0222,18.0664 L 12.0444,9.0332 L 6.0222,0 L 6.0222,0 L 10.5388,0 L 22.5830,18.0664 L 22.5830,18.0664 L 18.0664,18.0664 L 18.0664,18.0664 L 14.3027,12.4207 L 10.5388,18.0664 L 6.0222,18.0664 L 6.0222,18.0664" transform="translate(-0.4644, 0.0866) scale(0.0138)"/><path d="M 0,18.0664 L 0,18.0664 L 6.0222,9.0332 L 0,0 L 0,0 L 4.5166,0 L 4.5166,0 L 10.5388,9.0332 L 4.5166,18.0664 L 0,18.0664 L 0,18.0664 M 6.0222,18.0664 L 6.0222,18.0664 L 12.0444,9.0332 L 6.0222,0 L 6.0222,0 L 10.5388,0 L 22.5830,18.0664 L 22.5830,18.0664 L 18.0664,18.0664 L 18.0664,18.0664 L 14.3027,12.4207 L 10.5388,18.0664 L 6.0222,18.0664 L 6.0222,18.0664" transform="translate(-0.1915, -0.1878) scale(0.0138)"/><path d="M 0,18.0664 L 0,18.0664 L 6.0222,9.0332 L 0,0 L 0,0 L 4.5166,0 L 4.5166,0 L 10.5388,9.0332 L 4.5166,18.0664 L 0,18.0664 L 0,18.0664 M 6.0222,18.0664 L 6.0222,18.0664 L 12.0444,9.0332 L 6.0222,0 L 6.0222,0 L 10.5388,0 L 22.5830,18.0664 L 22.5830,18.0664 L 18.0664,18.0664 L 18.0664,18.0664 L 14.3027,12.4207 L 10.5388,18.0664 L 6.0222,18.0664 L 6.0222,18.0664" transform="translate(-0.6216, -0.1855) scale(0.0138)"/><path d="M 0,18.0664 L 0,18.0664 L 6.0222,9.0332 L 0,0 L 0,0 L 4.5166,0 L 4.5166,0 L 10.5388,9.0332 L 4.5166,18.0664 L 0,18.0664 L 0,18.0664 M 6.0222,18.0664 L 6.0222,18.0664 L 12.0444,9.0332 L 6.0222,0 L 6.0222,0 L 10.5388,0 L 22.5830,18.0664 L 22.5830,18.0664 L 18.0664,18.0664 L 18.0664,18.0664 L 14.3027,12.4207 L 10.5388,18.0664 L 6.0222,18.0664 L 6.0222,18.0664" transform="translate(-0.3567, -0.3552) scale(0.0138)"/><path d="M 0,18.0664 L 0,18.0664 L 6.0222,9.0332 L 0,0 L 0,0 L 4.5166,0 L 4.5166,0 L 10.5388,9.0332 L 4.5166,18.0664 L 0,18.0664 L 0,18.0664 M 6.0222,18.0664 L 6.0222,18.0664 L 12.0444,9.0332 L 6.0222,0 L 6.0222,0 L 10.5388,0 L 22.5830,18.0664 L 22.5830,18.0664 L 18.0664,18.0664 L 18.0664,18.0664 L 14.3027,12.4207 L 10.5388,18.0664 L 6.0222,18.0664 L 6.0222,18.0664" transform="translate(-0.4204, -0.2205) scale(0.0138)"/><path d="M 0,18.0664 L 0,18.0664 L 6.0222,9.0332 L 0,0 L 0,0 L 4.5166,0 L 4.5166,0 L 10.5388,9.0332 L 4.5166,18.0664 L 0,18.0664 L 0,18.0664 M 6.0222,18.0664 L 6.0222,18.0664 L 12.0444,9.0332 L 6.0222,0 L 6.0222,0 L 10.5388,0 L 22.5830,18.0664 L 22.5830,18.0664 L 18.0664,18.0664 L 18.0664,18.0664 L 14.3027,12.4207 L 10.5388,18.0664 L 6.0222,18.0664 L 6.0222,18.0664" transform="translate(-0.5382, -0.0533) scale(0.0138)"/><path d="M 0,18.0664 L 0,18.0664 L 6.0222,9.0332 L 0,0 L 0,0 L 4.5166,0 L 4.5166,0 L 10.5388,9.0332 L 4.5166,18.0664 L 0,18.0664 L 0,18.0664 M 6.0222,18.0664 L 6.0222,18.0664 L 12.0444,9.0332 L 6.0222,0 L 6.0222,0 L 10.5388,0 L 22.5830,18.0664 L 22.5830,18.0664 L 18.0664,18.0664 L 18.0664,18.0664 L 14.3027,12.4207 L 10.5388,18.0664 L 6.0222,18.0664 L 6.0222,18.0664" transform="translate(-0.3911, -0.2857) scale(0.0138)"/><path d="M 0,18.0664 L 0,18.0664 L 6.0222,9.0332 L 0,0 L 0,0 L 4.5166,0 L 4.5166,0 L 10.5388,9.0332 L 4.5166,18.0664 L 0,18.0664 L 0,18.0664 M 6.0222,18.0664 L 6.0222,18.0664 L 12.0444,9.0332 L 6.0222,0 L 6.0222,0 L 10.5388,0 L 22.5830,18.0664 L 22.5830,18.0664 L 18.0664,18.0664 L 18.0664,18.0664 L 14.3027,12.4207 L 10.5388,18.0664 L 6.0222,18.0664 L 6.0222,18.0664" transform="translate(-0.2996, -0.1684) scale(0.0138)"/><path d="M 0,18.0664 L 0,18.0664 L 6.0222,9.0332 L 0,0 L 0,0 L 4.5166,0 L 4.5166,0 L 10.5388,9.0332 L 4.5166,18.0664 L 0,18.0664 L 0,18.0664 M 6.0222,18.0664 L 6.0222,18.0664 L 12.0444,9.0332 L 6.0222,0 L 6.0222,0 L 10.5388,0 L 22.5830,18.0664 L 22.5830,18.0664 L 18.0664,18.0664 L 18.0664,18.0664 L 14.3027,12.4207 L 10.5388,18.0664 L 6.0222,18.0664 L 6.0222,18.0664" transform="translate(-0.4027, 0.1160) scale(0.0138)"/><path d="M 0,18.0664 L 0,18.0664 L 6.0222,9.0332 L 0,0 L 0,0 L 4.5166,0 L 4.5166,0 L 10.5388,9.0332 L 4.5166,18.0664 L 0,18.0664 L 0,18.0664 M 6.0222,18.0664 L 6.0222,18.0664 L 12.0444,9.0332 L 6.0222,0 L 6.0222,0 L 10.5388,0 L 22.5830,18.0664 L 22.5830,18.0664 L 18.0664,18.0664 L 18.0664,18.0664 L 14.3027,12.4207 L 10.5388,18.0664 L 6.0222,18.0664 L 6.0222,18.0664" transform="translate(-0.3168, 0.0772) scale(0.0138)"/><path d="M 0,18.0664 L 0,18.0664 L 6.0222,9.0332 L 0,0 L 0,0 L 4.5166,0 L 4.5166,0 L 10.5388,9.0332 L 4.5166,18.0664 L 0,18.0664 L 0,18.0664 M 6.0222,18.0664 L 6.0222,18.0664 L 12.0444,9.0332 L 6.0222,0 L 6.0222,0 L 10.5388,0 L 22.5830,18.0664 L 22.5830,18.0664 L 18.0664,18.0664 L 18.0664,18.0664 L 14.3027,12.4207 L 10.5388,18.0664 L 6.0222,18.0664 L 6.0222,18.0664" transform="translate(-0.3001, -0.2163) scale(0.0138)"/><path d="M 0,18.0664 L 0,18.0664 L 6.0222,9.0332 L 0,0 L 0,0 L 4.5166,0 L 4.5166,0 L 10.5388,9.0332 L 4.5166,18.0664 L 0,18.0664 L 0,18.0664 M 6.0222,18.0664 L 6.0222,18.0664 L 12.0444,9.0332 L 6.0222,0 L 6.0222,0 L 10.5388,0 L 22.5830,18.0664 L 22.5830,18.0664 L 18.0664,18.0664 L 18.0664,18.0664 L 14.3027,12.4207 L 10.5388,18.0664 L 6.0222,18.0664 L 6.0222,18.0664" transform="translate(-0.3886, -0.1400) scale(0.0138)"/><path d="M 0,18.0664 L 0,18.0664 L 6.0222,9.0332 L 0,0 L 0,0 L 4.5166,0 L 4.5166,0 L 10.5388,9.0332 L 4.5166,18.0664 L 0,18.0664 L 0,18.0664 M 6.0222,18.0664 L 6.0222,18.0664 L 12.0444,9.0332 L 6.0222,0 L 6.0222,0 L 10.5388,0 L 22.5830,18.0664 L 22.5830,18.0664 L 18.0664,18.0664 L 18.0664,18.0664 L 14.3027,12.4207 L 10.5388,18.0664 L 6.0222,18.0664 L 6.0222,18.0664" transform="translate(-0.4720, -0.3609) scale(0.0138)"/></g></g><g class="datapadding"></g></g><g class="hud"><g class="frame"><g stroke-width="0" stroke="rgb(0%, 0%, 0%)" stroke-opacity="0" fill="rgb(100%, 100%, 100%)" fill-opacity="0.02"><rect width="0.7431" height="0.9017" x="-0.6610" y="-0.4639"/></g></g><g class="axis"><g class="axisbar"><g stroke-width="0" stroke="rgb(0%, 0%, 0%)" stroke-opacity="0" fill="rgb(5%, 5%, 5%)" fill-opacity="0.4"><rect width="0.5068" height="0.0024" x="-0.6617" y="0.1341"/></g></g><g class="ticks"><g class="ticklines"><g stroke-width="0.0023" stroke="rgb(5%, 5%, 5%)" stroke-opacity="0.05" fill="none"><polyline points="-0.6610,0.1282 -0.6610,-0.4639"/><polyline points="-0.5599,0.1282 -0.5599,-0.4639"/><polyline points="-0.4588,0.1282 -0.4588,-0.4639"/><polyline points="-0.3578,0.1282 -0.3578,-0.4639"/><polyline points="-0.2567,0.1282 -0.2567,-0.4639"/><polyline points="-0.1556,0.1282 -0.1556,-0.4639"/></g></g><g class="tickglyph"><g stroke-width="0.0018" stroke="rgb(5%, 5%, 5%)" stroke-opacity="0.4" fill="rgb(5%, 5%, 5%)" fill-opacity="0.4"><polyline points="-0.6610,0.1511
-0.6610,0.1373"/><polyline points="-0.5599,0.1511
-0.5599,0.1373"/><polyline points="-0.4588,0.1511
-0.4588,0.1373"/><polyline points="-0.3578,0.1511
-0.3578,0.1373"/><polyline points="-0.2567,0.1511
-0.2567,0.1373"/><polyline points="-0.1556,0.1511
-0.1556,0.1373"/></g></g><g class="ticktext"><g stroke-width="0.0" stroke="none" fill="rgb(5%, 5%, 5%)" fill-opacity="1.0" font-size="0.0184" text-anchor="middle"><text x="-0.6610" y="0.4692"> 8</text><text x="-0.5599" y="0.4692">10</text><text x="-0.4588" y="0.4692">12</text><text x="-0.3578" y="0.4692">14</text><text x="-0.2567" y="0.4692">16</text><text x="-0.1556" y="0.4692">18</text></g></g></g></g><g class="axis"><g class="axisbar"><g stroke-width="0" stroke="rgb(0%, 0%, 0%)" stroke-opacity="0" fill="rgb(5%, 5%, 5%)" fill-opacity="0.4"><rect width="0.0014" height="0.5944" x="-0.6660" y="-0.4651"/></g></g><g class="ticks"><g class="ticklines"><g stroke-width="0.0023" stroke="rgb(5%, 5%, 5%)" stroke-opacity="0.05" fill="none"><polyline points="-0.6610,0.1282 -0.1556,0.1282"/><polyline points="-0.6610,0.0295 -0.1556,0.0295"/><polyline points="-0.6610,-0.0692 -0.1556,-0.0692"/><polyline points="-0.6610,-0.1678 -0.1556,-0.1678"/><polyline points="-0.6610,-0.2665 -0.1556,-0.2665"/><polyline points="-0.6610,-0.3652 -0.1556,-0.3652"/><polyline points="-0.6610,-0.4639 -0.1556,-0.4639"/></g></g><g class="tickglyph"><g stroke-width="0.0018" stroke="rgb(5%, 5%, 5%)" stroke-opacity="0.4" fill="rgb(5%, 5%, 5%)" fill-opacity="0.4"><polyline points="-0.6775,0.1282
-0.6637,0.1282"/><polyline points="-0.6775,0.0295
-0.6637,0.0295"/><polyline points="-0.6775,-0.0692
-0.6637,-0.0692"/><polyline points="-0.6775,-0.1678
-0.6637,-0.1678"/><polyline points="-0.6775,-0.2665
-0.6637,-0.2665"/><polyline points="-0.6775,-0.3652
-0.6637,-0.3652"/><polyline points="-0.6775,-0.4639
-0.6637,-0.4639"/></g></g><g class="ticktext"><g stroke-width="0.0" stroke="none" fill="rgb(5%, 5%, 5%)" fill-opacity="1.0" font-size="0.0184" text-anchor="end"><text x="-0.6838" y="0.1347">     0</text><text x="-0.6838" y="0.0360"> 5,000</text><text x="-0.6838" y="-0.0626">10,000</text><text x="-0.6838" y="-0.1613">15,000</text><text x="-0.6838" y="-0.2600">20,000</text><text x="-0.6838" y="-0.3587">25,000</text><text x="-0.6838" y="-0.4574">30,000</text></g></g></g></g><g class="frame"><g stroke-width="0" stroke="rgb(0%, 0%, 0%)" stroke-opacity="0" fill="rgb(0%, 0%, 0%)" fill-opacity="0"><rect width="0.8459" height="1.0" x="-0.7495" y="-0.5"/></g></g></g></g><g class="hud"></g></svg>