<svg xmlns="http://www.w3.org/2000/svg" xmlns:xlink="http://www.w3.org/1999/xlink" width="450" height="300" viewBox="-0.7503 -0.5 1.5003 1.0"><style>svg {color-scheme: light dark;} {.canvas g, .title g, .axisbar g, .ticktext g, .tickglyph g, .ticklines g, .legendContent g text {fill: rgb(5%, 5%, 5%);} .ticklines g, .tickglyph g, .legendBorder g {stroke: rgb(5%, 5%, 5%);} .legendBorder g {fill: rgb(94%, 94%, 94%);}} @media (prefers-color-scheme:dark) {.canvas g, .title g, .axisbar g, .ticktext g, .tickglyph g, .ticklines g, .legendContent g text {fill: rgb(94%, 94%, 94%);} .ticklines g, .tickglyph g, .legendBorder g {stroke: rgb(94%, 94%, 94%);} .legendBorder g {fill: rgb(5%, 5%, 5%);}}
svg { font-family: system-ui,-apple-system,"Segoe UI",Roboto,"Helvetica Neue",Arial,"Noto Sans","Liberation Sans",sans-serif,"Apple Color Emoji","Segoe UI Emoji","Segoe UI Symbol","Noto Color Emoji";
}

ticktext { font-family: SFMono-Regular,Menlo,Monaco,Consolas,"Liberation Mono","Courier New",monospace;}</style><g class="chart"><g class="chart"><g class="boxplot"><g stroke-width="0.0046" stroke="rgb(5%, 5%, 5%)" stroke-opacity="1.0" fill="none"><polyline points="0.6992,0.2579 0.6992,0.1073"/></g><g stroke-width="0.0039" stroke="rgb(2%, 29%, 48%)" stroke-opacity="1.0" fill="rgb(2%, 73%, 80%)" fill-opacity="0.1"><rect width="0.0549" height="0.1506" x="0.6718" y="-0.0432"/></g><g stroke-width="0.0039" stroke="rgb(2%, 29%, 48%)" stroke-opacity="1.0" fill="rgb(2%, 73%, 80%)" fill-opacity="0.1"><rect width="0.0549" height="0.1506" x="0.6718" y="-0.1938"/></g><g stroke-width="0.0046" stroke="rgb(5%, 5%, 5%)" stroke-opacity="1.0" fill="none"><polyline points="0.6992,-0.1938 0.6992,-0.3444"/></g></g><g class="datapadding"></g></g><g class="hud"><g class="axis"><g class="axisbar"><g stroke-width="0" stroke="rgb(0%, 0%, 0%)" stroke-opacity="0" fill="rgb(5%, 5%, 5%)" fill-opacity="0.4"><rect width="0.0009" height="0.6794" x="0.6687" y="-0.4195"/></g></g><g class="ticks"><g class="ticklines"><g stroke-width="0.0019" stroke="rgb(5%, 5%, 5%)" stroke-opacity="0.05" fill="none"><polyline points="0.6718,0.2586 0.7267,0.2586"/><polyline points="0.6718,0.1232 0.7267,0.1232"/><polyline points="0.6718,-0.0121 0.7267,-0.0121"/><polyline points="0.6718,-0.1475 0.7267,-0.1475"/><polyline points="0.6718,-0.2828 0.7267,-0.2828"/><polyline points="0.6718,-0.4181 0.7267,-0.4181"/></g></g><g class="tickglyph"><g stroke-width="0.0015" stroke="rgb(5%, 5%, 5%)" stroke-opacity="0.4" fill="rgb(5%, 5%, 5%)" fill-opacity="0.4"><polyline points="0.6600,0.2586
0.6716,0.2586"/><polyline points="0.6600,0.1232
0.6716,0.1232"/><polyline points="0.6600,-0.0121
0.6716,-0.0121"/><polyline points="0.6600,-0.1475
0.6716,-0.1475"/><polyline points="0.6600,-0.2828
0.6716,-0.2828"/><polyline points="0.6600,-0.4181
0.6716,-0.4181"/></g></g><g class="ticktext"><g stroke-width="0.0" stroke="none" fill="rgb(5%, 5%, 5%)" fill-opacity="1.0" font-size="0.0155" text-anchor="end"><text x="0.6576" y="0.2660">    0</text><text x="0.6576" y="0.1307">  200</text><text x="0.6576" y="-0.0047">  400</text><text x="0.6576" y="-0.1400">  600</text><text x="0.6576" y="-0.2753">  800</text><text x="0.6576" y="-0.4107">1,000</text></g></g></g></g><g class="title"><g stroke-width="0.0" stroke="none" fill="rgb(5%, 5%, 5%)" fill-opacity="1.0" font-size="0.0116" text-anchor="middle"><text x="0.6794" y="0.3174">PassengerId</text></g></g></g><g class="chart"><g class="boxplot"><g stroke-width="0.0046" stroke="rgb(5%, 5%, 5%)" stroke-opacity="1.0" fill="none"><polyline points="0.5913,0.2505 0.5913,0.2505"/></g><g stroke-width="0.0039" stroke="rgb(2%, 29%, 48%)" stroke-opacity="1.0" fill="rgb(2%, 73%, 80%)" fill-opacity="0.1"><rect width="0.0549" height="0" x="0.5638" y="0.2505"/></g><g stroke-width="0.0039" stroke="rgb(2%, 29%, 48%)" stroke-opacity="1.0" fill="rgb(2%, 73%, 80%)" fill-opacity="0.1"><rect width="0.0549" height="0.6686" x="0.5638" y="-0.4181"/></g><g stroke-width="0.0046" stroke="rgb(5%, 5%, 5%)" stroke-opacity="1.0" fill="none"><polyline points="0.5913,-0.4181 0.5913,-0.4181"/></g></g></g><g class="hud"><g class="axis"><g class="axisbar"><g stroke-width="0" stroke="rgb(0%, 0%, 0%)" stroke-opacity="0" fill="rgb(5%, 5%, 5%)" fill-opacity="0.4"><rect width="0.0009" height="0.6714" x="0.5607" y="-0.4195"/></g></g><g class="ticks"><g class="ticklines"><g stroke-width="0.0019" stroke="rgb(5%, 5%, 5%)" stroke-opacity="0.05" fill="none"><polyline points="0.5638,0.2505 0.6188,0.2505"/><polyline points="0.5638,0.1168 0.6188,0.1168"/><polyline points="0.5638,-0.0169 0.6188,-0.0169"/><polyline points="0.5638,-0.1507 0.6188,-0.1507"/><polyline points="0.5638,-0.2844 0.6188,-0.2844"/><polyline points="0.5638,-0.4181 0.6188,-0.4181"/></g></g><g class="tickglyph"><g stroke-width="0.0015" stroke="rgb(5%, 5%, 5%)" stroke-opacity="0.4" fill="rgb(5%, 5%, 5%)" fill-opacity="0.4"><polyline points="0.5520,0.2505
0.5637,0.2505"/><polyline points="0.5520,0.1168
0.5637,0.1168"/><polyline points="0.5520,-0.0169
0.5637,-0.0169"/><polyline points="0.5520,-0.1507
0.5637,-0.1507"/><polyline points="0.5520,-0.2844
0.5637,-0.2844"/><polyline points="0.5520,-0.4181
0.5637,-0.4181"/></g></g><g class="ticktext"><g stroke-width="0.0" stroke="none" fill="rgb(5%, 5%, 5%)" fill-opacity="1.0" font-size="0.0155" text-anchor="end"><text x="0.5496" y="0.2580">0.0</text><text x="0.5496" y="0.1242">0.2</text><text x="0.5496" y="-0.0095">0.4</text><text x="0.5496" y="-0.1432">0.6</text><text x="0.5496" y="-0.2769">0.8</text><text x="0.5496" y="-0.4107">1.0</text></g></g></g></g><g class="title"><g stroke-width="0.0" stroke="none" fill="rgb(5%, 5%, 5%)" fill-opacity="1.0" font-size="0.0116" text-anchor="middle"><text x="0.5768" y="0.3094">Survived</text></g></g></g><g class="chart"><g class="boxplot"><g stroke-width="0.0046" stroke="rgb(5%, 5%, 5%)" stroke-opacity="1.0" fill="none"><polyline points="0.4940,0.2545 0.4940,-0.0818"/></g><g stroke-width="0.0039" stroke="rgb(2%, 29%, 48%)" stroke-opacity="1.0" fill="rgb(2%, 73%, 80%)" fill-opacity="0.1"><rect width="0.0549" height="0.3363" x="0.4665" y="-0.4181"/></g><g stroke-width="0.0039" stroke="rgb(2%, 29%, 48%)" stroke-opacity="1.0" fill="rgb(2%, 73%, 80%)" fill-opacity="0.1"><rect width="0.0549" height="0" x="0.4665" y="-0.4181"/></g><g stroke-width="0.0046" stroke="rgb(5%, 5%, 5%)" stroke-opacity="1.0" fill="none"><polyline points="0.4940,-0.4181 0.4940,-0.4181"/></g></g></g><g class="hud"><g class="axis"><g class="axisbar"><g stroke-width="0" stroke="rgb(0%, 0%, 0%)" stroke-opacity="0" fill="rgb(5%, 5%, 5%)" fill-opacity="0.4"><rect width="0.0009" height="0.6753" x="0.4634" y="-0.4195"/></g></g><g class="ticks"><g class="ticklines"><g stroke-width="0.0019" stroke="rgb(5%, 5%, 5%)" stroke-opacity="0.05" fill="none"><polyline points="0.4665,0.2545 0.5215,0.2545"/><polyline points="0.4665,0.0864 0.5215,0.0864"/><polyline points="0.4665,-0.0818 0.5215,-0.0818"/><polyline points="0.4665,-0.2500 0.5215,-0.2500"/><polyline points="0.4665,-0.4181 0.5215,-0.4181"/></g></g><g class="tickglyph"><g stroke-width="0.0015" stroke="rgb(5%, 5%, 5%)" stroke-opacity="0.4" fill="rgb(5%, 5%, 5%)" fill-opacity="0.4"><polyline points="0.4547,0.2545
0.4664,0.2545"/><polyline points="0.4547,0.0864
0.4664,0.0864"/><polyline points="0.4547,-0.0818
0.4664,-0.0818"/><polyline points="0.4547,-0.2500
0.4664,-0.2500"/><polyline points="0.4547,-0.4181
0.4664,-0.4181"/></g></g><g class="ticktext"><g stroke-width="0.0" stroke="none" fill="rgb(5%, 5%, 5%)" fill-opacity="1.0" font-size="0.0155" text-anchor="end"><text x="0.4523" y="0.2620">1.0</text><text x="0.4523" y="0.0938">1.5</text><text x="0.4523" y="-0.0744">2.0</text><text x="0.4523" y="-0.2425">2.5</text><text x="0.4523" y="-0.4107">3.0</text></g></g></g></g><g class="title"><g stroke-width="0.0" stroke="none" fill="rgb(5%, 5%, 5%)" fill-opacity="1.0" font-size="0.0116" text-anchor="middle"><text x="0.4795" y="0.3134">Pclass</text></g></g></g><g class="chart"><g class="barchart"><g stroke-width="0" stroke="rgb(2%, 29%, 48%)" stroke-opacity="1.0" fill="rgb(2%, 73%, 80%)" fill-opacity="0.2"><rect width="0.0536" height="0.0677" x="0.2148" y="-0.4323"/></g><g stroke-width="0" stroke="rgb(2%, 29%, 48%)" stroke-opacity="1.0" fill="rgb(2%, 29%, 48%)" fill-opacity="0.2"><rect width="0.0536" height="0.0677" x="0.2148" y="-0.3647"/></g><g stroke-width="0" stroke="rgb(2%, 29%, 48%)" stroke-opacity="1.0" fill="rgb(66%, 7%, 55%)" fill-opacity="0.2"><rect width="0.0536" height="0.0677" x="0.2148" y="-0.2970"/></g><g stroke-width="0" stroke="rgb(2%, 29%, 48%)" stroke-opacity="1.0" fill="rgb(96%, 60%, 92%)" fill-opacity="0.2"><rect width="0.0536" height="0.0677" x="0.2148" y="-0.2293"/></g><g stroke-width="0" stroke="rgb(2%, 29%, 48%)" stroke-opacity="1.0" fill="rgb(100%, 71%, 35%)" fill-opacity="0.2"><rect width="0.0536" height="0.0677" x="0.2148" y="-0.1617"/></g><g stroke-width="0" stroke="rgb(2%, 29%, 48%)" stroke-opacity="1.0" fill="rgb(73%, 34%, 1%)" fill-opacity="0.2"><rect width="0.0536" height="0.0677" x="0.2148" y="-0.0940"/></g><g stroke-width="0" stroke="rgb(2%, 29%, 48%)" stroke-opacity="1.0" fill="rgb(21%, 29%, 7%)" fill-opacity="0.2"><rect width="0.0536" height="0.0677" x="0.2148" y="-0.0263"/></g><g stroke-width="0" stroke="rgb(2%, 29%, 48%)" stroke-opacity="1.0" fill="rgb(53%, 51%, 28%)" fill-opacity="0.2"><rect width="0.0536" height="0.0677" x="0.2148" y="0.0413"/></g><g stroke-width="0" stroke="rgb(2%, 29%, 48%)" stroke-opacity="1.0" fill="rgb(2%, 73%, 80%)" fill-opacity="0.2"><rect width="0.0536" height="0.0677" x="0.2148" y="0.1090"/></g><g stroke-width="0" stroke="rgb(2%, 29%, 48%)" stroke-opacity="1.0" fill="rgb(2%, 29%, 48%)" fill-opacity="0.2"><rect width="0.0536" height="0.0677" x="0.2148" y="0.1767"/></g></g><g class="labels"><g stroke-width="0.0" stroke="none" fill="rgb(-63%, 46%, 53%)" fill-opacity="0.6" font-size="0.0232" text-anchor="middle"><text x="0.2416" y="-0.3985">Abbing, Mr. Anthony</text></g><g stroke-width="0.0" stroke="none" fill="rgb(-8%, 16%, 34%)" fill-opacity="0.6" font-size="0.0232" text-anchor="middle"><text x="0.2416" y="-0.3308">Abbott, Mr. Rossmore Edward</text></g><g stroke-width="0.0" stroke="none" fill="rgb(46%, -23%, 37%)" fill-opacity="0.6" font-size="0.0232" text-anchor="middle"><text x="0.2416" y="-0.2632">Abbott, Mrs. Stanton (Rosa Hunt)</text></g><g stroke-width="0.0" stroke="none" fill="rgb(64%, 31%, 61%)" fill-opacity="0.6" font-size="0.0232" text-anchor="middle"><text x="0.2416" y="-0.1955">Abelson, Mr. Samuel</text></g><g stroke-width="0.0" stroke="none" fill="rgb(68%, 41%, -17%)" fill-opacity="0.6" font-size="0.0232" text-anchor="middle"><text x="0.2416" y="-0.1278">Abelson, Mrs. Samuel (Hannah Wizosky)</text></g><g stroke-width="0.0" stroke="none" fill="rgb(51%, 13%, -20%)" fill-opacity="0.6" font-size="0.0232" text-anchor="middle"><text x="0.2416" y="-0.0602">Adahl, Mr. Mauritz Nils Martin</text></g><g stroke-width="0.0" stroke="none" fill="rgb(10%, 17%, -4%)" fill-opacity="0.6" font-size="0.0232" text-anchor="middle"><text x="0.2416" y="0.0075">Adams, Mr. John</text></g><g stroke-width="0.0" stroke="none" fill="rgb(33%, 31%, 6%)" fill-opacity="0.6" font-size="0.0232" text-anchor="middle"><text x="0.2416" y="0.0752">Ahlin, Mrs. Johan (Johanna Persdotter Larsson)</text></g><g stroke-width="0.0" stroke="none" fill="rgb(-63%, 46%, 53%)" fill-opacity="0.6" font-size="0.0232" text-anchor="middle"><text x="0.2416" y="0.1428">Aks, Mrs. Sam (Leah Rosen)</text></g><g stroke-width="0.0" stroke="none" fill="rgb(-8%, 16%, 34%)" fill-opacity="0.6" font-size="0.0232" text-anchor="middle"><text x="0.2416" y="0.2105">Albimona, Mr. Nassef Cassem</text></g></g></g><g class="hud"><g class="axis"><g class="ticks"><g class="ticktext"><g stroke-width="0.0" stroke="none" fill="rgb(5%, 5%, 5%)" fill-opacity="1.0" font-size="0.0310" text-anchor="end"><text x="0.2416" y="0.3025" transform="rotate(-45.0, 0.2416, 0.3025)">Name</text></g></g></g></g></g><g class="chart"><g class="barchart"><g stroke-width="0" stroke="rgb(2%, 29%, 48%)" stroke-opacity="1.0" fill="rgb(2%, 73%, 80%)" fill-opacity="0.2"><rect width="0.0887" height="0.4382" x="-0.0420" y="-0.4323"/></g><g stroke-width="0" stroke="rgb(2%, 29%, 48%)" stroke-opacity="1.0" fill="rgb(2%, 29%, 48%)" fill-opacity="0.2"><rect width="0.0887" height="0.2385" x="-0.0420" y="0.0059"/></g></g><g class="labels"><g stroke-width="0.0" stroke="none" fill="rgb(-63%, 46%, 53%)" fill-opacity="0.6" font-size="0.0232" text-anchor="middle"><text x="0.0024" y="-0.2132">male</text></g><g stroke-width="0.0" stroke="none" fill="rgb(-8%, 16%, 34%)" fill-opacity="0.6" font-size="0.0232" text-anchor="middle"><text x="0.0024" y="0.1251">female</text></g></g></g><g class="hud"><g class="axis"><g class="ticks"><g class="ticktext"><g stroke-width="0.0" stroke="none" fill="rgb(5%, 5%, 5%)" fill-opacity="1.0" font-size="0.0225" text-anchor="end"><text x="0.0024" y="0.2904" transform="rotate(-45.0, 0.0024, 0.2904)">Sex</text></g></g></g></g></g><g class="chart"><g class="boxplot"><g stroke-width="0.0046" stroke="rgb(5%, 5%, 5%)" stroke-opacity="1.0" fill="none"><polyline points="-0.0816,0.2575 -0.0816,0.2575"/></g><g stroke-width="0.0039" stroke="rgb(2%, 29%, 48%)" stroke-opacity="1.0" fill="rgb(2%, 73%, 80%)" fill-opacity="0.1"><rect width="0.0549" height="0" x="-0.1091" y="0.2575"/></g><g stroke-width="0.0039" stroke="rgb(2%, 29%, 48%)" stroke-opacity="1.0" fill="rgb(2%, 73%, 80%)" fill-opacity="0.1"><rect width="0.0549" height="0.0845" x="-0.1091" y="0.1731"/></g><g stroke-width="0.0046" stroke="rgb(5%, 5%, 5%)" stroke-opacity="1.0" fill="none"><polyline points="-0.0816,0.1731 -0.0816,-0.4181"/></g></g></g><g class="hud"><g class="axis"><g class="axisbar"><g stroke-width="0" stroke="rgb(0%, 0%, 0%)" stroke-opacity="0" fill="rgb(5%, 5%, 5%)" fill-opacity="0.4"><rect width="0.0009" height="0.6784" x="-0.1122" y="-0.4195"/></g></g><g class="ticks"><g class="ticklines"><g stroke-width="0.0019" stroke="rgb(5%, 5%, 5%)" stroke-opacity="0.05" fill="none"><polyline points="-0.1091,0.2575 -0.0542,0.2575"/><polyline points="-0.1091,0.0886 -0.0542,0.0886"/><polyline points="-0.1091,-0.0803 -0.0542,-0.0803"/><polyline points="-0.1091,-0.2492 -0.0542,-0.2492"/><polyline points="-0.1091,-0.4181 -0.0542,-0.4181"/></g></g><g class="tickglyph"><g stroke-width="0.0015" stroke="rgb(5%, 5%, 5%)" stroke-opacity="0.4" fill="rgb(5%, 5%, 5%)" fill-opacity="0.4"><polyline points="-0.1209,0.2575
-0.1093,0.2575"/><polyline points="-0.1209,0.0886
-0.1093,0.0886"/><polyline points="-0.1209,-0.0803
-0.1093,-0.0803"/><polyline points="-0.1209,-0.2492
-0.1093,-0.2492"/><polyline points="-0.1209,-0.4181
-0.1093,-0.4181"/></g></g><g class="ticktext"><g stroke-width="0.0" stroke="none" fill="rgb(5%, 5%, 5%)" fill-opacity="1.0" font-size="0.0155" text-anchor="end"><text x="-0.1233" y="0.2650">0</text><text x="-0.1233" y="0.0961">2</text><text x="-0.1233" y="-0.0728">4</text><text x="-0.1233" y="-0.2418">6</text><text x="-0.1233" y="-0.4107">8</text></g></g></g></g><g class="title"><g stroke-width="0.0" stroke="none" fill="rgb(5%, 5%, 5%)" fill-opacity="1.0" font-size="0.0116" text-anchor="middle"><text x="-0.0909" y="0.3164">SibSp</text></g></g></g><g class="chart"><g class="boxplot"><g stroke-width="0.0046" stroke="rgb(5%, 5%, 5%)" stroke-opacity="1.0" fill="none"><polyline points="-0.1683,0.2572 -0.1683,0.2572"/></g><g stroke-width="0.0039" stroke="rgb(2%, 29%, 48%)" stroke-opacity="1.0" fill="rgb(2%, 73%, 80%)" fill-opacity="0.1"><rect width="0.0549" height="0" x="-0.1958" y="0.2572"/></g><g stroke-width="0.0039" stroke="rgb(2%, 29%, 48%)" stroke-opacity="1.0" fill="rgb(2%, 73%, 80%)" fill-opacity="0.1"><rect width="0.0549" height="0" x="-0.1958" y="0.2572"/></g><g stroke-width="0.0046" stroke="rgb(5%, 5%, 5%)" stroke-opacity="1.0" fill="none"><polyline points="-0.1683,0.2572 -0.1683,-0.4181"/></g></g></g><g class="hud"><g class="axis"><g class="axisbar"><g stroke-width="0" stroke="rgb(0%, 0%, 0%)" stroke-opacity="0" fill="rgb(5%, 5%, 5%)" fill-opacity="0.4"><rect width="0.0009" height="0.6780" x="-0.1989" y="-0.4195"/></g></g><g class="ticks"><g class="ticklines"><g stroke-width="0.0019" stroke="rgb(5%, 5%, 5%)" stroke-opacity="0.05" fill="none"><polyline points="-0.1958,0.2572 -0.1408,0.2572"/><polyline points="-0.1958,0.1446 -0.1408,0.1446"/><polyline points="-0.1958,0.0321 -0.1408,0.0321"/><polyline points="-0.1958,-0.0805 -0.1408,-0.0805"/><polyline points="-0.1958,-0.1930 -0.1408,-0.1930"/><polyline points="-0.1958,-0.3056 -0.1408,-0.3056"/><polyline points="-0.1958,-0.4181 -0.1408,-0.4181"/></g></g><g class="tickglyph"><g stroke-width="0.0015" stroke="rgb(5%, 5%, 5%)" stroke-opacity="0.4" fill="rgb(5%, 5%, 5%)" fill-opacity="0.4"><polyline points="-0.2076,0.2572
-0.1959,0.2572"/><polyline points="-0.2076,0.1446
-0.1959,0.1446"/><polyline points="-0.2076,0.0321
-0.1959,0.0321"/><polyline points="-0.2076,-0.0805
-0.1959,-0.0805"/><polyline points="-0.2076,-0.1930
-0.1959,-0.1930"/><polyline points="-0.2076,-0.3056
-0.1959,-0.3056"/><polyline points="-0.2076,-0.4181
-0.1959,-0.4181"/></g></g><g class="ticktext"><g stroke-width="0.0" stroke="none" fill="rgb(5%, 5%, 5%)" fill-opacity="1.0" font-size="0.0155" text-anchor="end"><text x="-0.2099" y="0.2646">0</text><text x="-0.2099" y="0.1521">1</text><text x="-0.2099" y="0.0395">2</text><text x="-0.2099" y="-0.0730">3</text><text x="-0.2099" y="-0.1856">4</text><text x="-0.2099" y="-0.2981">5</text><text x="-0.2099" y="-0.4107">6</text></g></g></g></g><g class="title"><g stroke-width="0.0" stroke="none" fill="rgb(5%, 5%, 5%)" fill-opacity="1.0" font-size="0.0116" text-anchor="middle"><text x="-0.1775" y="0.3161">Parch</text></g></g></g><g class="chart"><g class="barchart"><g stroke-width="0" stroke="rgb(2%, 29%, 48%)" stroke-opacity="1.0" fill="rgb(2%, 73%, 80%)" fill-opacity="0.2"><rect width="0.0887" height="0.0831" x="-0.3187" y="-0.4323"/></g><g stroke-width="0" stroke="rgb(2%, 29%, 48%)" stroke-opacity="1.0" fill="rgb(2%, 29%, 48%)" fill-opacity="0.2"><rect width="0.0887" height="0.0831" x="-0.3187" y="-0.3492"/></g><g stroke-width="0" stroke="rgb(2%, 29%, 48%)" stroke-opacity="1.0" fill="rgb(66%, 7%, 55%)" fill-opacity="0.2"><rect width="0.0887" height="0.0831" x="-0.3187" y="-0.2661"/></g><g stroke-width="0" stroke="rgb(2%, 29%, 48%)" stroke-opacity="1.0" fill="rgb(96%, 60%, 92%)" fill-opacity="0.2"><rect width="0.0887" height="0.0712" x="-0.3187" y="-0.1830"/></g><g stroke-width="0" stroke="rgb(2%, 29%, 48%)" stroke-opacity="1.0" fill="rgb(100%, 71%, 35%)" fill-opacity="0.2"><rect width="0.0887" height="0.0712" x="-0.3187" y="-0.1118"/></g><g stroke-width="0" stroke="rgb(2%, 29%, 48%)" stroke-opacity="1.0" fill="rgb(73%, 34%, 1%)" fill-opacity="0.2"><rect width="0.0887" height="0.0712" x="-0.3187" y="-0.0406"/></g><g stroke-width="0" stroke="rgb(2%, 29%, 48%)" stroke-opacity="1.0" fill="rgb(21%, 29%, 7%)" fill-opacity="0.2"><rect width="0.0887" height="0.0594" x="-0.3187" y="0.0307"/></g><g stroke-width="0" stroke="rgb(2%, 29%, 48%)" stroke-opacity="1.0" fill="rgb(53%, 51%, 28%)" fill-opacity="0.2"><rect width="0.0887" height="0.0594" x="-0.3187" y="0.0900"/></g><g stroke-width="0" stroke="rgb(2%, 29%, 48%)" stroke-opacity="1.0" fill="rgb(2%, 73%, 80%)" fill-opacity="0.2"><rect width="0.0887" height="0.0475" x="-0.3187" y="0.1494"/></g><g stroke-width="0" stroke="rgb(2%, 29%, 48%)" stroke-opacity="1.0" fill="rgb(2%, 29%, 48%)" fill-opacity="0.2"><rect width="0.0887" height="0.0475" x="-0.3187" y="0.1969"/></g></g><g class="labels"><g stroke-width="0.0" stroke="none" fill="rgb(-63%, 46%, 53%)" fill-opacity="0.6" font-size="0.0232" text-anchor="middle"><text x="-0.2743" y="-0.3908">1601</text></g><g stroke-width="0.0" stroke="none" fill="rgb(-8%, 16%, 34%)" fill-opacity="0.6" font-size="0.0232" text-anchor="middle"><text x="-0.2743" y="-0.3077">347082</text></g><g stroke-width="0.0" stroke="none" fill="rgb(46%, -23%, 37%)" fill-opacity="0.6" font-size="0.0232" text-anchor="middle"><text x="-0.2743" y="-0.2246">CA. 2343</text></g><g stroke-width="0.0" stroke="none" fill="rgb(64%, 31%, 61%)" fill-opacity="0.6" font-size="0.0232" text-anchor="middle"><text x="-0.2743" y="-0.1474">3101295</text></g><g stroke-width="0.0" stroke="none" fill="rgb(68%, 41%, -17%)" fill-opacity="0.6" font-size="0.0232" text-anchor="middle"><text x="-0.2743" y="-0.0762">347088</text></g><g stroke-width="0.0" stroke="none" fill="rgb(51%, 13%, -20%)" fill-opacity="0.6" font-size="0.0232" text-anchor="middle"><text x="-0.2743" y="-0.0050">CA 2144</text></g><g stroke-width="0.0" stroke="none" fill="rgb(10%, 17%, -4%)" fill-opacity="0.6" font-size="0.0232" text-anchor="middle"><text x="-0.2743" y="0.0603">382652</text></g><g stroke-width="0.0" stroke="none" fill="rgb(33%, 31%, 6%)" fill-opacity="0.6" font-size="0.0232" text-anchor="middle"><text x="-0.2743" y="0.1197">S.O.C. 14879</text></g><g stroke-width="0.0" stroke="none" fill="rgb(-63%, 46%, 53%)" fill-opacity="0.6" font-size="0.0232" text-anchor="middle"><text x="-0.2743" y="0.1731">113760</text></g><g stroke-width="0.0" stroke="none" fill="rgb(-8%, 16%, 34%)" fill-opacity="0.6" font-size="0.0232" text-anchor="middle"><text x="-0.2743" y="0.2206">113781</text></g></g></g><g class="hud"><g class="axis"><g class="ticks"><g class="ticktext"><g stroke-width="0.0" stroke="none" fill="rgb(5%, 5%, 5%)" fill-opacity="1.0" font-size="0.0243" text-anchor="end"><text x="-0.2743" y="0.2930" transform="rotate(-45.0, -0.2743, 0.2930)">Ticket</text></g></g></g></g></g><g class="chart"><g class="boxplot"><g stroke-width="0.0046" stroke="rgb(5%, 5%, 5%)" stroke-opacity="1.0" fill="none"><polyline points="-0.3619,0.2585 -0.3619,0.2496"/></g><g stroke-width="0.0039" stroke="rgb(2%, 29%, 48%)" stroke-opacity="1.0" fill="rgb(2%, 73%, 80%)" fill-opacity="0.1"><rect width="0.0549" height="0.0074" x="-0.3893" y="0.2422"/></g><g stroke-width="0.0039" stroke="rgb(2%, 29%, 48%)" stroke-opacity="1.0" fill="rgb(2%, 73%, 80%)" fill-opacity="0.1"><rect width="0.0549" height="0.0187" x="-0.3893" y="0.2236"/></g><g stroke-width="0.0046" stroke="rgb(5%, 5%, 5%)" stroke-opacity="1.0" fill="none"><polyline points="-0.3619,0.2236 -0.3619,-0.3192"/></g></g><g class="datapadding"></g></g><g class="hud"><g class="axis"><g class="axisbar"><g stroke-width="0" stroke="rgb(0%, 0%, 0%)" stroke-opacity="0" fill="rgb(5%, 5%, 5%)" fill-opacity="0.4"><rect width="0.0009" height="0.6794" x="-0.3924" y="-0.4195"/></g></g><g class="ticks"><g class="ticklines"><g stroke-width="0.0019" stroke="rgb(5%, 5%, 5%)" stroke-opacity="0.05" fill="none"><polyline points="-0.3893,0.2585 -0.3344,0.2585"/><polyline points="-0.3893,0.1458 -0.3344,0.1458"/><polyline points="-0.3893,0.0330 -0.3344,0.0330"/><polyline points="-0.3893,-0.0798 -0.3344,-0.0798"/><polyline points="-0.3893,-0.1926 -0.3344,-0.1926"/><polyline points="-0.3893,-0.3053 -0.3344,-0.3053"/><polyline points="-0.3893,-0.4181 -0.3344,-0.4181"/></g></g><g class="tickglyph"><g stroke-width="0.0015" stroke="rgb(5%, 5%, 5%)" stroke-opacity="0.4" fill="rgb(5%, 5%, 5%)" fill-opacity="0.4"><polyline points="-0.4011,0.2585
-0.3895,0.2585"/><polyline points="-0.4011,0.1458
-0.3895,0.1458"/><polyline points="-0.4011,0.0330
-0.3895,0.0330"/><polyline points="-0.4011,-0.0798
-0.3895,-0.0798"/><polyline points="-0.4011,-0.1926
-0.3895,-0.1926"/><polyline points="-0.4011,-0.3053
-0.3895,-0.3053"/><polyline points="-0.4011,-0.4181
-0.3895,-0.4181"/></g></g><g class="ticktext"><g stroke-width="0.0" stroke="none" fill="rgb(5%, 5%, 5%)" fill-opacity="1.0" font-size="0.0155" text-anchor="end"><text x="-0.4035" y="0.2660">  0</text><text x="-0.4035" y="0.1532">100</text><text x="-0.4035" y="0.0404">200</text><text x="-0.4035" y="-0.0723">300</text><text x="-0.4035" y="-0.1851">400</text><text x="-0.4035" y="-0.2979">500</text><text x="-0.4035" y="-0.4107">600</text></g></g></g></g><g class="title"><g stroke-width="0.0" stroke="none" fill="rgb(5%, 5%, 5%)" fill-opacity="1.0" font-size="0.0116" text-anchor="middle"><text x="-0.3764" y="0.3174">Fare</text></g></g></g><g class="chart"><g class="barchart"><g stroke-width="0" stroke="rgb(2%, 29%, 48%)" stroke-opacity="1.0" fill="rgb(2%, 73%, 80%)" fill-opacity="0.2"><rect width="0.0887" height="0.4902" x="-0.5194" y="-0.4323"/></g><g stroke-width="0" stroke="rgb(2%, 29%, 48%)" stroke-opacity="1.0" fill="rgb(2%, 29%, 48%)" fill-opacity="0.2"><rect width="0.0887" height="0.1279" x="-0.5194" y="0.0579"/></g><g stroke-width="0" stroke="rgb(2%, 29%, 48%)" stroke-opacity="1.0" fill="rgb(66%, 7%, 55%)" fill-opacity="0.2"><rect width="0.0887" height="0.0586" x="-0.5194" y="0.1857"/></g></g><g class="labels"><g stroke-width="0.0" stroke="none" fill="rgb(-63%, 46%, 53%)" fill-opacity="0.6" font-size="0.0232" text-anchor="middle"><text x="-0.4750" y="-0.1872">S</text></g><g stroke-width="0.0" stroke="none" fill="rgb(-8%, 16%, 34%)" fill-opacity="0.6" font-size="0.0232" text-anchor="middle"><text x="-0.4750" y="0.1218">C</text></g><g stroke-width="0.0" stroke="none" fill="rgb(46%, -23%, 37%)" fill-opacity="0.6" font-size="0.0232" text-anchor="middle"><text x="-0.4750" y="0.2150">Q</text></g></g></g><g class="hud"><g class="axis"><g class="ticks"><g class="ticktext"><g stroke-width="0.0" stroke="none" fill="rgb(5%, 5%, 5%)" fill-opacity="1.0" font-size="0.0225" text-anchor="end"><text x="-0.4750" y="0.2904" transform="rotate(-45.0, -0.4750, 0.2904)">Embarked</text></g></g></g></g></g><g class="chart"><g class="boxplot"><g stroke-width="0.0046" stroke="rgb(5%, 5%, 5%)" stroke-opacity="1.0" fill="none"><polyline points="-0.5658,0.2549 -0.5658,0.0883"/></g><g stroke-width="0.0039" stroke="rgb(2%, 29%, 48%)" stroke-opacity="1.0" fill="rgb(2%, 73%, 80%)" fill-opacity="0.1"><rect width="0.0549" height="0.0666" x="-0.5932" y="0.0217"/></g><g stroke-width="0.0039" stroke="rgb(2%, 29%, 48%)" stroke-opacity="1.0" fill="rgb(2%, 73%, 80%)" fill-opacity="0.1"><rect width="0.0549" height="0.0846" x="-0.5932" y="-0.0629"/></g><g stroke-width="0.0046" stroke="rgb(5%, 5%, 5%)" stroke-opacity="1.0" fill="none"><polyline points="-0.5658,-0.0629 -0.5658,-0.4181"/></g></g><g class="datapadding"></g></g><g class="hud"><g class="axis"><g class="axisbar"><g stroke-width="0" stroke="rgb(0%, 0%, 0%)" stroke-opacity="0" fill="rgb(5%, 5%, 5%)" fill-opacity="0.4"><rect width="0.0009" height="0.6793" x="-0.5963" y="-0.4195"/></g></g><g class="ticks"><g class="ticklines"><g stroke-width="0.0019" stroke="rgb(5%, 5%, 5%)" stroke-opacity="0.05" fill="none"><polyline points="-0.5932,0.2585 -0.5383,0.2585"/><polyline points="-0.5932,0.0893 -0.5383,0.0893"/><polyline points="-0.5932,-0.0798 -0.5383,-0.0798"/><polyline points="-0.5932,-0.2490 -0.5383,-0.2490"/><polyline points="-0.5932,-0.4181 -0.5383,-0.4181"/></g></g><g class="tickglyph"><g stroke-width="0.0015" stroke="rgb(5%, 5%, 5%)" stroke-opacity="0.4" fill="rgb(5%, 5%, 5%)" fill-opacity="0.4"><polyline points="-0.6050,0.2585
-0.5934,0.2585"/><polyline points="-0.6050,0.0893
-0.5934,0.0893"/><polyline points="-0.6050,-0.0798
-0.5934,-0.0798"/><polyline points="-0.6050,-0.2490
-0.5934,-0.2490"/><polyline points="-0.6050,-0.4181
-0.5934,-0.4181"/></g></g><g class="ticktext"><g stroke-width="0.0" stroke="none" fill="rgb(5%, 5%, 5%)" fill-opacity="1.0" font-size="0.0155" text-anchor="end"><text x="-0.6074" y="0.2659"> 0</text><text x="-0.6074" y="0.0968">20</text><text x="-0.6074" y="-0.0724">40</text><text x="-0.6074" y="-0.2415">60</text><text x="-0.6074" y="-0.4107">80</text></g></g></g></g><g class="title"><g stroke-width="0.0" stroke="none" fill="rgb(5%, 5%, 5%)" fill-opacity="1.0" font-size="0.0116" text-anchor="middle"><text x="-0.5776" y="0.3174">Age</text></g></g></g><g class="chart"><g class="barchart"><g stroke-width="0" stroke="rgb(2%, 29%, 48%)" stroke-opacity="1.0" fill="rgb(2%, 73%, 80%)" fill-opacity="0.2"><rect width="0.0887" height="0.0873" x="-0.7179" y="-0.4323"/></g><g stroke-width="0" stroke="rgb(2%, 29%, 48%)" stroke-opacity="1.0" fill="rgb(2%, 29%, 48%)" fill-opacity="0.2"><rect width="0.0887" height="0.0873" x="-0.7179" y="-0.3450"/></g><g stroke-width="0" stroke="rgb(2%, 29%, 48%)" stroke-opacity="1.0" fill="rgb(66%, 7%, 55%)" fill-opacity="0.2"><rect width="0.0887" height="0.0873" x="-0.7179" y="-0.2577"/></g><g stroke-width="0" stroke="rgb(2%, 29%, 48%)" stroke-opacity="1.0" fill="rgb(96%, 60%, 92%)" fill-opacity="0.2"><rect width="0.0887" height="0.0655" x="-0.7179" y="-0.1704"/></g><g stroke-width="0" stroke="rgb(2%, 29%, 48%)" stroke-opacity="1.0" fill="rgb(100%, 71%, 35%)" fill-opacity="0.2"><rect width="0.0887" height="0.0655" x="-0.7179" y="-0.1049"/></g><g stroke-width="0" stroke="rgb(2%, 29%, 48%)" stroke-opacity="1.0" fill="rgb(73%, 34%, 1%)" fill-opacity="0.2"><rect width="0.0887" height="0.0655" x="-0.7179" y="-0.0394"/></g><g stroke-width="0" stroke="rgb(2%, 29%, 48%)" stroke-opacity="1.0" fill="rgb(21%, 29%, 7%)" fill-opacity="0.2"><rect width="0.0887" height="0.0655" x="-0.7179" y="0.0261"/></g><g stroke-width="0" stroke="rgb(2%, 29%, 48%)" stroke-opacity="1.0" fill="rgb(53%, 51%, 28%)" fill-opacity="0.2"><rect width="0.0887" height="0.0655" x="-0.7179" y="0.0915"/></g><g stroke-width="0" stroke="rgb(2%, 29%, 48%)" stroke-opacity="1.0" fill="rgb(2%, 73%, 80%)" fill-opacity="0.2"><rect width="0.0887" height="0.0437" x="-0.7179" y="0.1570"/></g><g stroke-width="0" stroke="rgb(2%, 29%, 48%)" stroke-opacity="1.0" fill="rgb(2%, 29%, 48%)" fill-opacity="0.2"><rect width="0.0887" height="0.0437" x="-0.7179" y="0.2007"/></g></g><g class="labels"><g stroke-width="0.0" stroke="none" fill="rgb(-63%, 46%, 53%)" fill-opacity="0.6" font-size="0.0232" text-anchor="middle"><text x="-0.6735" y="-0.3887">B96 B98</text></g><g stroke-width="0.0" stroke="none" fill="rgb(-8%, 16%, 34%)" fill-opacity="0.6" font-size="0.0232" text-anchor="middle"><text x="-0.6735" y="-0.3014">C23 C25 C27</text></g><g stroke-width="0.0" stroke="none" fill="rgb(46%, -23%, 37%)" fill-opacity="0.6" font-size="0.0232" text-anchor="middle"><text x="-0.6735" y="-0.2141">G6</text></g><g stroke-width="0.0" stroke="none" fill="rgb(64%, 31%, 61%)" fill-opacity="0.6" font-size="0.0232" text-anchor="middle"><text x="-0.6735" y="-0.1377">C22 C26</text></g><g stroke-width="0.0" stroke="none" fill="rgb(68%, 41%, -17%)" fill-opacity="0.6" font-size="0.0232" text-anchor="middle"><text x="-0.6735" y="-0.0722">D</text></g><g stroke-width="0.0" stroke="none" fill="rgb(51%, 13%, -20%)" fill-opacity="0.6" font-size="0.0232" text-anchor="middle"><text x="-0.6735" y="-0.0067">E101</text></g><g stroke-width="0.0" stroke="none" fill="rgb(10%, 17%, -4%)" fill-opacity="0.6" font-size="0.0232" text-anchor="middle"><text x="-0.6735" y="0.0588">F2</text></g><g stroke-width="0.0" stroke="none" fill="rgb(33%, 31%, 6%)" fill-opacity="0.6" font-size="0.0232" text-anchor="middle"><text x="-0.6735" y="0.1243">F33</text></g><g stroke-width="0.0" stroke="none" fill="rgb(-63%, 46%, 53%)" fill-opacity="0.6" font-size="0.0232" text-anchor="middle"><text x="-0.6735" y="0.1789">B18</text></g><g stroke-width="0.0" stroke="none" fill="rgb(-8%, 16%, 34%)" fill-opacity="0.6" font-size="0.0232" text-anchor="middle"><text x="-0.6735" y="0.2225">B20</text></g></g></g><g class="hud"><g class="axis"><g class="ticks"><g class="ticktext"><g stroke-width="0.0" stroke="none" fill="rgb(5%, 5%, 5%)" fill-opacity="1.0" font-size="0.0225" text-anchor="end"><text x="-0.6735" y="0.2904" transform="rotate(-45.0, -0.6735, 0.2904)">Cabin</text></g></g></g></g></g><g class="frame"><g stroke-width="0" stroke="rgb(0%, 0%, 0%)" stroke-opacity="0" fill="rgb(0%, 0%, 0%)" fill-opacity="0"><rect width="1.4901" height="1.0" x="-0.7401" y="-0.5"/></g></g></g><g class="hud"></g></svg>